<?xml version="1.0" encoding="UTF-8" standalone="no"?>
<!-- Created with Inkscape (http://www.inkscape.org/) -->

<svg
   width="1024"
   height="768"
   viewBox="0 0 1024 768"
   version="1.1"
   id="svg1"
   inkscape:version="1.4.2 (ebf0e940d0, 2025-05-08)"
   sodipodi:docname="clown_neon.svg"
   xml:space="preserve"
   xmlns:inkscape="http://www.inkscape.org/namespaces/inkscape"
   xmlns:sodipodi="http://sodipodi.sourceforge.net/DTD/sodipodi-0.dtd"
   xmlns="http://www.w3.org/2000/svg"
   xmlns:svg="http://www.w3.org/2000/svg"><sodipodi:namedview
     id="namedview1"
     pagecolor="#505050"
     bordercolor="#eeeeee"
     borderopacity="1"
     inkscape:showpageshadow="0"
     inkscape:pageopacity="0"
     inkscape:pagecheckerboard="0"
     inkscape:deskcolor="#505050"
     inkscape:document-units="px"
     showgrid="true"
     inkscape:zoom="1.4142136"
     inkscape:cx="-24.395184"
     inkscape:cy="287.43891"
     inkscape:window-width="1745"
     inkscape:window-height="1108"
     inkscape:window-x="0"
     inkscape:window-y="0"
     inkscape:window-maximized="1"
     inkscape:current-layer="layer1"
     showguides="true"><inkscape:grid
       id="grid1"
       units="px"
       originx="0"
       originy="0"
       spacingx="1"
       spacingy="1"
       empcolor="#0073ae"
       empopacity="0.42352941"
       color="#006092"
       opacity="0.14901961"
       empspacing="8"
       enabled="true"
       visible="true" /><sodipodi:guide
       position="152,680"
       orientation="0,-1"
       id="guide41"
       inkscape:locked="false" /></sodipodi:namedview><defs
     id="defs1"><filter
       style="color-interpolation-filters:sRGB;"
       inkscape:label="Drop Shadow"
       id="filter37"
       x="-0.36139555"
       y="-0.33118811"
       width="1.7227911"
       height="1.6625486"><feFlood
         result="flood"
         in="SourceGraphic"
         flood-opacity="1.000000"
         flood-color="rgb(132,238,255)"
         id="feFlood36" /><feGaussianBlur
         result="blur"
         in="SourceGraphic"
         stdDeviation="2.936339"
         id="feGaussianBlur36" /><feOffset
         result="offset"
         in="blur"
         dx="0.000000"
         dy="0.000000"
         id="feOffset36" /><feComposite
         result="comp1"
         operator="in"
         in="flood"
         in2="offset"
         id="feComposite36" /><feComposite
         result="comp2"
         operator="over"
         in="SourceGraphic"
         in2="comp1"
         id="feComposite37" /></filter><filter
       style="color-interpolation-filters:sRGB"
       inkscape:label="Drop Shadow"
       id="filter39"
       x="-0.38274352"
       y="-2.6058034"
       width="1.7988873"
       height="6.1363968"><feFlood
         result="flood"
         in="SourceGraphic"
         flood-opacity="1"
         flood-color="rgb(255,148,125)"
         id="feFlood37" /><feGaussianBlur
         result="blur"
         in="SourceGraphic"
         stdDeviation="2.3448888483965016"
         id="feGaussianBlur37" /><feOffset
         result="offset"
         in="blur"
         dx="0.000000"
         dy="0.000000"
         id="feOffset37" /><feComposite
         result="comp1"
         operator="in"
         in="flood"
         in2="offset"
         id="feComposite38" /><feComposite
         result="comp2"
         operator="over"
         in="SourceGraphic"
         in2="comp1"
         id="feComposite39" /></filter><filter
       style="color-interpolation-filters:sRGB;"
       inkscape:label="Drop Shadow"
       id="filter41"
       x="-2.1116134"
       y="-6.607079"
       width="5.3208507"
       height="14.214158"><feFlood
         result="flood"
         in="SourceGraphic"
         flood-opacity="1"
         flood-color="rgb(255,152,252)"
         id="feFlood39" /><feGaussianBlur
         result="blur"
         in="SourceGraphic"
         stdDeviation="2.3448888483965016"
         id="feGaussianBlur39" /><feOffset
         result="offset"
         in="blur"
         dx="0.000000"
         dy="0.000000"
         id="feOffset39" /><feComposite
         result="comp1"
         operator="in"
         in="flood"
         in2="offset"
         id="feComposite40" /><feComposite
         result="comp2"
         operator="over"
         in="SourceGraphic"
         in2="comp1"
         id="feComposite41" /></filter><filter
       style="color-interpolation-filters:sRGB;"
       inkscape:label="Drop Shadow"
       id="filter44"
       x="-0.28860171"
       y="-0.26175504"
       width="1.5772034"
       height="1.5235101"><feFlood
         result="flood"
         in="SourceGraphic"
         flood-opacity="1"
         flood-color="rgb(160,255,120)"
         id="feFlood43" /><feGaussianBlur
         result="blur"
         in="SourceGraphic"
         stdDeviation="2.3448888483965016"
         id="feGaussianBlur43" /><feOffset
         result="offset"
         in="blur"
         dx="0.000000"
         dy="0.000000"
         id="feOffset43" /><feComposite
         result="comp1"
         operator="in"
         in="flood"
         in2="offset"
         id="feComposite43" /><feComposite
         result="comp2"
         operator="over"
         in="SourceGraphic"
         in2="comp1"
         id="feComposite44" /></filter><filter
       style="color-interpolation-filters:sRGB;"
       inkscape:label="Drop Shadow"
       id="filter57"
       x="-0.027229055"
       y="-0.07526884"
       width="1.0544392"
       height="1.1505402"><feFlood
         result="flood"
         in="SourceGraphic"
         flood-opacity="1"
         flood-color="rgb(232,232,232)"
         id="feFlood56" /><feGaussianBlur
         result="blur"
         in="SourceGraphic"
         stdDeviation="2.3448888483965016"
         id="feGaussianBlur56" /><feOffset
         result="offset"
         in="blur"
         dx="0.000000"
         dy="0.000000"
         id="feOffset56" /><feComposite
         result="comp1"
         operator="in"
         in="flood"
         in2="offset"
         id="feComposite56" /><feComposite
         result="comp2"
         operator="over"
         in="SourceGraphic"
         in2="comp1"
         id="feComposite57" /></filter><filter
       style="color-interpolation-filters:sRGB"
       inkscape:label="Drop Shadow"
       id="filter59"
       x="-0.89446242"
       y="-0.7912555"
       width="2.7889139"
       height="2.5824932"><feFlood
         result="flood"
         in="SourceGraphic"
         flood-opacity="1.000000"
         flood-color="rgb(246,240,74)"
         id="feFlood57" /><feGaussianBlur
         result="blur"
         in="SourceGraphic"
         stdDeviation="2.936339"
         id="feGaussianBlur57" /><feOffset
         result="offset"
         in="blur"
         dx="0.000000"
         dy="0.000000"
         id="feOffset57" /><feComposite
         result="comp1"
         operator="in"
         in="flood"
         in2="offset"
         id="feComposite58" /><feComposite
         result="comp2"
         operator="over"
         in="SourceGraphic"
         in2="comp1"
         id="feComposite59" /></filter><filter
       style="color-interpolation-filters:sRGB;"
       inkscape:label="Drop Shadow"
       id="filter78"
       x="-0.25609731"
       y="-0.35465077"
       width="1.5131202"
       height="1.6758112"><feFlood
         result="flood"
         in="SourceGraphic"
         flood-opacity="1.000000"
         flood-color="rgb(255,148,148)"
         id="feFlood77" /><feGaussianBlur
         result="blur"
         in="SourceGraphic"
         stdDeviation="2.936339"
         id="feGaussianBlur77" /><feOffset
         result="offset"
         in="blur"
         dx="0.000000"
         dy="0.000000"
         id="feOffset77" /><feComposite
         result="comp1"
         operator="in"
         in="flood"
         in2="offset"
         id="feComposite77" /><feComposite
         result="comp2"
         operator="over"
         in="SourceGraphic"
         in2="comp1"
         id="feComposite78" /></filter></defs><g
     inkscape:label="Layer 1"
     inkscape:groupmode="layer"
     id="layer1"><rect
       style="opacity:0.998818;fill:#000000;fill-opacity:1;stroke-width:4;stroke-linejoin:round;paint-order:markers stroke fill"
       id="rect1"
       width="1024"
       height="768"
       x="0"
       y="0"
       ry="0" /><rect
       style="opacity:0.998818;fill:#171622;fill-opacity:1;stroke:#5e198e;stroke-width:4;stroke-linejoin:round;paint-order:normal"
       id="rect2"
       width="1008"
       height="32"
       x="8"
       y="8" /><ellipse
       style="opacity:0.998818;fill:none;fill-opacity:1;stroke:#f23722;stroke-width:2;stroke-linejoin:round;stroke-dasharray:none;paint-order:normal;filter:url(#filter39)"
       id="path3"
       cx="224"
       cy="144"
       rx="104"
       ry="72" /><path
       style="opacity:0.998818;fill:none;fill-opacity:1;stroke:#bc2fe3;stroke-width:2;stroke-linejoin:round;stroke-dasharray:none;paint-order:normal;filter:url(#filter41)"
       d="m 144,216 c 16,16 56,20.24264 80,19.53553 C 252.05711,234.70889 304,224 304,224 c 65.67395,27.07885 -1.52383,60.92239 -88,64 -96.29846,3.42718 -125.089802,-68.32046 -72,-72 z"
       id="path4"
       sodipodi:nodetypes="cscsc" /><rect
       style="opacity:0.998818;fill:#cead19;fill-opacity:1;stroke:none;stroke-width:2;stroke-linejoin:round;stroke-dasharray:none;paint-order:normal"
       id="rect7"
       width="24"
       height="16"
       x="16"
       y="-48" /><rect
       style="opacity:0.998818;fill:#f36f1c;fill-opacity:1;stroke:none;stroke-width:2;stroke-linejoin:round;stroke-dasharray:none;paint-order:normal"
       id="rect8"
       width="24"
       height="16"
       x="40"
       y="-48" /><rect
       style="opacity:0.998818;fill:#f23722;fill-opacity:1;stroke:none;stroke-width:2;stroke-linejoin:round;stroke-dasharray:none;paint-order:normal"
       id="rect9"
       width="24"
       height="16"
       x="64"
       y="-48" /><rect
       style="opacity:0.998818;fill:#a4644a;fill-opacity:1;stroke:none;stroke-width:2;stroke-linejoin:round;stroke-dasharray:none;paint-order:normal"
       id="rect10"
       width="24"
       height="16"
       x="88"
       y="-48" /><rect
       style="opacity:0.998818;fill:#3ecb2b;fill-opacity:1;stroke:none;stroke-width:2;stroke-linejoin:round;stroke-dasharray:none;paint-order:normal"
       id="rect11"
       width="24"
       height="16"
       x="112"
       y="-48" /><rect
       style="opacity:0.998818;fill:#299be2;fill-opacity:1;stroke:none;stroke-width:2;stroke-linejoin:round;stroke-dasharray:none;paint-order:normal"
       id="rect12"
       width="24"
       height="16"
       x="136"
       y="-48" /><rect
       style="opacity:0.998818;fill:#bc2fe3;fill-opacity:1;stroke:none;stroke-width:2;stroke-linejoin:round;stroke-dasharray:none;paint-order:normal"
       id="rect13"
       width="24"
       height="16"
       x="160"
       y="-48" /><rect
       style="opacity:0.998818;fill:#f11985;fill-opacity:1;stroke:none;stroke-width:2;stroke-linejoin:round;stroke-dasharray:none;paint-order:normal"
       id="rect14"
       width="24"
       height="16"
       x="184"
       y="-48" /><rect
       style="opacity:0.998818;fill:#6f5922;fill-opacity:1;stroke:none;stroke-width:2;stroke-linejoin:round;stroke-dasharray:none;paint-order:normal"
       id="rect15"
       width="24"
       height="16"
       x="16"
       y="-32" /><rect
       style="opacity:0.998818;fill:#87381d;fill-opacity:1;stroke:none;stroke-width:2;stroke-linejoin:round;stroke-dasharray:none;paint-order:normal"
       id="rect16"
       width="24"
       height="16"
       x="40"
       y="-32" /><rect
       style="opacity:0.998818;fill:#8c1d32;fill-opacity:1;stroke:none;stroke-width:2;stroke-linejoin:round;stroke-dasharray:none;paint-order:normal"
       id="rect17"
       width="24"
       height="16"
       x="64"
       y="-32" /><rect
       style="opacity:0.998818;fill:#60302c;fill-opacity:1;stroke:none;stroke-width:2;stroke-linejoin:round;stroke-dasharray:none;paint-order:normal"
       id="rect18"
       width="24"
       height="16"
       x="88"
       y="-32" /><rect
       style="opacity:0.998818;fill:#1a6636;fill-opacity:1;stroke:none;stroke-width:2;stroke-linejoin:round;stroke-dasharray:none;paint-order:normal"
       id="rect19"
       width="24"
       height="16"
       x="112"
       y="-32" /><rect
       style="opacity:0.998818;fill:#274fa2;fill-opacity:1;stroke:none;stroke-width:2;stroke-linejoin:round;stroke-dasharray:none;paint-order:normal"
       id="rect20"
       width="24"
       height="16"
       x="136"
       y="-32" /><rect
       style="opacity:0.998818;fill:#5e198e;fill-opacity:1;stroke:none;stroke-width:2;stroke-linejoin:round;stroke-dasharray:none;paint-order:normal"
       id="rect21"
       width="24"
       height="16"
       x="160"
       y="-32" /><rect
       style="opacity:0.998818;fill:#88126f;fill-opacity:1;stroke:none;stroke-width:2;stroke-linejoin:round;stroke-dasharray:none;paint-order:normal"
       id="rect22"
       width="24"
       height="16"
       x="184"
       y="-32" /><rect
       style="opacity:0.998818;fill:#f6f04a;fill-opacity:1;stroke:none;stroke-width:2;stroke-linejoin:round;stroke-dasharray:none;paint-order:normal"
       id="rect23"
       width="24"
       height="16"
       x="16"
       y="-64" /><rect
       style="opacity:0.998818;fill:#ffb45f;fill-opacity:1;stroke:none;stroke-width:2;stroke-linejoin:round;stroke-dasharray:none;paint-order:normal"
       id="rect24"
       width="24"
       height="16"
       x="40"
       y="-64" /><rect
       style="opacity:0.998818;fill:#ff947d;fill-opacity:1;stroke:none;stroke-width:2;stroke-linejoin:round;stroke-dasharray:none;paint-order:normal"
       id="rect25"
       width="24"
       height="16"
       x="64"
       y="-64" /><rect
       style="opacity:0.998818;fill:#dda980;fill-opacity:1;stroke:none;stroke-width:2;stroke-linejoin:round;stroke-dasharray:none;paint-order:normal"
       id="rect26"
       width="24"
       height="16"
       x="88"
       y="-64" /><rect
       style="opacity:0.998818;fill:#a0ff78;fill-opacity:1;stroke:none;stroke-width:2;stroke-linejoin:round;stroke-dasharray:none;paint-order:normal"
       id="rect27"
       width="24"
       height="16"
       x="112"
       y="-64" /><rect
       style="opacity:0.998818;fill:#84eeff;fill-opacity:1;stroke:none;stroke-width:2;stroke-linejoin:round;stroke-dasharray:none;paint-order:normal"
       id="rect28"
       width="24"
       height="16"
       x="136"
       y="-64" /><path
       style="opacity:0.998818;fill:none;fill-opacity:1;stroke:#f11985;stroke-width:2;stroke-linejoin:round;stroke-dasharray:none;paint-order:normal;filter:url(#filter78)"
       d="m 47.5,132.62501 c 0,0 1.673341,-6.82546 7.875,-6.25 9.31339,0.8642 1.673033,5.375 5.875,5.375 3.534707,0 5.75,0.25 13.75,-8.75 2.490489,-2.8018 10,-22 -7,-8"
       id="path48"
       sodipodi:nodetypes="csssc" /><rect
       style="opacity:0.998818;fill:#ff98fc;fill-opacity:1;stroke:none;stroke-width:2;stroke-linejoin:round;stroke-dasharray:none;paint-order:normal"
       id="rect29"
       width="24"
       height="16"
       x="160"
       y="-64" /><rect
       style="opacity:0.998818;fill:#ff9494;fill-opacity:1;stroke:none;stroke-width:2;stroke-linejoin:round;stroke-dasharray:none;paint-order:normal"
       id="rect30"
       width="24"
       height="16"
       x="184"
       y="-64" /><path
       style="opacity:0.998818;fill:none;fill-opacity:1;stroke:#ffffff;stroke-width:2;stroke-linejoin:round;stroke-dasharray:none;paint-order:normal;filter:url(#filter57)"
       d="m 136,208 c 45.44058,-1.10293 57.28918,16 88,16 56,0 66.82291,-12.8693 90.75,-11 64,5 29.25,83 -98.75,83 -107.3871,0 -148.116532,-86.34668 -80,-88 z"
       id="path43"
       sodipodi:nodetypes="sssss" /><path
       id="path44"
       style="display:inline;opacity:0.998818;fill:none;fill-opacity:1;stroke:#3ecb2b;stroke-width:2;stroke-linejoin:round;stroke-dasharray:none;paint-order:normal;filter:url(#filter44)"
       d="M 132.66211,83.464844 128,64 115.42773,76.572266 M 112,80 l -8,96 22.98047,-80.289062"
       sodipodi:nodetypes="cccccc" /><path
       style="display:inline;opacity:0.998818;fill:none;fill-opacity:1;stroke:#299be2;stroke-width:2;stroke-linejoin:round;stroke-dasharray:none;paint-order:normal;filter:url(#filter37)"
       d="m 256,80 40,-16 -8,8 c 0,0 0.2908,11.634892 -16,16 -8,2.143594 -16,-8 -16,-8 z"
       id="path41"
       sodipodi:nodetypes="cccsc"
       transform="matrix(-1,0,0,1,400,8)" /><g
       style="fill:#299be2;filter:url(#filter37)"
       id="g45"
       transform="matrix(2.272131,0,0,2.272131,13.34242,67.409839)"><path
         fill-rule="evenodd"
         clip-rule="evenodd"
         d="m 11.9375,1.25 h 0.125 c 2.0683,-2e-5 3.7053,-3e-5 4.986,0.19129 1.324,0.19778 2.3738,0.61352 3.191,1.52145 0.8069,0.89662 1.1671,2.02948 1.3403,3.46081 C 21.75,7.83014 21.75,9.63498 21.75,11.9478 v 0.1044 c 0,2.3128 0,4.1177 -0.1702,5.5243 -0.1732,1.4313 -0.5334,2.5641 -1.3403,3.4608 -0.8172,0.9079 -1.867,1.3236 -3.191,1.5214 -1.2807,0.1913 -2.9177,0.1913 -4.986,0.1913 h -0.125 c -2.0683,0 -3.70529,0 -4.98603,-0.1913 C 5.62747,22.3609 4.57769,21.9452 3.76055,21.0373 2.95359,20.1406 2.59338,19.0078 2.42018,17.5765 2.24998,16.1699 2.24999,14.365 2.25,12.0522 V 11.9478 C 2.24999,9.63499 2.24998,7.83014 2.42018,6.42355 2.59338,4.99222 2.95359,3.85936 3.76055,2.96274 4.57769,2.05481 5.62747,1.63907 6.95147,1.44129 8.23221,1.24997 9.86922,1.24998 11.9375,1.25 Z M 7.17309,2.92483 C 6.04626,3.09316 5.37637,3.40965 4.87549,3.96619 4.36443,4.53404 4.06563,5.31193 3.90932,6.60374 3.7513,7.90972 3.75,9.62385 3.75,12 c 0,2.3762 0.0013,4.0903 0.15932,5.3963 0.15631,1.2918 0.45511,2.0697 0.96617,2.6375 0.50088,0.5565 1.17077,0.873 2.2976,1.0414 C 8.33029,21.248 9.8552,21.25 12,21.25 c 2.1448,0 3.6697,-0.002 4.8269,-0.1748 1.1268,-0.1684 1.7967,-0.4849 2.2976,-1.0414 0.5111,-0.5678 0.8099,-1.3457 0.9662,-2.6375 C 20.2487,16.0903 20.25,14.3762 20.25,12 20.25,9.62385 20.2487,7.90972 20.0907,6.60374 19.9344,5.31193 19.6356,4.53404 19.1245,3.96619 18.6236,3.40965 17.9537,3.09316 16.8269,2.92483 15.6697,2.75196 14.1448,2.75 12,2.75 9.8552,2.75 8.33029,2.75196 7.17309,2.92483 Z M 8.91612,5.24994 C 8.9438,5.24997 8.97176,5.25 9,5.25 h 6 c 0.0282,0 0.0562,-3e-5 0.0839,-6e-5 0.3808,-4e-4 0.7093,-7.5e-4 0.9984,0.07673 0.7765,0.20805 1.383,0.81453 1.591,1.59099 0.0775,0.28914 0.0772,0.61767 0.0768,0.99846 C 17.75,7.9438 17.75,7.97176 17.75,8 c 0,0.02824 0,0.0562 10e-5,0.08389 4e-4,0.38079 7e-4,0.70931 -0.0768,0.99845 -0.208,0.77646 -0.8145,1.38296 -1.591,1.59096 -0.2891,0.0775 -0.6176,0.0772 -0.9984,0.0768 C 15.0562,10.75 15.0282,10.75 15,10.75 H 9 c -0.02824,0 -0.0562,0 -0.08388,10e-5 -0.38079,4e-4 -0.70932,7e-4 -0.99846,-0.0768 C 7.1412,10.4653 6.53472,9.8588 6.32667,9.08234 6.24919,8.7932 6.24954,8.46468 6.24994,8.08389 6.24997,8.0562 6.25,8.02824 6.25,8 6.25,7.97176 6.24997,7.9438 6.24994,7.91612 6.24954,7.53533 6.24919,7.2068 6.32667,6.91766 6.53472,6.1412 7.1412,5.53472 7.91766,5.32667 8.2068,5.24919 8.53533,5.24954 8.91612,5.24994 Z M 9,6.75 C 8.48673,6.75 8.37722,6.75644 8.30589,6.77556 8.04707,6.84491 7.84491,7.04707 7.77556,7.30589 7.75644,7.37722 7.75,7.48673 7.75,8 7.75,8.51327 7.75644,8.62278 7.77556,8.69412 7.84491,8.95293 8.04707,9.1551 8.30589,9.22445 8.37722,9.24356 8.48673,9.25 9,9.25 h 6 c 0.5133,0 0.6228,-0.00644 0.6941,-0.02555 C 15.9529,9.1551 16.1551,8.95293 16.2244,8.69412 16.2436,8.62278 16.25,8.51327 16.25,8 16.25,7.48673 16.2436,7.37722 16.2244,7.30589 16.1551,7.04707 15.9529,6.84491 15.6941,6.77556 15.6228,6.75644 15.5133,6.75 15,6.75 Z m -0.5,6.5 c 0.41421,0 0.75,0.3358 0.75,0.75 v 0.75 H 10 c 0.4142,0 0.75,0.3358 0.75,0.75 0,0.4142 -0.3358,0.75 -0.75,0.75 H 9.25 V 17 c 0,0.4142 -0.33579,0.75 -0.75,0.75 C 8.08579,17.75 7.75,17.4142 7.75,17 V 16.25 H 7 C 6.58579,16.25 6.25,15.9142 6.25,15.5 6.25,15.0858 6.58579,14.75 7,14.75 H 7.75 V 14 c 0,-0.4142 0.33579,-0.75 0.75,-0.75 z"
         fill="#000000"
         id="path1"
         style="fill:#299be2" /><path
         d="m 16.3333,13.8333 c 0,0.4603 -0.3731,0.8334 -0.8333,0.8334 -0.4602,0 -0.8333,-0.3731 -0.8333,-0.8334 C 14.6667,13.3731 15.0398,13 15.5,13 c 0.4602,0 0.8333,0.3731 0.8333,0.8333 z"
         fill="#000000"
         id="path2"
         style="fill:#299be2" /><path
         d="M 16.3333,17.1667 C 16.3333,17.6269 15.9602,18 15.5,18 c -0.4602,0 -0.8333,-0.3731 -0.8333,-0.8333 0,-0.4603 0.3731,-0.8334 0.8333,-0.8334 0.4602,0 0.8333,0.3731 0.8333,0.8334 z"
         fill="#000000"
         id="path3-3"
         style="fill:#299be2" /><path
         d="m 14.6667,15.5 c 0,0.4602 -0.3731,0.8333 -0.8334,0.8333 C 13.3731,16.3333 13,15.9602 13,15.5 c 0,-0.4602 0.3731,-0.8333 0.8333,-0.8333 0.4603,0 0.8334,0.3731 0.8334,0.8333 z"
         fill="#000000"
         id="path4-6"
         style="fill:#299be2" /><path
         d="m 18,15.5 c 0,0.4602 -0.3731,0.8333 -0.8333,0.8333 -0.4603,0 -0.8334,-0.3731 -0.8334,-0.8333 0,-0.4602 0.3731,-0.8333 0.8334,-0.8333 0.4602,0 0.8333,0.3731 0.8333,0.8333 z"
         fill="#000000"
         id="path5-7"
         style="fill:#299be2" /></g><path
       style="opacity:0.998818;fill:none;fill-opacity:1;stroke:#cead19;stroke-width:2;stroke-linejoin:round;stroke-dasharray:none;paint-order:normal;filter:url(#filter59)"
       d="m 67.376666,114.91492 8.243348,0.2173 -8.99668,9.95288 z"
       id="path47" /><rect
       style="opacity:0.998818;fill:none;fill-opacity:1;stroke:#cead19;stroke-width:2;stroke-linejoin:round;stroke-dasharray:none;paint-order:normal;filter:url(#filter59)"
       id="rect48"
       width="64"
       height="57.93087"
       x="9"
       y="65"
       ry="24" /><path
       id="path55"
       style="display:inline;opacity:0.998818;fill:none;fill-opacity:1;stroke:#3ecb2b;stroke-width:2;stroke-linejoin:round;stroke-dasharray:none;paint-order:normal;filter:url(#filter44)"
       d="M 132.66211,83.464844 128,64 115.42773,76.572266 M 112,80 l -8,96 22.98047,-80.289062"
       sodipodi:nodetypes="cccccc"
       transform="matrix(-1,0,0,1,448,0)" /><path
       style="display:inline;opacity:0.998818;fill:none;fill-opacity:1;stroke:#299be2;stroke-width:2;stroke-linejoin:round;stroke-dasharray:none;paint-order:normal;filter:url(#filter37)"
       d="m 304,88 40,-16 -8,8 c 0,0 0.2908,11.634892 -16,16 -8,2.143594 -16,-8 -16,-8 z"
       id="path56"
       sodipodi:nodetypes="cccsc" /><path
       style="opacity:0.998818;fill:none;fill-opacity:1;stroke:#f36f1c;stroke-width:2;stroke-linejoin:round;stroke-dasharray:none;paint-order:normal;filter:url(#filter39)"
       d="m 56.000003,202 c 0,0 7.278416,5.42454 13.480075,6 9.31339,0.8642 -1.540039,-6.47733 2.661928,-6.47733 3.534707,0 6.114588,-1.52267 3.968907,-9.52267"
       id="path71"
       sodipodi:nodetypes="cssc" /><g
       style="fill:#3ecb2b;filter:url(#filter44)"
       id="g76"
       transform="matrix(2.272131,0,0,2.272131,12.734428,145.75164)"><path
         fill-rule="evenodd"
         clip-rule="evenodd"
         d="m 11.9375,1.25 h 0.125 c 2.0683,-2e-5 3.7053,-3e-5 4.986,0.19129 1.324,0.19778 2.3738,0.61352 3.191,1.52145 0.8069,0.89662 1.1671,2.02948 1.3403,3.46081 C 21.75,7.83014 21.75,9.63498 21.75,11.9478 v 0.1044 c 0,2.3128 0,4.1177 -0.1702,5.5243 -0.1732,1.4313 -0.5334,2.5641 -1.3403,3.4608 -0.8172,0.9079 -1.867,1.3236 -3.191,1.5214 -1.2807,0.1913 -2.9177,0.1913 -4.986,0.1913 h -0.125 c -2.0683,0 -3.70529,0 -4.98603,-0.1913 C 5.62747,22.3609 4.57769,21.9452 3.76055,21.0373 2.95359,20.1406 2.59338,19.0078 2.42018,17.5765 2.24998,16.1699 2.24999,14.365 2.25,12.0522 V 11.9478 C 2.24999,9.63499 2.24998,7.83014 2.42018,6.42355 2.59338,4.99222 2.95359,3.85936 3.76055,2.96274 4.57769,2.05481 5.62747,1.63907 6.95147,1.44129 8.23221,1.24997 9.86922,1.24998 11.9375,1.25 Z M 7.17309,2.92483 C 6.04626,3.09316 5.37637,3.40965 4.87549,3.96619 4.36443,4.53404 4.06563,5.31193 3.90932,6.60374 3.7513,7.90972 3.75,9.62385 3.75,12 c 0,2.3762 0.0013,4.0903 0.15932,5.3963 0.15631,1.2918 0.45511,2.0697 0.96617,2.6375 0.50088,0.5565 1.17077,0.873 2.2976,1.0414 C 8.33029,21.248 9.8552,21.25 12,21.25 c 2.1448,0 3.6697,-0.002 4.8269,-0.1748 1.1268,-0.1684 1.7967,-0.4849 2.2976,-1.0414 0.5111,-0.5678 0.8099,-1.3457 0.9662,-2.6375 C 20.2487,16.0903 20.25,14.3762 20.25,12 20.25,9.62385 20.2487,7.90972 20.0907,6.60374 19.9344,5.31193 19.6356,4.53404 19.1245,3.96619 18.6236,3.40965 17.9537,3.09316 16.8269,2.92483 15.6697,2.75196 14.1448,2.75 12,2.75 9.8552,2.75 8.33029,2.75196 7.17309,2.92483 Z M 8.91612,5.24994 C 8.9438,5.24997 8.97176,5.25 9,5.25 h 6 c 0.0282,0 0.0562,-3e-5 0.0839,-6e-5 0.3808,-4e-4 0.7093,-7.5e-4 0.9984,0.07673 0.7765,0.20805 1.383,0.81453 1.591,1.59099 0.0775,0.28914 0.0772,0.61767 0.0768,0.99846 C 17.75,7.9438 17.75,7.97176 17.75,8 c 0,0.02824 0,0.0562 10e-5,0.08389 4e-4,0.38079 7e-4,0.70931 -0.0768,0.99845 -0.208,0.77646 -0.8145,1.38296 -1.591,1.59096 -0.2891,0.0775 -0.6176,0.0772 -0.9984,0.0768 C 15.0562,10.75 15.0282,10.75 15,10.75 H 9 c -0.02824,0 -0.0562,0 -0.08388,10e-5 -0.38079,4e-4 -0.70932,7e-4 -0.99846,-0.0768 C 7.1412,10.4653 6.53472,9.8588 6.32667,9.08234 6.24919,8.7932 6.24954,8.46468 6.24994,8.08389 6.24997,8.0562 6.25,8.02824 6.25,8 6.25,7.97176 6.24997,7.9438 6.24994,7.91612 6.24954,7.53533 6.24919,7.2068 6.32667,6.91766 6.53472,6.1412 7.1412,5.53472 7.91766,5.32667 8.2068,5.24919 8.53533,5.24954 8.91612,5.24994 Z M 9,6.75 C 8.48673,6.75 8.37722,6.75644 8.30589,6.77556 8.04707,6.84491 7.84491,7.04707 7.77556,7.30589 7.75644,7.37722 7.75,7.48673 7.75,8 7.75,8.51327 7.75644,8.62278 7.77556,8.69412 7.84491,8.95293 8.04707,9.1551 8.30589,9.22445 8.37722,9.24356 8.48673,9.25 9,9.25 h 6 c 0.5133,0 0.6228,-0.00644 0.6941,-0.02555 C 15.9529,9.1551 16.1551,8.95293 16.2244,8.69412 16.2436,8.62278 16.25,8.51327 16.25,8 16.25,7.48673 16.2436,7.37722 16.2244,7.30589 16.1551,7.04707 15.9529,6.84491 15.6941,6.77556 15.6228,6.75644 15.5133,6.75 15,6.75 Z m -0.5,6.5 c 0.41421,0 0.75,0.3358 0.75,0.75 v 0.75 H 10 c 0.4142,0 0.75,0.3358 0.75,0.75 0,0.4142 -0.3358,0.75 -0.75,0.75 H 9.25 V 17 c 0,0.4142 -0.33579,0.75 -0.75,0.75 C 8.08579,17.75 7.75,17.4142 7.75,17 V 16.25 H 7 C 6.58579,16.25 6.25,15.9142 6.25,15.5 6.25,15.0858 6.58579,14.75 7,14.75 H 7.75 V 14 c 0,-0.4142 0.33579,-0.75 0.75,-0.75 z"
         fill="#000000"
         id="path72"
         style="fill:#3ecb2b" /><path
         d="m 16.3333,13.8333 c 0,0.4603 -0.3731,0.8334 -0.8333,0.8334 -0.4602,0 -0.8333,-0.3731 -0.8333,-0.8334 C 14.6667,13.3731 15.0398,13 15.5,13 c 0.4602,0 0.8333,0.3731 0.8333,0.8333 z"
         fill="#000000"
         id="path73"
         style="fill:#3ecb2b" /><path
         d="M 16.3333,17.1667 C 16.3333,17.6269 15.9602,18 15.5,18 c -0.4602,0 -0.8333,-0.3731 -0.8333,-0.8333 0,-0.4603 0.3731,-0.8334 0.8333,-0.8334 0.4602,0 0.8333,0.3731 0.8333,0.8334 z"
         fill="#000000"
         id="path74"
         style="fill:#3ecb2b" /><path
         d="m 14.6667,15.5 c 0,0.4602 -0.3731,0.8333 -0.8334,0.8333 C 13.3731,16.3333 13,15.9602 13,15.5 c 0,-0.4602 0.3731,-0.8333 0.8333,-0.8333 0.4603,0 0.8334,0.3731 0.8334,0.8333 z"
         fill="#000000"
         id="path75"
         style="fill:#3ecb2b" /><path
         d="m 18,15.5 c 0,0.4602 -0.3731,0.8333 -0.8333,0.8333 -0.4603,0 -0.8334,-0.3731 -0.8334,-0.8333 0,-0.4602 0.3731,-0.8333 0.8334,-0.8333 0.4602,0 0.8333,0.3731 0.8333,0.8333 z"
         fill="#000000"
         id="path76"
         style="fill:#3ecb2b" /></g><path
       style="opacity:0.998818;fill:none;fill-opacity:1;stroke:#bc2fe3;stroke-width:2;stroke-linejoin:round;stroke-dasharray:none;paint-order:normal;filter:url(#filter41)"
       d="m 40.142007,201.52267 8.243348,0.2173 -8.99668,9.95288 z"
       id="path77"
       transform="rotate(44.606995,47.489179,221.09087)" /><rect
       style="opacity:0.998818;fill:none;fill-opacity:1;stroke:#bc2fe3;stroke-width:2;stroke-linejoin:round;stroke-dasharray:none;paint-order:normal;filter:url(#filter41)"
       id="rect77"
       width="64"
       height="57.93087"
       x="8.1420078"
       y="143.5918"
       ry="8.4082031" /><path
       style="opacity:0.998818;fill:none;fill-opacity:1;stroke:#f36f1c;stroke-width:2;stroke-linejoin:round;stroke-dasharray:none;paint-order:normal;filter:url(#filter39)"
       d="m 55.857996,282.4082 c 0,0 1.940345,-2.98366 8.142004,-2.4082 9.31339,0.8642 -2.807153,-4.25 1.394814,-4.25 3.534707,0 9.094773,-3.75 10.199092,1.7832"
       id="path84"
       sodipodi:nodetypes="cssc" /><path
       style="opacity:0.998818;fill:none;fill-opacity:1;stroke:#bc2fe3;stroke-width:2;stroke-linejoin:round;stroke-dasharray:none;paint-order:normal;filter:url(#filter41)"
       d="m 61,254 8.473241,-6 7.424622,8"
       id="path91"
       sodipodi:nodetypes="ccc" /><path
       style="opacity:0.998818;fill:none;fill-opacity:1;stroke:#bc2fe3;stroke-width:2;stroke-linejoin:round;stroke-dasharray:none;paint-order:normal;filter:url(#filter41)"
       d="M 58,234 67.351921,229.63293 62,226 l 7,-2"
       id="path92"
       sodipodi:nodetypes="cccc" /><path
       style="opacity:0.998818;fill:none;fill-opacity:1;stroke:#bc2fe3;stroke-width:2;stroke-linejoin:round;stroke-dasharray:none;paint-order:normal;filter:url(#filter41)"
       d="m 59,269 7.644814,3 9.722718,-4.36008"
       id="path93"
       sodipodi:nodetypes="ccc" /><path
       style="opacity:0.998818;fill:none;fill-opacity:1;stroke:#bc2fe3;stroke-width:2;stroke-linejoin:round;stroke-dasharray:none;paint-order:normal;filter:url(#filter41)"
       d="m 16,272 2.031223,5.53941 L 8.1483378,275.10997 8,281.93088"
       id="path94" /><path
       style="opacity:0.998818;fill:none;fill-opacity:1;stroke:#bc2fe3;stroke-width:2;stroke-linejoin:round;stroke-dasharray:none;paint-order:normal;filter:url(#filter41)"
       d="M 17.8103,262.38318 13.788582,256 11.894291,260 8,256"
       id="path95"
       sodipodi:nodetypes="cccc" /><path
       style="opacity:0.998818;fill:none;fill-opacity:1;stroke:#bc2fe3;stroke-width:2;stroke-linejoin:round;stroke-dasharray:none;paint-order:normal;filter:url(#filter41)"
       d="m 20.204889,240.26156 -8.409778,-0.52311 1.475611,-6.75438 -6.1448942,0.256"
       id="path96" /><path
       style="opacity:0.998818;fill:none;fill-opacity:1;stroke:#bc2fe3;stroke-width:2;stroke-linejoin:round;stroke-dasharray:none;paint-order:normal;filter:url(#filter41)"
       d="m 39.715985,229 -2.946432,-5 h 6.894291"
       id="path97" /><path
       style="opacity:0.998818;fill:none;fill-opacity:1;stroke:#bc2fe3;stroke-width:2;stroke-linejoin:round;stroke-dasharray:none;paint-order:normal;filter:url(#filter41)"
       d="m 26,232 2,-4 -6,-4"
       id="path98" /><path
       style="opacity:0.998818;fill:none;fill-opacity:1;stroke:#bc2fe3;stroke-width:2;stroke-linejoin:round;stroke-dasharray:none;paint-order:normal;filter:url(#filter41)"
       d="m 33,276 2,4 -3,3"
       id="path99" /><path
       style="opacity:0.998818;fill:none;fill-opacity:1;stroke:#bc2fe3;stroke-width:2;stroke-linejoin:round;stroke-dasharray:none;paint-order:normal;filter:url(#filter41)"
       d="m 47,276 h 3 c 0,0 -5,5 -5,5 l 5,2"
       id="path100" /><path
       style="opacity:0.998818;fill:none;fill-opacity:1;stroke:#bc2fe3;stroke-width:2;stroke-linejoin:round;stroke-dasharray:none;paint-order:normal;filter:url(#filter41)"
       d="m 50,231 4,-7"
       id="path101" /><path
       style="opacity:0.998818;fill:none;fill-opacity:1;stroke:#bc2fe3;stroke-width:2;stroke-linejoin:round;stroke-dasharray:none;paint-order:normal;filter:url(#filter41)"
       d="m 60,244 11,-4"
       id="path102" /><path
       style="opacity:0.998818;fill:none;fill-opacity:1;stroke:#bc2fe3;stroke-width:2;stroke-linejoin:round;stroke-dasharray:none;paint-order:normal;filter:url(#filter41)"
       d="m 26,276 -4,6"
       id="path103" /><path
       style="opacity:0.998818;fill:none;fill-opacity:1;stroke:#bc2fe3;stroke-width:2;stroke-linejoin:round;stroke-dasharray:none;paint-order:normal;filter:url(#filter41)"
       d="M 19,251 8,249"
       id="path104" /><path
       style="opacity:0.998818;fill:none;fill-opacity:1;stroke:#bc2fe3;stroke-width:2;stroke-linejoin:round;stroke-dasharray:none;paint-order:normal;filter:url(#filter41)"
       d="m 55,273 9,8"
       id="path105" /><g
       style="fill:#3ecb2b;filter:url(#filter44)"
       id="g89"
       transform="matrix(2.272131,0,0,2.272131,12.59242,226.15984)"><path
         fill-rule="evenodd"
         clip-rule="evenodd"
         d="m 11.9375,1.25 h 0.125 c 2.0683,-2e-5 3.7053,-3e-5 4.986,0.19129 1.324,0.19778 2.3738,0.61352 3.191,1.52145 0.8069,0.89662 1.1671,2.02948 1.3403,3.46081 C 21.75,7.83014 21.75,9.63498 21.75,11.9478 v 0.1044 c 0,2.3128 0,4.1177 -0.1702,5.5243 -0.1732,1.4313 -0.5334,2.5641 -1.3403,3.4608 -0.8172,0.9079 -1.867,1.3236 -3.191,1.5214 -1.2807,0.1913 -2.9177,0.1913 -4.986,0.1913 h -0.125 c -2.0683,0 -3.70529,0 -4.98603,-0.1913 C 5.62747,22.3609 4.57769,21.9452 3.76055,21.0373 2.95359,20.1406 2.59338,19.0078 2.42018,17.5765 2.24998,16.1699 2.24999,14.365 2.25,12.0522 V 11.9478 C 2.24999,9.63499 2.24998,7.83014 2.42018,6.42355 2.59338,4.99222 2.95359,3.85936 3.76055,2.96274 4.57769,2.05481 5.62747,1.63907 6.95147,1.44129 8.23221,1.24997 9.86922,1.24998 11.9375,1.25 Z M 7.17309,2.92483 C 6.04626,3.09316 5.37637,3.40965 4.87549,3.96619 4.36443,4.53404 4.06563,5.31193 3.90932,6.60374 3.7513,7.90972 3.75,9.62385 3.75,12 c 0,2.3762 0.0013,4.0903 0.15932,5.3963 0.15631,1.2918 0.45511,2.0697 0.96617,2.6375 0.50088,0.5565 1.17077,0.873 2.2976,1.0414 C 8.33029,21.248 9.8552,21.25 12,21.25 c 2.1448,0 3.6697,-0.002 4.8269,-0.1748 1.1268,-0.1684 1.7967,-0.4849 2.2976,-1.0414 0.5111,-0.5678 0.8099,-1.3457 0.9662,-2.6375 C 20.2487,16.0903 20.25,14.3762 20.25,12 20.25,9.62385 20.2487,7.90972 20.0907,6.60374 19.9344,5.31193 19.6356,4.53404 19.1245,3.96619 18.6236,3.40965 17.9537,3.09316 16.8269,2.92483 15.6697,2.75196 14.1448,2.75 12,2.75 9.8552,2.75 8.33029,2.75196 7.17309,2.92483 Z M 8.91612,5.24994 C 8.9438,5.24997 8.97176,5.25 9,5.25 h 6 c 0.0282,0 0.0562,-3e-5 0.0839,-6e-5 0.3808,-4e-4 0.7093,-7.5e-4 0.9984,0.07673 0.7765,0.20805 1.383,0.81453 1.591,1.59099 0.0775,0.28914 0.0772,0.61767 0.0768,0.99846 C 17.75,7.9438 17.75,7.97176 17.75,8 c 0,0.02824 0,0.0562 10e-5,0.08389 4e-4,0.38079 7e-4,0.70931 -0.0768,0.99845 -0.208,0.77646 -0.8145,1.38296 -1.591,1.59096 -0.2891,0.0775 -0.6176,0.0772 -0.9984,0.0768 C 15.0562,10.75 15.0282,10.75 15,10.75 H 9 c -0.02824,0 -0.0562,0 -0.08388,10e-5 -0.38079,4e-4 -0.70932,7e-4 -0.99846,-0.0768 C 7.1412,10.4653 6.53472,9.8588 6.32667,9.08234 6.24919,8.7932 6.24954,8.46468 6.24994,8.08389 6.24997,8.0562 6.25,8.02824 6.25,8 6.25,7.97176 6.24997,7.9438 6.24994,7.91612 6.24954,7.53533 6.24919,7.2068 6.32667,6.91766 6.53472,6.1412 7.1412,5.53472 7.91766,5.32667 8.2068,5.24919 8.53533,5.24954 8.91612,5.24994 Z M 9,6.75 C 8.48673,6.75 8.37722,6.75644 8.30589,6.77556 8.04707,6.84491 7.84491,7.04707 7.77556,7.30589 7.75644,7.37722 7.75,7.48673 7.75,8 7.75,8.51327 7.75644,8.62278 7.77556,8.69412 7.84491,8.95293 8.04707,9.1551 8.30589,9.22445 8.37722,9.24356 8.48673,9.25 9,9.25 h 6 c 0.5133,0 0.6228,-0.00644 0.6941,-0.02555 C 15.9529,9.1551 16.1551,8.95293 16.2244,8.69412 16.2436,8.62278 16.25,8.51327 16.25,8 16.25,7.48673 16.2436,7.37722 16.2244,7.30589 16.1551,7.04707 15.9529,6.84491 15.6941,6.77556 15.6228,6.75644 15.5133,6.75 15,6.75 Z m -0.5,6.5 c 0.41421,0 0.75,0.3358 0.75,0.75 v 0.75 H 10 c 0.4142,0 0.75,0.3358 0.75,0.75 0,0.4142 -0.3358,0.75 -0.75,0.75 H 9.25 V 17 c 0,0.4142 -0.33579,0.75 -0.75,0.75 C 8.08579,17.75 7.75,17.4142 7.75,17 V 16.25 H 7 C 6.58579,16.25 6.25,15.9142 6.25,15.5 6.25,15.0858 6.58579,14.75 7,14.75 H 7.75 V 14 c 0,-0.4142 0.33579,-0.75 0.75,-0.75 z"
         fill="#000000"
         id="path85"
         style="fill:#3ecb2b" /><path
         d="m 16.3333,13.8333 c 0,0.4603 -0.3731,0.8334 -0.8333,0.8334 -0.4602,0 -0.8333,-0.3731 -0.8333,-0.8334 C 14.6667,13.3731 15.0398,13 15.5,13 c 0.4602,0 0.8333,0.3731 0.8333,0.8333 z"
         fill="#000000"
         id="path86"
         style="fill:#3ecb2b" /><path
         d="M 16.3333,17.1667 C 16.3333,17.6269 15.9602,18 15.5,18 c -0.4602,0 -0.8333,-0.3731 -0.8333,-0.8333 0,-0.4603 0.3731,-0.8334 0.8333,-0.8334 0.4602,0 0.8333,0.3731 0.8333,0.8334 z"
         fill="#000000"
         id="path87"
         style="fill:#3ecb2b" /><path
         d="m 14.6667,15.5 c 0,0.4602 -0.3731,0.8333 -0.8334,0.8333 C 13.3731,16.3333 13,15.9602 13,15.5 c 0,-0.4602 0.3731,-0.8333 0.8333,-0.8333 0.4603,0 0.8334,0.3731 0.8334,0.8333 z"
         fill="#000000"
         id="path88"
         style="fill:#3ecb2b" /><path
         d="m 18,15.5 c 0,0.4602 -0.3731,0.8333 -0.8333,0.8333 -0.4603,0 -0.8334,-0.3731 -0.8334,-0.8333 0,-0.4602 0.3731,-0.8333 0.8334,-0.8333 0.4602,0 0.8333,0.3731 0.8333,0.8333 z"
         fill="#000000"
         id="path89"
         style="fill:#3ecb2b" /></g><path
       style="opacity:0.998818;fill:none;fill-opacity:1;stroke:#bc2fe3;stroke-width:2;stroke-linejoin:round;stroke-dasharray:none;paint-order:normal;filter:url(#filter41)"
       d="M 20.658302,352 19.189524,348.16441 16,352 l -2.466699,1.30588"
       id="path121"
       sodipodi:nodetypes="cccc" /><path
       style="opacity:0.998818;fill:none;fill-opacity:1;stroke:#bc2fe3;stroke-width:2;stroke-linejoin:round;stroke-dasharray:none;paint-order:normal;filter:url(#filter41)"
       d="M 26.843601,352 22,353"
       id="path122"
       sodipodi:nodetypes="cc" /><g
       style="fill:#3ecb2b;filter:url(#filter44)"
       id="g137"
       transform="matrix(2.272131,0,0,2.272131,12.375721,298.15984)"><path
         fill-rule="evenodd"
         clip-rule="evenodd"
         d="m 11.9375,1.25 h 0.125 c 2.0683,-2e-5 3.7053,-3e-5 4.986,0.19129 1.324,0.19778 2.3738,0.61352 3.191,1.52145 0.8069,0.89662 1.1671,2.02948 1.3403,3.46081 C 21.75,7.83014 21.75,9.63498 21.75,11.9478 v 0.1044 c 0,2.3128 0,4.1177 -0.1702,5.5243 -0.1732,1.4313 -0.5334,2.5641 -1.3403,3.4608 -0.8172,0.9079 -1.867,1.3236 -3.191,1.5214 -1.2807,0.1913 -2.9177,0.1913 -4.986,0.1913 h -0.125 c -2.0683,0 -3.70529,0 -4.98603,-0.1913 C 5.62747,22.3609 4.57769,21.9452 3.76055,21.0373 2.95359,20.1406 2.59338,19.0078 2.42018,17.5765 2.24998,16.1699 2.24999,14.365 2.25,12.0522 V 11.9478 C 2.24999,9.63499 2.24998,7.83014 2.42018,6.42355 2.59338,4.99222 2.95359,3.85936 3.76055,2.96274 4.57769,2.05481 5.62747,1.63907 6.95147,1.44129 8.23221,1.24997 9.86922,1.24998 11.9375,1.25 Z M 7.17309,2.92483 C 6.04626,3.09316 5.37637,3.40965 4.87549,3.96619 4.36443,4.53404 4.06563,5.31193 3.90932,6.60374 3.7513,7.90972 3.75,9.62385 3.75,12 c 0,2.3762 0.0013,4.0903 0.15932,5.3963 0.15631,1.2918 0.45511,2.0697 0.96617,2.6375 0.50088,0.5565 1.17077,0.873 2.2976,1.0414 C 8.33029,21.248 9.8552,21.25 12,21.25 c 2.1448,0 3.6697,-0.002 4.8269,-0.1748 1.1268,-0.1684 1.7967,-0.4849 2.2976,-1.0414 0.5111,-0.5678 0.8099,-1.3457 0.9662,-2.6375 C 20.2487,16.0903 20.25,14.3762 20.25,12 20.25,9.62385 20.2487,7.90972 20.0907,6.60374 19.9344,5.31193 19.6356,4.53404 19.1245,3.96619 18.6236,3.40965 17.9537,3.09316 16.8269,2.92483 15.6697,2.75196 14.1448,2.75 12,2.75 9.8552,2.75 8.33029,2.75196 7.17309,2.92483 Z M 8.91612,5.24994 C 8.9438,5.24997 8.97176,5.25 9,5.25 h 6 c 0.0282,0 0.0562,-3e-5 0.0839,-6e-5 0.3808,-4e-4 0.7093,-7.5e-4 0.9984,0.07673 0.7765,0.20805 1.383,0.81453 1.591,1.59099 0.0775,0.28914 0.0772,0.61767 0.0768,0.99846 C 17.75,7.9438 17.75,7.97176 17.75,8 c 0,0.02824 0,0.0562 10e-5,0.08389 4e-4,0.38079 7e-4,0.70931 -0.0768,0.99845 -0.208,0.77646 -0.8145,1.38296 -1.591,1.59096 -0.2891,0.0775 -0.6176,0.0772 -0.9984,0.0768 C 15.0562,10.75 15.0282,10.75 15,10.75 H 9 c -0.02824,0 -0.0562,0 -0.08388,10e-5 -0.38079,4e-4 -0.70932,7e-4 -0.99846,-0.0768 C 7.1412,10.4653 6.53472,9.8588 6.32667,9.08234 6.24919,8.7932 6.24954,8.46468 6.24994,8.08389 6.24997,8.0562 6.25,8.02824 6.25,8 6.25,7.97176 6.24997,7.9438 6.24994,7.91612 6.24954,7.53533 6.24919,7.2068 6.32667,6.91766 6.53472,6.1412 7.1412,5.53472 7.91766,5.32667 8.2068,5.24919 8.53533,5.24954 8.91612,5.24994 Z M 9,6.75 C 8.48673,6.75 8.37722,6.75644 8.30589,6.77556 8.04707,6.84491 7.84491,7.04707 7.77556,7.30589 7.75644,7.37722 7.75,7.48673 7.75,8 7.75,8.51327 7.75644,8.62278 7.77556,8.69412 7.84491,8.95293 8.04707,9.1551 8.30589,9.22445 8.37722,9.24356 8.48673,9.25 9,9.25 h 6 c 0.5133,0 0.6228,-0.00644 0.6941,-0.02555 C 15.9529,9.1551 16.1551,8.95293 16.2244,8.69412 16.2436,8.62278 16.25,8.51327 16.25,8 16.25,7.48673 16.2436,7.37722 16.2244,7.30589 16.1551,7.04707 15.9529,6.84491 15.6941,6.77556 15.6228,6.75644 15.5133,6.75 15,6.75 Z m -0.5,6.5 c 0.41421,0 0.75,0.3358 0.75,0.75 v 0.75 H 10 c 0.4142,0 0.75,0.3358 0.75,0.75 0,0.4142 -0.3358,0.75 -0.75,0.75 H 9.25 V 17 c 0,0.4142 -0.33579,0.75 -0.75,0.75 C 8.08579,17.75 7.75,17.4142 7.75,17 V 16.25 H 7 C 6.58579,16.25 6.25,15.9142 6.25,15.5 6.25,15.0858 6.58579,14.75 7,14.75 H 7.75 V 14 c 0,-0.4142 0.33579,-0.75 0.75,-0.75 z"
         fill="#000000"
         id="path133"
         style="fill:#3ecb2b" /><path
         d="m 16.3333,13.8333 c 0,0.4603 -0.3731,0.8334 -0.8333,0.8334 -0.4602,0 -0.8333,-0.3731 -0.8333,-0.8334 C 14.6667,13.3731 15.0398,13 15.5,13 c 0.4602,0 0.8333,0.3731 0.8333,0.8333 z"
         fill="#000000"
         id="path134"
         style="fill:#3ecb2b" /><path
         d="M 16.3333,17.1667 C 16.3333,17.6269 15.9602,18 15.5,18 c -0.4602,0 -0.8333,-0.3731 -0.8333,-0.8333 0,-0.4603 0.3731,-0.8334 0.8333,-0.8334 0.4602,0 0.8333,0.3731 0.8333,0.8334 z"
         fill="#000000"
         id="path135"
         style="fill:#3ecb2b" /><path
         d="m 14.6667,15.5 c 0,0.4602 -0.3731,0.8333 -0.8334,0.8333 C 13.3731,16.3333 13,15.9602 13,15.5 c 0,-0.4602 0.3731,-0.8333 0.8333,-0.8333 0.4603,0 0.8334,0.3731 0.8334,0.8333 z"
         fill="#000000"
         id="path136"
         style="fill:#3ecb2b" /><path
         d="m 18,15.5 c 0,0.4602 -0.3731,0.8333 -0.8333,0.8333 -0.4603,0 -0.8334,-0.3731 -0.8334,-0.8333 0,-0.4602 0.3731,-0.8333 0.8334,-0.8333 0.4602,0 0.8333,0.3731 0.8333,0.8333 z"
         fill="#000000"
         id="path137"
         style="fill:#3ecb2b" /></g><path
       style="opacity:0.998818;fill:none;fill-opacity:1;stroke:#bc2fe3;stroke-width:2;stroke-linejoin:round;stroke-dasharray:none;paint-order:normal;filter:url(#filter41)"
       d="M 53,354 57.814736,352.30529 59,354"
       id="path120"
       sodipodi:nodetypes="ccc" /><path
       style="opacity:0.998818;fill:none;fill-opacity:1;stroke:#f36f1c;stroke-width:2;stroke-linejoin:round;stroke-dasharray:none;paint-order:normal;filter:url(#filter39)"
       d="m 45.266297,353.6582 c 0,0 4.532043,-2.23366 10.733703,-1.6582 6.299855,1.59953 3.807759,-3.64215 5.125,1.7832"
       id="path117"
       sodipodi:nodetypes="csc" /><g
       style="fill:#7a7c8a"
       id="g149"
       transform="matrix(2.272131,0,0,2.272131,12.59242,373.15984)"><path
         fill-rule="evenodd"
         clip-rule="evenodd"
         d="m 11.9375,1.25 h 0.125 c 2.0683,-2e-5 3.7053,-3e-5 4.986,0.19129 1.324,0.19778 2.3738,0.61352 3.191,1.52145 0.8069,0.89662 1.1671,2.02948 1.3403,3.46081 C 21.75,7.83014 21.75,9.63498 21.75,11.9478 v 0.1044 c 0,2.3128 0,4.1177 -0.1702,5.5243 -0.1732,1.4313 -0.5334,2.5641 -1.3403,3.4608 -0.8172,0.9079 -1.867,1.3236 -3.191,1.5214 -1.2807,0.1913 -2.9177,0.1913 -4.986,0.1913 h -0.125 c -2.0683,0 -3.70529,0 -4.98603,-0.1913 C 5.62747,22.3609 4.57769,21.9452 3.76055,21.0373 2.95359,20.1406 2.59338,19.0078 2.42018,17.5765 2.24998,16.1699 2.24999,14.365 2.25,12.0522 V 11.9478 C 2.24999,9.63499 2.24998,7.83014 2.42018,6.42355 2.59338,4.99222 2.95359,3.85936 3.76055,2.96274 4.57769,2.05481 5.62747,1.63907 6.95147,1.44129 8.23221,1.24997 9.86922,1.24998 11.9375,1.25 Z M 7.17309,2.92483 C 6.04626,3.09316 5.37637,3.40965 4.87549,3.96619 4.36443,4.53404 4.06563,5.31193 3.90932,6.60374 3.7513,7.90972 3.75,9.62385 3.75,12 c 0,2.3762 0.0013,4.0903 0.15932,5.3963 0.15631,1.2918 0.45511,2.0697 0.96617,2.6375 0.50088,0.5565 1.17077,0.873 2.2976,1.0414 C 8.33029,21.248 9.8552,21.25 12,21.25 c 2.1448,0 3.6697,-0.002 4.8269,-0.1748 1.1268,-0.1684 1.7967,-0.4849 2.2976,-1.0414 0.5111,-0.5678 0.8099,-1.3457 0.9662,-2.6375 C 20.2487,16.0903 20.25,14.3762 20.25,12 20.25,9.62385 20.2487,7.90972 20.0907,6.60374 19.9344,5.31193 19.6356,4.53404 19.1245,3.96619 18.6236,3.40965 17.9537,3.09316 16.8269,2.92483 15.6697,2.75196 14.1448,2.75 12,2.75 9.8552,2.75 8.33029,2.75196 7.17309,2.92483 Z M 8.91612,5.24994 C 8.9438,5.24997 8.97176,5.25 9,5.25 h 6 c 0.0282,0 0.0562,-3e-5 0.0839,-6e-5 0.3808,-4e-4 0.7093,-7.5e-4 0.9984,0.07673 0.7765,0.20805 1.383,0.81453 1.591,1.59099 0.0775,0.28914 0.0772,0.61767 0.0768,0.99846 C 17.75,7.9438 17.75,7.97176 17.75,8 c 0,0.02824 0,0.0562 10e-5,0.08389 4e-4,0.38079 7e-4,0.70931 -0.0768,0.99845 -0.208,0.77646 -0.8145,1.38296 -1.591,1.59096 -0.2891,0.0775 -0.6176,0.0772 -0.9984,0.0768 C 15.0562,10.75 15.0282,10.75 15,10.75 H 9 c -0.02824,0 -0.0562,0 -0.08388,10e-5 -0.38079,4e-4 -0.70932,7e-4 -0.99846,-0.0768 C 7.1412,10.4653 6.53472,9.8588 6.32667,9.08234 6.24919,8.7932 6.24954,8.46468 6.24994,8.08389 6.24997,8.0562 6.25,8.02824 6.25,8 6.25,7.97176 6.24997,7.9438 6.24994,7.91612 6.24954,7.53533 6.24919,7.2068 6.32667,6.91766 6.53472,6.1412 7.1412,5.53472 7.91766,5.32667 8.2068,5.24919 8.53533,5.24954 8.91612,5.24994 Z M 9,6.75 C 8.48673,6.75 8.37722,6.75644 8.30589,6.77556 8.04707,6.84491 7.84491,7.04707 7.77556,7.30589 7.75644,7.37722 7.75,7.48673 7.75,8 7.75,8.51327 7.75644,8.62278 7.77556,8.69412 7.84491,8.95293 8.04707,9.1551 8.30589,9.22445 8.37722,9.24356 8.48673,9.25 9,9.25 h 6 c 0.5133,0 0.6228,-0.00644 0.6941,-0.02555 C 15.9529,9.1551 16.1551,8.95293 16.2244,8.69412 16.2436,8.62278 16.25,8.51327 16.25,8 16.25,7.48673 16.2436,7.37722 16.2244,7.30589 16.1551,7.04707 15.9529,6.84491 15.6941,6.77556 15.6228,6.75644 15.5133,6.75 15,6.75 Z m -0.5,6.5 c 0.41421,0 0.75,0.3358 0.75,0.75 v 0.75 H 10 c 0.4142,0 0.75,0.3358 0.75,0.75 0,0.4142 -0.3358,0.75 -0.75,0.75 H 9.25 V 17 c 0,0.4142 -0.33579,0.75 -0.75,0.75 C 8.08579,17.75 7.75,17.4142 7.75,17 V 16.25 H 7 C 6.58579,16.25 6.25,15.9142 6.25,15.5 6.25,15.0858 6.58579,14.75 7,14.75 H 7.75 V 14 c 0,-0.4142 0.33579,-0.75 0.75,-0.75 z"
         fill="#000000"
         id="path145"
         style="fill:#7a7c8a" /><path
         d="m 16.3333,13.8333 c 0,0.4603 -0.3731,0.8334 -0.8333,0.8334 -0.4602,0 -0.8333,-0.3731 -0.8333,-0.8334 C 14.6667,13.3731 15.0398,13 15.5,13 c 0.4602,0 0.8333,0.3731 0.8333,0.8333 z"
         fill="#000000"
         id="path146"
         style="fill:#7a7c8a" /><path
         d="M 16.3333,17.1667 C 16.3333,17.6269 15.9602,18 15.5,18 c -0.4602,0 -0.8333,-0.3731 -0.8333,-0.8333 0,-0.4603 0.3731,-0.8334 0.8333,-0.8334 0.4602,0 0.8333,0.3731 0.8333,0.8334 z"
         fill="#000000"
         id="path147"
         style="fill:#7a7c8a" /><path
         d="m 14.6667,15.5 c 0,0.4602 -0.3731,0.8333 -0.8334,0.8333 C 13.3731,16.3333 13,15.9602 13,15.5 c 0,-0.4602 0.3731,-0.8333 0.8333,-0.8333 0.4603,0 0.8334,0.3731 0.8334,0.8333 z"
         fill="#000000"
         id="path148"
         style="fill:#7a7c8a" /><path
         d="m 18,15.5 c 0,0.4602 -0.3731,0.8333 -0.8333,0.8333 -0.4603,0 -0.8334,-0.3731 -0.8334,-0.8333 0,-0.4602 0.3731,-0.8333 0.8334,-0.8333 0.4602,0 0.8333,0.3731 0.8333,0.8333 z"
         fill="#000000"
         id="path149"
         style="fill:#7a7c8a" /></g><rect
       style="opacity:0.998818;fill:none;fill-opacity:1;stroke:#7a7c8a;stroke-width:2;stroke-linejoin:round;stroke-dasharray:none;paint-order:normal"
       id="rect150"
       width="64"
       height="57.93087"
       x="8.25"
       y="370.75"
       ry="0" /></g></svg>
