<?xml version="1.0" encoding="UTF-8" standalone="no"?>
<!-- Created with Inkscape (http://www.inkscape.org/) -->

<svg
   width="1024"
   height="768"
   viewBox="0 0 1024 768"
   version="1.1"
   id="svg1"
   inkscape:version="1.2.2 (732a01da63, 2022-12-09)"
   sodipodi:docname="min.svg"
   xml:space="preserve"
   inkscape:export-filename="clown_neon.png"
   inkscape:export-xdpi="96"
   inkscape:export-ydpi="96"
   xmlns:inkscape="http://www.inkscape.org/namespaces/inkscape"
   xmlns:sodipodi="http://sodipodi.sourceforge.net/DTD/sodipodi-0.dtd"
   xmlns="http://www.w3.org/2000/svg"
   xmlns:svg="http://www.w3.org/2000/svg"><sodipodi:namedview
     id="namedview1"
     pagecolor="#505050"
     bordercolor="#eeeeee"
     borderopacity="1"
     inkscape:showpageshadow="0"
     inkscape:pageopacity="0"
     inkscape:pagecheckerboard="0"
     inkscape:deskcolor="#505050"
     inkscape:document-units="px"
     showgrid="true"
     inkscape:zoom="1.4142136"
     inkscape:cx="373.35237"
     inkscape:cy="201.17187"
     inkscape:window-width="2105"
     inkscape:window-height="1230"
     inkscape:window-x="1"
     inkscape:window-y="723"
     inkscape:window-maximized="0"
     inkscape:current-layer="svg1"
     showguides="true"><inkscape:grid
       id="grid1"
       units="px"
       originx="0"
       originy="0"
       spacingx="1"
       spacingy="1"
       empcolor="#0073ae"
       empopacity="0.42352941"
       color="#006092"
       opacity="0.14901961"
       empspacing="8"
       enabled="true"
       visible="true" /><sodipodi:guide
       position="152,680"
       orientation="0,-1"
       id="guide41"
       inkscape:locked="false" /><sodipodi:guide
       position="405,589"
       orientation="1,0"
       id="guide27405"
       inkscape:locked="false" /></sodipodi:namedview><defs
     id="defs1"><filter
       style="color-interpolation-filters:sRGB;"
       inkscape:label="Drop Shadow"
       id="filter18297"
       x="-0.20768433"
       y="-0.31152649"
       width="1.4153687"
       height="1.623053"><feFlood
         flood-opacity="1"
         flood-color="rgb(0,0,0)"
         result="flood"
         id="feFlood18287" /><feComposite
         in="flood"
         in2="SourceGraphic"
         operator="in"
         result="composite1"
         id="feComposite18289" /><feGaussianBlur
         in="composite1"
         stdDeviation="6.23053"
         result="blur"
         id="feGaussianBlur18291" /><feOffset
         dx="0"
         dy="0"
         result="offset"
         id="feOffset18293" /><feComposite
         in="SourceGraphic"
         in2="offset"
         operator="over"
         result="composite2"
         id="feComposite18295" /></filter><filter
       style="color-interpolation-filters:sRGB"
       inkscape:label="Drop Shadow"
       id="filter41"
       x="-0.010900877"
       y="-0.20711667"
       width="1.0218018"
       height="1.4142333"><feFlood
         result="flood"
         in="SourceGraphic"
         flood-opacity="1"
         flood-color="rgb(255,152,252)"
         id="feFlood39" /><feGaussianBlur
         result="blur"
         in="SourceGraphic"
         stdDeviation="2.3448888483965016"
         id="feGaussianBlur39" /><feOffset
         result="offset"
         in="blur"
         dx="0.000000"
         dy="0.000000"
         id="feOffset39" /><feComposite
         result="comp1"
         operator="in"
         in="flood"
         in2="offset"
         id="feComposite40" /><feComposite
         result="comp2"
         operator="over"
         in="SourceGraphic"
         in2="comp1"
         id="feComposite41" /></filter><filter
       style="color-interpolation-filters:sRGB"
       inkscape:label="Drop Shadow"
       id="filter78"
       x="-0.013235548"
       y="-0.25147542"
       width="1.0264711"
       height="1.5029508"><feFlood
         result="flood"
         in="SourceGraphic"
         flood-opacity="1.000000"
         flood-color="rgb(255,148,148)"
         id="feFlood77" /><feGaussianBlur
         result="blur"
         in="SourceGraphic"
         stdDeviation="2.936339"
         id="feGaussianBlur77" /><feOffset
         result="offset"
         in="blur"
         dx="0.000000"
         dy="0.000000"
         id="feOffset77" /><feComposite
         result="comp1"
         operator="in"
         in="flood"
         in2="offset"
         id="feComposite77" /><feComposite
         result="comp2"
         operator="over"
         in="SourceGraphic"
         in2="comp1"
         id="feComposite78" /></filter><filter
       style="color-interpolation-filters:sRGB"
       inkscape:label="Drop Shadow"
       id="filter24654"
       x="-2.1116135"
       y="-6.607079"
       width="5.3208508"
       height="14.214158"><feFlood
         result="flood"
         in="SourceGraphic"
         flood-opacity="1"
         flood-color="rgb(255,152,252)"
         id="feFlood24644" /><feGaussianBlur
         result="blur"
         in="SourceGraphic"
         stdDeviation="2.3448888483965016"
         id="feGaussianBlur24646" /><feOffset
         result="offset"
         in="blur"
         dx="0.000000"
         dy="0.000000"
         id="feOffset24648" /><feComposite
         result="comp1"
         operator="in"
         in="flood"
         in2="offset"
         id="feComposite24650" /><feComposite
         result="comp2"
         operator="over"
         in="SourceGraphic"
         in2="comp1"
         id="feComposite24652" /></filter><filter
       style="color-interpolation-filters:sRGB"
       inkscape:label="Drop Shadow"
       id="filter11632"
       x="-0.2125"
       y="-0.2125"
       width="1.425"
       height="1.51875"><feFlood
         flood-opacity="0.6649746192893401"
         flood-color="rgb(98,160,234)"
         result="flood"
         id="feFlood11622" /><feComposite
         in="flood"
         in2="SourceGraphic"
         operator="in"
         result="composite1"
         id="feComposite11624" /><feGaussianBlur
         in="composite1"
         stdDeviation="1"
         result="blur"
         id="feGaussianBlur11626" /><feOffset
         dx="0"
         dy="1.5"
         result="offset"
         id="feOffset11628" /><feComposite
         in="SourceGraphic"
         in2="offset"
         operator="over"
         result="composite2"
         id="feComposite11630" /></filter><filter
       style="color-interpolation-filters:sRGB"
       inkscape:label="Drop Shadow"
       id="filter24672"
       x="-0.21250001"
       y="-0.21250001"
       width="1.425"
       height="1.51875"><feFlood
         flood-opacity="0.6649746192893401"
         flood-color="rgb(98,160,234)"
         result="flood"
         id="feFlood24662" /><feComposite
         in="flood"
         in2="SourceGraphic"
         operator="in"
         result="composite1"
         id="feComposite24664" /><feGaussianBlur
         in="composite1"
         stdDeviation="1"
         result="blur"
         id="feGaussianBlur24666" /><feOffset
         dx="0"
         dy="1.5"
         result="offset"
         id="feOffset24668" /><feComposite
         in="SourceGraphic"
         in2="offset"
         operator="over"
         result="composite2"
         id="feComposite24670" /></filter><filter
       style="color-interpolation-filters:sRGB"
       inkscape:label="Drop Shadow"
       id="filter24684"
       x="-0.21250001"
       y="-0.21250001"
       width="1.425"
       height="1.51875"><feFlood
         flood-opacity="0.6649746192893401"
         flood-color="rgb(98,160,234)"
         result="flood"
         id="feFlood24674" /><feComposite
         in="flood"
         in2="SourceGraphic"
         operator="in"
         result="composite1"
         id="feComposite24676" /><feGaussianBlur
         in="composite1"
         stdDeviation="1"
         result="blur"
         id="feGaussianBlur24678" /><feOffset
         dx="0"
         dy="1.5"
         result="offset"
         id="feOffset24680" /><feComposite
         in="SourceGraphic"
         in2="offset"
         operator="over"
         result="composite2"
         id="feComposite24682" /></filter><filter
       style="color-interpolation-filters:sRGB"
       inkscape:label="Drop Shadow"
       id="filter24696"
       x="-0.21250001"
       y="-0.21250001"
       width="1.425"
       height="1.51875"><feFlood
         flood-opacity="0.6649746192893401"
         flood-color="rgb(98,160,234)"
         result="flood"
         id="feFlood24686" /><feComposite
         in="flood"
         in2="SourceGraphic"
         operator="in"
         result="composite1"
         id="feComposite24688" /><feGaussianBlur
         in="composite1"
         stdDeviation="1"
         result="blur"
         id="feGaussianBlur24690" /><feOffset
         dx="0"
         dy="1.5"
         result="offset"
         id="feOffset24692" /><feComposite
         in="SourceGraphic"
         in2="offset"
         operator="over"
         result="composite2"
         id="feComposite24694" /></filter><filter
       style="color-interpolation-filters:sRGB"
       inkscape:label="Drop Shadow"
       id="filter11858"
       x="-0.013636364"
       y="-0.1"
       width="1.0272727"
       height="1.2625"><feFlood
         flood-opacity="0.6649746192893401"
         flood-color="rgb(248,228,92)"
         result="flood"
         id="feFlood11848" /><feComposite
         in="flood"
         in2="SourceGraphic"
         operator="in"
         result="composite1"
         id="feComposite11850" /><feGaussianBlur
         in="composite1"
         stdDeviation="1"
         result="blur"
         id="feGaussianBlur11852" /><feOffset
         dx="0"
         dy="1.5"
         result="offset"
         id="feOffset11854" /><feComposite
         in="SourceGraphic"
         in2="offset"
         operator="over"
         result="composite2"
         id="feComposite11856" /></filter><filter
       style="color-interpolation-filters:sRGB"
       inkscape:label="Drop Shadow"
       id="filter12710"
       x="-0.013636364"
       y="-0.1"
       width="1.0272727"
       height="1.2625"><feFlood
         flood-opacity="0.6649746192893401"
         flood-color="rgb(255,190,111)"
         result="flood"
         id="feFlood12700" /><feComposite
         in="flood"
         in2="SourceGraphic"
         operator="in"
         result="composite1"
         id="feComposite12702" /><feGaussianBlur
         in="composite1"
         stdDeviation="1"
         result="blur"
         id="feGaussianBlur12704" /><feOffset
         dx="0"
         dy="1.5"
         result="offset"
         id="feOffset12706" /><feComposite
         in="SourceGraphic"
         in2="offset"
         operator="over"
         result="composite2"
         id="feComposite12708" /></filter><filter
       style="color-interpolation-filters:sRGB"
       inkscape:label="Drop Shadow"
       id="filter24720"
       x="-0.016346155"
       y="-0.14166667"
       width="1.0326923"
       height="1.3458333"><feFlood
         flood-opacity="0.6649746192893401"
         flood-color="rgb(248,228,92)"
         result="flood"
         id="feFlood24710" /><feComposite
         in="flood"
         in2="SourceGraphic"
         operator="in"
         result="composite1"
         id="feComposite24712" /><feGaussianBlur
         in="composite1"
         stdDeviation="1"
         result="blur"
         id="feGaussianBlur24714" /><feOffset
         dx="0"
         dy="1.5"
         result="offset"
         id="feOffset24716" /><feComposite
         in="SourceGraphic"
         in2="offset"
         operator="over"
         result="composite2"
         id="feComposite24718" /></filter></defs><rect
     style="fill:#000000;fill-opacity:1;stroke:none;stroke-width:2;stroke-linecap:round;stroke-linejoin:bevel;stroke-opacity:1"
     id="rect19484"
     width="1024"
     height="768"
     x="0"
     y="0"
     ry="8" /><path
     style="fill:#000000;fill-opacity:1;stroke:#414040;stroke-width:2;stroke-linecap:round;stroke-linejoin:bevel;stroke-opacity:1"
     d="M 0,32 H 1024"
     id="path20422" /><path
     style="fill:#414040;fill-opacity:1;stroke:#414040;stroke-width:2;stroke-linecap:round;stroke-linejoin:bevel;stroke-opacity:1"
     d="M 96,32 V 768"
     id="path23868" /><g
     style="fill:#7a7c8a"
     id="g149"
     transform="matrix(2.272131,0,0,2.272131,16.7314,661.15984)"><path
       fill-rule="evenodd"
       clip-rule="evenodd"
       d="m 11.9375,1.25 h 0.125 c 2.0683,-2e-5 3.7053,-3e-5 4.986,0.19129 1.324,0.19778 2.3738,0.61352 3.191,1.52145 0.8069,0.89662 1.1671,2.02948 1.3403,3.46081 C 21.75,7.83014 21.75,9.63498 21.75,11.9478 v 0.1044 c 0,2.3128 0,4.1177 -0.1702,5.5243 -0.1732,1.4313 -0.5334,2.5641 -1.3403,3.4608 -0.8172,0.9079 -1.867,1.3236 -3.191,1.5214 -1.2807,0.1913 -2.9177,0.1913 -4.986,0.1913 h -0.125 c -2.0683,0 -3.70529,0 -4.98603,-0.1913 C 5.62747,22.3609 4.57769,21.9452 3.76055,21.0373 2.95359,20.1406 2.59338,19.0078 2.42018,17.5765 2.24998,16.1699 2.24999,14.365 2.25,12.0522 V 11.9478 C 2.24999,9.63499 2.24998,7.83014 2.42018,6.42355 2.59338,4.99222 2.95359,3.85936 3.76055,2.96274 4.57769,2.05481 5.62747,1.63907 6.95147,1.44129 8.23221,1.24997 9.86922,1.24998 11.9375,1.25 Z M 7.17309,2.92483 C 6.04626,3.09316 5.37637,3.40965 4.87549,3.96619 4.36443,4.53404 4.06563,5.31193 3.90932,6.60374 3.7513,7.90972 3.75,9.62385 3.75,12 c 0,2.3762 0.0013,4.0903 0.15932,5.3963 0.15631,1.2918 0.45511,2.0697 0.96617,2.6375 0.50088,0.5565 1.17077,0.873 2.2976,1.0414 C 8.33029,21.248 9.8552,21.25 12,21.25 c 2.1448,0 3.6697,-0.002 4.8269,-0.1748 1.1268,-0.1684 1.7967,-0.4849 2.2976,-1.0414 0.5111,-0.5678 0.8099,-1.3457 0.9662,-2.6375 C 20.2487,16.0903 20.25,14.3762 20.25,12 20.25,9.62385 20.2487,7.90972 20.0907,6.60374 19.9344,5.31193 19.6356,4.53404 19.1245,3.96619 18.6236,3.40965 17.9537,3.09316 16.8269,2.92483 15.6697,2.75196 14.1448,2.75 12,2.75 9.8552,2.75 8.33029,2.75196 7.17309,2.92483 Z M 8.91612,5.24994 C 8.9438,5.24997 8.97176,5.25 9,5.25 h 6 c 0.0282,0 0.0562,-3e-5 0.0839,-6e-5 0.3808,-4e-4 0.7093,-7.5e-4 0.9984,0.07673 0.7765,0.20805 1.383,0.81453 1.591,1.59099 0.0775,0.28914 0.0772,0.61767 0.0768,0.99846 C 17.75,7.9438 17.75,7.97176 17.75,8 c 0,0.02824 0,0.0562 10e-5,0.08389 4e-4,0.38079 7e-4,0.70931 -0.0768,0.99845 -0.208,0.77646 -0.8145,1.38296 -1.591,1.59096 -0.2891,0.0775 -0.6176,0.0772 -0.9984,0.0768 C 15.0562,10.75 15.0282,10.75 15,10.75 H 9 c -0.02824,0 -0.0562,0 -0.08388,10e-5 -0.38079,4e-4 -0.70932,7e-4 -0.99846,-0.0768 C 7.1412,10.4653 6.53472,9.8588 6.32667,9.08234 6.24919,8.7932 6.24954,8.46468 6.24994,8.08389 6.24997,8.0562 6.25,8.02824 6.25,8 6.25,7.97176 6.24997,7.9438 6.24994,7.91612 6.24954,7.53533 6.24919,7.2068 6.32667,6.91766 6.53472,6.1412 7.1412,5.53472 7.91766,5.32667 8.2068,5.24919 8.53533,5.24954 8.91612,5.24994 Z M 9,6.75 C 8.48673,6.75 8.37722,6.75644 8.30589,6.77556 8.04707,6.84491 7.84491,7.04707 7.77556,7.30589 7.75644,7.37722 7.75,7.48673 7.75,8 7.75,8.51327 7.75644,8.62278 7.77556,8.69412 7.84491,8.95293 8.04707,9.1551 8.30589,9.22445 8.37722,9.24356 8.48673,9.25 9,9.25 h 6 c 0.5133,0 0.6228,-0.00644 0.6941,-0.02555 C 15.9529,9.1551 16.1551,8.95293 16.2244,8.69412 16.2436,8.62278 16.25,8.51327 16.25,8 16.25,7.48673 16.2436,7.37722 16.2244,7.30589 16.1551,7.04707 15.9529,6.84491 15.6941,6.77556 15.6228,6.75644 15.5133,6.75 15,6.75 Z m -0.5,6.5 c 0.41421,0 0.75,0.3358 0.75,0.75 v 0.75 H 10 c 0.4142,0 0.75,0.3358 0.75,0.75 0,0.4142 -0.3358,0.75 -0.75,0.75 H 9.25 V 17 c 0,0.4142 -0.33579,0.75 -0.75,0.75 C 8.08579,17.75 7.75,17.4142 7.75,17 V 16.25 H 7 C 6.58579,16.25 6.25,15.9142 6.25,15.5 6.25,15.0858 6.58579,14.75 7,14.75 H 7.75 V 14 c 0,-0.4142 0.33579,-0.75 0.75,-0.75 z"
       fill="#000000"
       id="path145"
       style="fill:#7a7c8a" /><path
       d="m 16.3333,13.8333 c 0,0.4603 -0.3731,0.8334 -0.8333,0.8334 -0.4602,0 -0.8333,-0.3731 -0.8333,-0.8334 C 14.6667,13.3731 15.0398,13 15.5,13 c 0.4602,0 0.8333,0.3731 0.8333,0.8333 z"
       fill="#000000"
       id="path146"
       style="fill:#7a7c8a" /><path
       d="M 16.3333,17.1667 C 16.3333,17.6269 15.9602,18 15.5,18 c -0.4602,0 -0.8333,-0.3731 -0.8333,-0.8333 0,-0.4603 0.3731,-0.8334 0.8333,-0.8334 0.4602,0 0.8333,0.3731 0.8333,0.8334 z"
       fill="#000000"
       id="path147"
       style="fill:#7a7c8a" /><path
       d="m 14.6667,15.5 c 0,0.4602 -0.3731,0.8333 -0.8334,0.8333 C 13.3731,16.3333 13,15.9602 13,15.5 c 0,-0.4602 0.3731,-0.8333 0.8333,-0.8333 0.4603,0 0.8334,0.3731 0.8334,0.8333 z"
       fill="#000000"
       id="path148"
       style="fill:#7a7c8a" /><path
       d="m 18,15.5 c 0,0.4602 -0.3731,0.8333 -0.8333,0.8333 -0.4603,0 -0.8334,-0.3731 -0.8334,-0.8333 0,-0.4602 0.3731,-0.8333 0.8334,-0.8333 0.4602,0 0.8333,0.3731 0.8333,0.8333 z"
       fill="#000000"
       id="path149"
       style="fill:#7a7c8a" /></g><rect
     style="fill:#000000;fill-opacity:1;stroke:#000000;stroke-width:2;stroke-linecap:round;stroke-linejoin:bevel;stroke-opacity:1"
     id="rect26408"
     width="600"
     height="24"
     x="403"
     y="100"
     ry="12" /><rect
     style="opacity:0.998818;fill:none;fill-opacity:1;stroke:#7a7c8a;stroke-width:2;stroke-linejoin:round;stroke-dasharray:none;paint-order:normal"
     id="rect150"
     width="64"
     height="57.93087"
     x="12.38898"
     y="658.75"
     ry="0" /><rect
     style="fill:#000000;fill-opacity:1;stroke:#6f6f6e;stroke-width:2;stroke-linecap:round;stroke-linejoin:bevel;stroke-opacity:1"
     id="rect25466"
     width="176"
     height="24"
     x="168"
     y="328"
     ry="12" /><rect
     style="fill:#000000;fill-opacity:1;stroke:#a9a9a9;stroke-width:2;stroke-linecap:round;stroke-linejoin:bevel;stroke-opacity:1"
     id="rect11620"
     width="192"
     height="24"
     x="128"
     y="296"
     ry="12" /><rect
     style="fill:#000000;fill-opacity:1;stroke:#6f6f6e;stroke-width:2;stroke-linecap:round;stroke-linejoin:bevel;stroke-opacity:1"
     id="rect25463"
     width="176"
     height="24"
     x="168"
     y="360"
     ry="12" /><text
     xml:space="preserve"
     style="font-style:normal;font-variant:normal;font-weight:bold;font-stretch:normal;font-size:16px;line-height:0.75;font-family:Saira;-inkscape-font-specification:'Saira Bold';text-align:start;text-anchor:start;fill:#ffffff;fill-opacity:1;stroke:none;stroke-width:2;stroke-linecap:round;stroke-linejoin:bevel;stroke-opacity:1"
     x="136"
     y="313"
     id="text11688"><tspan
       sodipodi:role="line"
       id="tspan11686"
       x="136"
       y="313"
       style="font-style:normal;font-variant:normal;font-weight:bold;font-stretch:normal;font-size:16px;font-family:Saira;-inkscape-font-specification:'Saira Bold'">+ Playlist 1</tspan></text><text
     xml:space="preserve"
     style="font-style:normal;font-variant:normal;font-weight:bold;font-stretch:normal;font-size:16px;line-height:0.75;font-family:Saira;-inkscape-font-specification:'Saira Bold';text-align:start;text-anchor:start;fill:#ffffff;fill-opacity:1;stroke:none;stroke-width:2;stroke-linecap:round;stroke-linejoin:bevel;stroke-opacity:1"
     x="180"
     y="345"
     id="text11846"><tspan
       sodipodi:role="line"
       id="tspan11844"
       x="180"
       y="345"
       style="font-style:normal;font-variant:normal;font-weight:bold;font-stretch:normal;font-size:16px;font-family:Saira;-inkscape-font-specification:'Saira Bold'">Item 1</tspan></text><text
     xml:space="preserve"
     style="font-style:normal;font-variant:normal;font-weight:bold;font-stretch:normal;font-size:16px;line-height:0.75;font-family:Saira;-inkscape-font-specification:'Saira Bold';text-align:start;text-anchor:start;fill:#ffffff;fill-opacity:1;stroke:none;stroke-width:2;stroke-linecap:round;stroke-linejoin:bevel;stroke-opacity:1"
     x="181"
     y="378"
     id="text12590"><tspan
       sodipodi:role="line"
       id="tspan12588"
       x="181"
       y="378"
       style="font-style:normal;font-variant:normal;font-weight:bold;font-stretch:normal;font-size:16px;font-family:Saira;-inkscape-font-specification:'Saira Bold'">Item 2</tspan></text><rect
     style="fill:#ffffff;fill-opacity:1;stroke:#ffffff;stroke-width:2;stroke-linecap:round;stroke-linejoin:bevel;stroke-opacity:1"
     id="rect12694"
     width="176"
     height="24"
     x="168"
     y="392"
     ry="12" /><text
     xml:space="preserve"
     style="font-style:normal;font-variant:normal;font-weight:bold;font-stretch:normal;font-size:16px;line-height:0.75;font-family:Saira;-inkscape-font-specification:'Saira Bold';text-align:start;text-anchor:start;fill:#000000;fill-opacity:1;stroke:none;stroke-width:2;stroke-linecap:round;stroke-linejoin:bevel;stroke-opacity:1"
     x="181"
     y="409"
     id="text12698"><tspan
       sodipodi:role="line"
       id="tspan12696"
       x="181"
       y="409"
       style="font-style:normal;font-variant:normal;font-weight:bold;font-stretch:normal;font-size:16px;font-family:Saira;-inkscape-font-specification:'Saira Bold';fill:#000000;fill-opacity:1">Item 3 Selected</tspan></text><rect
     style="fill:#000000;fill-opacity:1;stroke:#a9a9a9;stroke-width:2;stroke-linecap:round;stroke-linejoin:bevel;stroke-opacity:1"
     id="rect13438"
     width="184"
     height="24"
     x="128"
     y="440"
     ry="11.46967" /><text
     xml:space="preserve"
     style="font-style:normal;font-variant:normal;font-weight:bold;font-stretch:normal;font-size:16px;line-height:0.75;font-family:Saira;-inkscape-font-specification:'Saira Bold';text-align:start;text-anchor:start;fill:#ffffff;fill-opacity:1;stroke:none;stroke-width:2;stroke-linecap:round;stroke-linejoin:bevel;stroke-opacity:1"
     x="136"
     y="457"
     id="text13442"><tspan
       sodipodi:role="line"
       id="tspan13440"
       x="136"
       y="457"
       style="font-style:normal;font-variant:normal;font-weight:bold;font-stretch:normal;font-size:16px;font-family:Saira;-inkscape-font-specification:'Saira Bold';stroke:none;stroke-opacity:1">- Playlist 2</tspan></text><rect
     style="fill:#000000;fill-opacity:1;stroke:#a9a9a9;stroke-width:2;stroke-linecap:round;stroke-linejoin:bevel;stroke-opacity:1"
     id="rect15531"
     width="16"
     height="16"
     x="408"
     y="104"
     ry="8" /><text
     xml:space="preserve"
     style="font-style:normal;font-variant:normal;font-weight:bold;font-stretch:normal;font-size:16px;line-height:0.75;font-family:Saira;-inkscape-font-specification:'Saira Bold';text-align:start;text-anchor:start;fill:#274fa2;fill-opacity:1;stroke:#299be2;stroke-width:2;stroke-linecap:round;stroke-linejoin:bevel;stroke-opacity:1"
     x="435"
     y="116"
     id="text15797"><tspan
       sodipodi:role="line"
       id="tspan15795"
       x="435"
       y="116"
       style="font-style:normal;font-variant:normal;font-weight:bold;font-stretch:normal;font-family:Saira;-inkscape-font-specification:'Saira Bold';fill:#fdfdff;fill-opacity:1;stroke:none">Some song or whatever</tspan></text><rect
     style="fill:#000000;fill-opacity:1;stroke:#000000;stroke-width:2;stroke-linecap:round;stroke-linejoin:bevel;stroke-opacity:1"
     id="rect26411"
     width="600"
     height="24"
     x="403"
     y="132"
     ry="12" /><rect
     style="fill:#000000;fill-opacity:1;stroke:#a9a9a9;stroke-width:2;stroke-linecap:round;stroke-linejoin:bevel;stroke-opacity:1"
     id="rect26413"
     width="16"
     height="16"
     x="408"
     y="136"
     ry="8" /><text
     xml:space="preserve"
     style="font-style:normal;font-variant:normal;font-weight:bold;font-stretch:normal;font-size:16px;line-height:0.75;font-family:Saira;-inkscape-font-specification:'Saira Bold';text-align:start;text-anchor:start;fill:#274fa2;fill-opacity:1;stroke:#299be2;stroke-width:2;stroke-linecap:round;stroke-linejoin:bevel;stroke-opacity:1"
     x="435"
     y="148"
     id="text26417"><tspan
       sodipodi:role="line"
       id="tspan26415"
       x="435"
       y="148"
       style="font-style:normal;font-variant:normal;font-weight:bold;font-stretch:normal;font-family:Saira;-inkscape-font-specification:'Saira Bold';fill:#fdfdff;fill-opacity:1;stroke:none">Some song or whatever</tspan></text><rect
     style="fill:#000000;fill-opacity:1;stroke:#a9a9a9;stroke-width:2;stroke-linecap:round;stroke-linejoin:bevel;stroke-opacity:1"
     id="rect26521"
     width="600"
     height="24"
     x="403"
     y="164"
     ry="12" /><rect
     style="fill:#000000;fill-opacity:1;stroke:#a9a9a9;stroke-width:2;stroke-linecap:round;stroke-linejoin:bevel;stroke-opacity:1"
     id="rect26523"
     width="16"
     height="16"
     x="408"
     y="168"
     ry="8" /><text
     xml:space="preserve"
     style="font-style:normal;font-variant:normal;font-weight:bold;font-stretch:normal;font-size:16px;line-height:0.75;font-family:Saira;-inkscape-font-specification:'Saira Bold';text-align:start;text-anchor:start;fill:#274fa2;fill-opacity:1;stroke:#299be2;stroke-width:2;stroke-linecap:round;stroke-linejoin:bevel;stroke-opacity:1"
     x="435"
     y="180"
     id="text26527"><tspan
       sodipodi:role="line"
       id="tspan26525"
       x="435"
       y="180"
       style="font-style:normal;font-variant:normal;font-weight:bold;font-stretch:normal;font-family:Saira;-inkscape-font-specification:'Saira Bold';fill:#fdfdff;fill-opacity:1;stroke:none">Some moused-over song or whatever</tspan></text><rect
     style="fill:#ffffff;fill-opacity:1;stroke:none;stroke-width:2;stroke-linecap:round;stroke-linejoin:bevel;stroke-opacity:1"
     id="rect26529"
     width="600"
     height="24"
     x="403"
     y="196"
     ry="12" /><rect
     style="fill:#000000;fill-opacity:1;stroke:#ffffff;stroke-width:2;stroke-linecap:round;stroke-linejoin:bevel;stroke-opacity:1"
     id="rect26531"
     width="22"
     height="22"
     x="404"
     y="197"
     ry="11" /><text
     xml:space="preserve"
     style="font-style:normal;font-variant:normal;font-weight:bold;font-stretch:normal;font-size:16px;line-height:0.75;font-family:Saira;-inkscape-font-specification:'Saira Bold';text-align:start;text-anchor:start;fill:#000000;fill-opacity:1;stroke:#299be2;stroke-width:2;stroke-linecap:round;stroke-linejoin:bevel;stroke-opacity:1"
     x="435"
     y="212"
     id="text26535"><tspan
       sodipodi:role="line"
       id="tspan26533"
       x="435"
       y="212"
       style="font-style:normal;font-variant:normal;font-weight:bold;font-stretch:normal;font-family:Saira;-inkscape-font-specification:'Saira Bold';fill:#000000;fill-opacity:1;stroke:none">Some highlighted song or whatever</tspan></text><rect
     style="fill:#000000;fill-opacity:1;stroke:#000000;stroke-width:2;stroke-linecap:round;stroke-linejoin:bevel;stroke-opacity:1"
     id="rect26537"
     width="600"
     height="24"
     x="403"
     y="228"
     ry="12" /><rect
     style="fill:#000000;fill-opacity:1;stroke:#a9a9a9;stroke-width:2;stroke-linecap:round;stroke-linejoin:bevel;stroke-opacity:1"
     id="rect26539"
     width="16"
     height="16"
     x="408"
     y="232"
     ry="8" /><text
     xml:space="preserve"
     style="font-style:normal;font-variant:normal;font-weight:bold;font-stretch:normal;font-size:16px;line-height:0.75;font-family:Saira;-inkscape-font-specification:'Saira Bold';text-align:start;text-anchor:start;fill:#274fa2;fill-opacity:1;stroke:#299be2;stroke-width:2;stroke-linecap:round;stroke-linejoin:bevel;stroke-opacity:1"
     x="435"
     y="244"
     id="text26543"><tspan
       sodipodi:role="line"
       id="tspan26541"
       x="435"
       y="244"
       style="font-style:normal;font-variant:normal;font-weight:bold;font-stretch:normal;font-family:Saira;-inkscape-font-specification:'Saira Bold';fill:#fdfdff;fill-opacity:1;stroke:none">Some song or whatever</tspan></text><path
     style="fill:#ffffff;fill-opacity:1;stroke:#ffffff;stroke-width:2;stroke-linecap:round;stroke-linejoin:bevel;stroke-opacity:1"
     d="m 408,208 5,5 7,-13 -6,17 z"
     id="path27016"
     sodipodi:nodetypes="ccccc" /><rect
     style="fill:#000000;fill-opacity:1;stroke:#a9a9a9;stroke-width:2;stroke-linecap:round;stroke-linejoin:bevel;stroke-opacity:1"
     id="rect27577"
     width="88"
     height="32"
     x="408"
     y="56"
     ry="16" /><rect
     style="fill:#000000;fill-opacity:1;stroke:#a9a9a9;stroke-width:2;stroke-linecap:round;stroke-linejoin:bevel;stroke-opacity:1"
     id="rect27735"
     width="88"
     height="32"
     x="504"
     y="56"
     ry="16" /><path
     style="fill:#000000;fill-opacity:1;stroke:#a9a9a9;stroke-width:2;stroke-linecap:round;stroke-linejoin:miter;stroke-opacity:1"
     d="m 576,72 c 0,3 2,8 4,8 2,0 4,-5 4,-8 z"
     id="path27791"
     sodipodi:nodetypes="cccc" /><rect
     style="fill:#000000;fill-opacity:1;stroke:#a9a9a9;stroke-width:2;stroke-linecap:round;stroke-linejoin:bevel;stroke-opacity:1"
     id="rect27845"
     width="32"
     height="32"
     x="968"
     y="56"
     ry="16" /><path
     style="fill:#000000;fill-opacity:1;stroke:#a9a9a9;stroke-width:2;stroke-linecap:round;stroke-linejoin:miter;stroke-opacity:1"
     d="M 960,80 H 840"
     id="path28695" /><g
     style="fill:#7a7c8a"
     id="g28830"
     transform="matrix(7.1146946,0,0,7.1146946,109.25539,42.252278)"><path
       fill-rule="evenodd"
       clip-rule="evenodd"
       d="m 11.9375,1.25 h 0.125 c 2.0683,-2e-5 3.7053,-3e-5 4.986,0.19129 1.324,0.19778 2.3738,0.61352 3.191,1.52145 0.8069,0.89662 1.1671,2.02948 1.3403,3.46081 C 21.75,7.83014 21.75,9.63498 21.75,11.9478 v 0.1044 c 0,2.3128 0,4.1177 -0.1702,5.5243 -0.1732,1.4313 -0.5334,2.5641 -1.3403,3.4608 -0.8172,0.9079 -1.867,1.3236 -3.191,1.5214 -1.2807,0.1913 -2.9177,0.1913 -4.986,0.1913 h -0.125 c -2.0683,0 -3.70529,0 -4.98603,-0.1913 C 5.62747,22.3609 4.57769,21.9452 3.76055,21.0373 2.95359,20.1406 2.59338,19.0078 2.42018,17.5765 2.24998,16.1699 2.24999,14.365 2.25,12.0522 V 11.9478 C 2.24999,9.63499 2.24998,7.83014 2.42018,6.42355 2.59338,4.99222 2.95359,3.85936 3.76055,2.96274 4.57769,2.05481 5.62747,1.63907 6.95147,1.44129 8.23221,1.24997 9.86922,1.24998 11.9375,1.25 Z M 7.17309,2.92483 C 6.04626,3.09316 5.37637,3.40965 4.87549,3.96619 4.36443,4.53404 4.06563,5.31193 3.90932,6.60374 3.7513,7.90972 3.75,9.62385 3.75,12 c 0,2.3762 0.0013,4.0903 0.15932,5.3963 0.15631,1.2918 0.45511,2.0697 0.96617,2.6375 0.50088,0.5565 1.17077,0.873 2.2976,1.0414 C 8.33029,21.248 9.8552,21.25 12,21.25 c 2.1448,0 3.6697,-0.002 4.8269,-0.1748 1.1268,-0.1684 1.7967,-0.4849 2.2976,-1.0414 0.5111,-0.5678 0.8099,-1.3457 0.9662,-2.6375 C 20.2487,16.0903 20.25,14.3762 20.25,12 20.25,9.62385 20.2487,7.90972 20.0907,6.60374 19.9344,5.31193 19.6356,4.53404 19.1245,3.96619 18.6236,3.40965 17.9537,3.09316 16.8269,2.92483 15.6697,2.75196 14.1448,2.75 12,2.75 9.8552,2.75 8.33029,2.75196 7.17309,2.92483 Z M 8.91612,5.24994 C 8.9438,5.24997 8.97176,5.25 9,5.25 h 6 c 0.0282,0 0.0562,-3e-5 0.0839,-6e-5 0.3808,-4e-4 0.7093,-7.5e-4 0.9984,0.07673 0.7765,0.20805 1.383,0.81453 1.591,1.59099 0.0775,0.28914 0.0772,0.61767 0.0768,0.99846 C 17.75,7.9438 17.75,7.97176 17.75,8 c 0,0.02824 0,0.0562 10e-5,0.08389 4e-4,0.38079 7e-4,0.70931 -0.0768,0.99845 -0.208,0.77646 -0.8145,1.38296 -1.591,1.59096 -0.2891,0.0775 -0.6176,0.0772 -0.9984,0.0768 C 15.0562,10.75 15.0282,10.75 15,10.75 H 9 c -0.02824,0 -0.0562,0 -0.08388,10e-5 -0.38079,4e-4 -0.70932,7e-4 -0.99846,-0.0768 C 7.1412,10.4653 6.53472,9.8588 6.32667,9.08234 6.24919,8.7932 6.24954,8.46468 6.24994,8.08389 6.24997,8.0562 6.25,8.02824 6.25,8 6.25,7.97176 6.24997,7.9438 6.24994,7.91612 6.24954,7.53533 6.24919,7.2068 6.32667,6.91766 6.53472,6.1412 7.1412,5.53472 7.91766,5.32667 8.2068,5.24919 8.53533,5.24954 8.91612,5.24994 Z M 9,6.75 C 8.48673,6.75 8.37722,6.75644 8.30589,6.77556 8.04707,6.84491 7.84491,7.04707 7.77556,7.30589 7.75644,7.37722 7.75,7.48673 7.75,8 7.75,8.51327 7.75644,8.62278 7.77556,8.69412 7.84491,8.95293 8.04707,9.1551 8.30589,9.22445 8.37722,9.24356 8.48673,9.25 9,9.25 h 6 c 0.5133,0 0.6228,-0.00644 0.6941,-0.02555 C 15.9529,9.1551 16.1551,8.95293 16.2244,8.69412 16.2436,8.62278 16.25,8.51327 16.25,8 16.25,7.48673 16.2436,7.37722 16.2244,7.30589 16.1551,7.04707 15.9529,6.84491 15.6941,6.77556 15.6228,6.75644 15.5133,6.75 15,6.75 Z m -0.5,6.5 c 0.41421,0 0.75,0.3358 0.75,0.75 v 0.75 H 10 c 0.4142,0 0.75,0.3358 0.75,0.75 0,0.4142 -0.3358,0.75 -0.75,0.75 H 9.25 V 17 c 0,0.4142 -0.33579,0.75 -0.75,0.75 C 8.08579,17.75 7.75,17.4142 7.75,17 V 16.25 H 7 C 6.58579,16.25 6.25,15.9142 6.25,15.5 6.25,15.0858 6.58579,14.75 7,14.75 H 7.75 V 14 c 0,-0.4142 0.33579,-0.75 0.75,-0.75 z"
       fill="#000000"
       id="path28820"
       style="fill:#7a7c8a" /><path
       d="m 16.3333,13.8333 c 0,0.4603 -0.3731,0.8334 -0.8333,0.8334 -0.4602,0 -0.8333,-0.3731 -0.8333,-0.8334 C 14.6667,13.3731 15.0398,13 15.5,13 c 0.4602,0 0.8333,0.3731 0.8333,0.8333 z"
       fill="#000000"
       id="path28822"
       style="fill:#7a7c8a" /><path
       d="M 16.3333,17.1667 C 16.3333,17.6269 15.9602,18 15.5,18 c -0.4602,0 -0.8333,-0.3731 -0.8333,-0.8333 0,-0.4603 0.3731,-0.8334 0.8333,-0.8334 0.4602,0 0.8333,0.3731 0.8333,0.8334 z"
       fill="#000000"
       id="path28824"
       style="fill:#7a7c8a" /><path
       d="m 14.6667,15.5 c 0,0.4602 -0.3731,0.8333 -0.8334,0.8333 C 13.3731,16.3333 13,15.9602 13,15.5 c 0,-0.4602 0.3731,-0.8333 0.8333,-0.8333 0.4603,0 0.8334,0.3731 0.8334,0.8333 z"
       fill="#000000"
       id="path28826"
       style="fill:#7a7c8a" /><path
       d="m 18,15.5 c 0,0.4602 -0.3731,0.8333 -0.8333,0.8333 -0.4603,0 -0.8334,-0.3731 -0.8334,-0.8333 0,-0.4602 0.3731,-0.8333 0.8334,-0.8333 0.4602,0 0.8333,0.3731 0.8333,0.8333 z"
       fill="#000000"
       id="path28828"
       style="fill:#7a7c8a" /></g><rect
     style="fill:#000000;fill-opacity:1;stroke:#a9a9a9;stroke-width:2;stroke-linecap:round;stroke-linejoin:bevel;stroke-opacity:1"
     id="rect28832"
     width="88"
     height="32"
     x="284"
     y="56"
     ry="16" /><rect
     style="opacity:0.998818;fill:#fefefe;fill-opacity:1;stroke:#ffffff;stroke-width:2;stroke-linejoin:round;stroke-dasharray:none;stroke-opacity:1;paint-order:normal"
     id="rect29289"
     width="64"
     height="64"
     x="15.857991"
     y="184.4082"
     ry="31.5" /><rect
     style="opacity:0.998818;fill:#000000;fill-opacity:1;stroke:#000000;stroke-width:2;stroke-linejoin:round;stroke-dasharray:none;paint-order:normal;stroke-opacity:1"
     id="rect29120"
     width="64"
     height="64"
     x="16"
     y="64"
     ry="31.5" /><rect
     style="fill:#000000;fill-opacity:1;stroke:#a9a9a9;stroke-width:2;stroke-linecap:round;stroke-linejoin:bevel;stroke-opacity:1"
     id="rect28834"
     width="88"
     height="32"
     x="284"
     y="112"
     ry="16" /><rect
     style="fill:#000000;fill-opacity:1;stroke:#a9a9a9;stroke-width:2;stroke-linecap:round;stroke-linejoin:bevel;stroke-opacity:1"
     id="rect28836"
     width="88"
     height="32"
     x="284"
     y="168"
     ry="16" /><text
     xml:space="preserve"
     style="font-style:normal;font-variant:normal;font-weight:bold;font-stretch:normal;font-size:32px;line-height:0.75;font-family:Saira;-inkscape-font-specification:'Saira Bold';text-align:start;text-anchor:start;fill:#000000;fill-opacity:1;stroke:#a9a9a9;stroke-width:2;stroke-linecap:round;stroke-linejoin:miter;stroke-opacity:1"
     x="141.47215"
     y="247.744"
     id="text28972"><tspan
       sodipodi:role="line"
       id="tspan28970"
       x="141.47215"
       y="247.744"
       style="font-size:32px;fill:#ffffff;fill-opacity:1;stroke:none;stroke-opacity:1">Current Device</tspan></text><g
     style="fill:#a9a9a9;fill-opacity:1"
     id="g29118"
     transform="matrix(2.272131,0,0,2.272131,20.59242,45.159836)"><path
       fill-rule="evenodd"
       clip-rule="evenodd"
       d="m 11.9375,1.25 h 0.125 c 2.0683,-2e-5 3.7053,-3e-5 4.986,0.19129 1.324,0.19778 2.3738,0.61352 3.191,1.52145 0.8069,0.89662 1.1671,2.02948 1.3403,3.46081 C 21.75,7.83014 21.75,9.63498 21.75,11.9478 v 0.1044 c 0,2.3128 0,4.1177 -0.1702,5.5243 -0.1732,1.4313 -0.5334,2.5641 -1.3403,3.4608 -0.8172,0.9079 -1.867,1.3236 -3.191,1.5214 -1.2807,0.1913 -2.9177,0.1913 -4.986,0.1913 h -0.125 c -2.0683,0 -3.70529,0 -4.98603,-0.1913 C 5.62747,22.3609 4.57769,21.9452 3.76055,21.0373 2.95359,20.1406 2.59338,19.0078 2.42018,17.5765 2.24998,16.1699 2.24999,14.365 2.25,12.0522 V 11.9478 C 2.24999,9.63499 2.24998,7.83014 2.42018,6.42355 2.59338,4.99222 2.95359,3.85936 3.76055,2.96274 4.57769,2.05481 5.62747,1.63907 6.95147,1.44129 8.23221,1.24997 9.86922,1.24998 11.9375,1.25 Z M 7.17309,2.92483 C 6.04626,3.09316 5.37637,3.40965 4.87549,3.96619 4.36443,4.53404 4.06563,5.31193 3.90932,6.60374 3.7513,7.90972 3.75,9.62385 3.75,12 c 0,2.3762 0.0013,4.0903 0.15932,5.3963 0.15631,1.2918 0.45511,2.0697 0.96617,2.6375 0.50088,0.5565 1.17077,0.873 2.2976,1.0414 C 8.33029,21.248 9.8552,21.25 12,21.25 c 2.1448,0 3.6697,-0.002 4.8269,-0.1748 1.1268,-0.1684 1.7967,-0.4849 2.2976,-1.0414 0.5111,-0.5678 0.8099,-1.3457 0.9662,-2.6375 C 20.2487,16.0903 20.25,14.3762 20.25,12 20.25,9.62385 20.2487,7.90972 20.0907,6.60374 19.9344,5.31193 19.6356,4.53404 19.1245,3.96619 18.6236,3.40965 17.9537,3.09316 16.8269,2.92483 15.6697,2.75196 14.1448,2.75 12,2.75 9.8552,2.75 8.33029,2.75196 7.17309,2.92483 Z M 8.91612,5.24994 C 8.9438,5.24997 8.97176,5.25 9,5.25 h 6 c 0.0282,0 0.0562,-3e-5 0.0839,-6e-5 0.3808,-4e-4 0.7093,-7.5e-4 0.9984,0.07673 0.7765,0.20805 1.383,0.81453 1.591,1.59099 0.0775,0.28914 0.0772,0.61767 0.0768,0.99846 C 17.75,7.9438 17.75,7.97176 17.75,8 c 0,0.02824 0,0.0562 10e-5,0.08389 4e-4,0.38079 7e-4,0.70931 -0.0768,0.99845 -0.208,0.77646 -0.8145,1.38296 -1.591,1.59096 -0.2891,0.0775 -0.6176,0.0772 -0.9984,0.0768 C 15.0562,10.75 15.0282,10.75 15,10.75 H 9 c -0.02824,0 -0.0562,0 -0.08388,10e-5 -0.38079,4e-4 -0.70932,7e-4 -0.99846,-0.0768 C 7.1412,10.4653 6.53472,9.8588 6.32667,9.08234 6.24919,8.7932 6.24954,8.46468 6.24994,8.08389 6.24997,8.0562 6.25,8.02824 6.25,8 6.25,7.97176 6.24997,7.9438 6.24994,7.91612 6.24954,7.53533 6.24919,7.2068 6.32667,6.91766 6.53472,6.1412 7.1412,5.53472 7.91766,5.32667 8.2068,5.24919 8.53533,5.24954 8.91612,5.24994 Z M 9,6.75 C 8.48673,6.75 8.37722,6.75644 8.30589,6.77556 8.04707,6.84491 7.84491,7.04707 7.77556,7.30589 7.75644,7.37722 7.75,7.48673 7.75,8 7.75,8.51327 7.75644,8.62278 7.77556,8.69412 7.84491,8.95293 8.04707,9.1551 8.30589,9.22445 8.37722,9.24356 8.48673,9.25 9,9.25 h 6 c 0.5133,0 0.6228,-0.00644 0.6941,-0.02555 C 15.9529,9.1551 16.1551,8.95293 16.2244,8.69412 16.2436,8.62278 16.25,8.51327 16.25,8 16.25,7.48673 16.2436,7.37722 16.2244,7.30589 16.1551,7.04707 15.9529,6.84491 15.6941,6.77556 15.6228,6.75644 15.5133,6.75 15,6.75 Z m -0.5,6.5 c 0.41421,0 0.75,0.3358 0.75,0.75 v 0.75 H 10 c 0.4142,0 0.75,0.3358 0.75,0.75 0,0.4142 -0.3358,0.75 -0.75,0.75 H 9.25 V 17 c 0,0.4142 -0.33579,0.75 -0.75,0.75 C 8.08579,17.75 7.75,17.4142 7.75,17 V 16.25 H 7 C 6.58579,16.25 6.25,15.9142 6.25,15.5 6.25,15.0858 6.58579,14.75 7,14.75 H 7.75 V 14 c 0,-0.4142 0.33579,-0.75 0.75,-0.75 z"
       fill="#000000"
       id="path29108"
       style="fill:#a9a9a9;fill-opacity:1" /><path
       d="m 16.3333,13.8333 c 0,0.4603 -0.3731,0.8334 -0.8333,0.8334 -0.4602,0 -0.8333,-0.3731 -0.8333,-0.8334 C 14.6667,13.3731 15.0398,13 15.5,13 c 0.4602,0 0.8333,0.3731 0.8333,0.8333 z"
       fill="#000000"
       id="path29110"
       style="fill:#a9a9a9;fill-opacity:1" /><path
       d="M 16.3333,17.1667 C 16.3333,17.6269 15.9602,18 15.5,18 c -0.4602,0 -0.8333,-0.3731 -0.8333,-0.8333 0,-0.4603 0.3731,-0.8334 0.8333,-0.8334 0.4602,0 0.8333,0.3731 0.8333,0.8334 z"
       fill="#000000"
       id="path29112"
       style="fill:#a9a9a9;fill-opacity:1" /><path
       d="m 14.6667,15.5 c 0,0.4602 -0.3731,0.8333 -0.8334,0.8333 C 13.3731,16.3333 13,15.9602 13,15.5 c 0,-0.4602 0.3731,-0.8333 0.8333,-0.8333 0.4603,0 0.8334,0.3731 0.8334,0.8333 z"
       fill="#000000"
       id="path29114"
       style="fill:#a9a9a9;fill-opacity:1" /><path
       d="m 18,15.5 c 0,0.4602 -0.3731,0.8333 -0.8333,0.8333 -0.4603,0 -0.8334,-0.3731 -0.8334,-0.8333 0,-0.4602 0.3731,-0.8333 0.8334,-0.8333 0.4602,0 0.8333,0.3731 0.8333,0.8333 z"
       fill="#000000"
       id="path29116"
       style="fill:#a9a9a9;fill-opacity:1" /></g><g
     style="fill:#a9a9a9;fill-opacity:1"
     id="g29273"
     transform="matrix(2.272131,0,0,2.272131,20.450412,117.56804)"><path
       fill-rule="evenodd"
       clip-rule="evenodd"
       d="m 11.9375,1.25 h 0.125 c 2.0683,-2e-5 3.7053,-3e-5 4.986,0.19129 1.324,0.19778 2.3738,0.61352 3.191,1.52145 0.8069,0.89662 1.1671,2.02948 1.3403,3.46081 C 21.75,7.83014 21.75,9.63498 21.75,11.9478 v 0.1044 c 0,2.3128 0,4.1177 -0.1702,5.5243 -0.1732,1.4313 -0.5334,2.5641 -1.3403,3.4608 -0.8172,0.9079 -1.867,1.3236 -3.191,1.5214 -1.2807,0.1913 -2.9177,0.1913 -4.986,0.1913 h -0.125 c -2.0683,0 -3.70529,0 -4.98603,-0.1913 C 5.62747,22.3609 4.57769,21.9452 3.76055,21.0373 2.95359,20.1406 2.59338,19.0078 2.42018,17.5765 2.24998,16.1699 2.24999,14.365 2.25,12.0522 V 11.9478 C 2.24999,9.63499 2.24998,7.83014 2.42018,6.42355 2.59338,4.99222 2.95359,3.85936 3.76055,2.96274 4.57769,2.05481 5.62747,1.63907 6.95147,1.44129 8.23221,1.24997 9.86922,1.24998 11.9375,1.25 Z M 7.17309,2.92483 C 6.04626,3.09316 5.37637,3.40965 4.87549,3.96619 4.36443,4.53404 4.06563,5.31193 3.90932,6.60374 3.7513,7.90972 3.75,9.62385 3.75,12 c 0,2.3762 0.0013,4.0903 0.15932,5.3963 0.15631,1.2918 0.45511,2.0697 0.96617,2.6375 0.50088,0.5565 1.17077,0.873 2.2976,1.0414 C 8.33029,21.248 9.8552,21.25 12,21.25 c 2.1448,0 3.6697,-0.002 4.8269,-0.1748 1.1268,-0.1684 1.7967,-0.4849 2.2976,-1.0414 0.5111,-0.5678 0.8099,-1.3457 0.9662,-2.6375 C 20.2487,16.0903 20.25,14.3762 20.25,12 20.25,9.62385 20.2487,7.90972 20.0907,6.60374 19.9344,5.31193 19.6356,4.53404 19.1245,3.96619 18.6236,3.40965 17.9537,3.09316 16.8269,2.92483 15.6697,2.75196 14.1448,2.75 12,2.75 9.8552,2.75 8.33029,2.75196 7.17309,2.92483 Z M 8.91612,5.24994 C 8.9438,5.24997 8.97176,5.25 9,5.25 h 6 c 0.0282,0 0.0562,-3e-5 0.0839,-6e-5 0.3808,-4e-4 0.7093,-7.5e-4 0.9984,0.07673 0.7765,0.20805 1.383,0.81453 1.591,1.59099 0.0775,0.28914 0.0772,0.61767 0.0768,0.99846 C 17.75,7.9438 17.75,7.97176 17.75,8 c 0,0.02824 0,0.0562 10e-5,0.08389 4e-4,0.38079 7e-4,0.70931 -0.0768,0.99845 -0.208,0.77646 -0.8145,1.38296 -1.591,1.59096 -0.2891,0.0775 -0.6176,0.0772 -0.9984,0.0768 C 15.0562,10.75 15.0282,10.75 15,10.75 H 9 c -0.02824,0 -0.0562,0 -0.08388,10e-5 -0.38079,4e-4 -0.70932,7e-4 -0.99846,-0.0768 C 7.1412,10.4653 6.53472,9.8588 6.32667,9.08234 6.24919,8.7932 6.24954,8.46468 6.24994,8.08389 6.24997,8.0562 6.25,8.02824 6.25,8 6.25,7.97176 6.24997,7.9438 6.24994,7.91612 6.24954,7.53533 6.24919,7.2068 6.32667,6.91766 6.53472,6.1412 7.1412,5.53472 7.91766,5.32667 8.2068,5.24919 8.53533,5.24954 8.91612,5.24994 Z M 9,6.75 C 8.48673,6.75 8.37722,6.75644 8.30589,6.77556 8.04707,6.84491 7.84491,7.04707 7.77556,7.30589 7.75644,7.37722 7.75,7.48673 7.75,8 7.75,8.51327 7.75644,8.62278 7.77556,8.69412 7.84491,8.95293 8.04707,9.1551 8.30589,9.22445 8.37722,9.24356 8.48673,9.25 9,9.25 h 6 c 0.5133,0 0.6228,-0.00644 0.6941,-0.02555 C 15.9529,9.1551 16.1551,8.95293 16.2244,8.69412 16.2436,8.62278 16.25,8.51327 16.25,8 16.25,7.48673 16.2436,7.37722 16.2244,7.30589 16.1551,7.04707 15.9529,6.84491 15.6941,6.77556 15.6228,6.75644 15.5133,6.75 15,6.75 Z m -0.5,6.5 c 0.41421,0 0.75,0.3358 0.75,0.75 v 0.75 H 10 c 0.4142,0 0.75,0.3358 0.75,0.75 0,0.4142 -0.3358,0.75 -0.75,0.75 H 9.25 V 17 c 0,0.4142 -0.33579,0.75 -0.75,0.75 C 8.08579,17.75 7.75,17.4142 7.75,17 V 16.25 H 7 C 6.58579,16.25 6.25,15.9142 6.25,15.5 6.25,15.0858 6.58579,14.75 7,14.75 H 7.75 V 14 c 0,-0.4142 0.33579,-0.75 0.75,-0.75 z"
       fill="#000000"
       id="path29263"
       style="fill:#a9a9a9;fill-opacity:1" /><path
       d="m 16.3333,13.8333 c 0,0.4603 -0.3731,0.8334 -0.8333,0.8334 -0.4602,0 -0.8333,-0.3731 -0.8333,-0.8334 C 14.6667,13.3731 15.0398,13 15.5,13 c 0.4602,0 0.8333,0.3731 0.8333,0.8333 z"
       fill="#000000"
       id="path29265"
       style="fill:#a9a9a9;fill-opacity:1" /><path
       d="M 16.3333,17.1667 C 16.3333,17.6269 15.9602,18 15.5,18 c -0.4602,0 -0.8333,-0.3731 -0.8333,-0.8333 0,-0.4603 0.3731,-0.8334 0.8333,-0.8334 0.4602,0 0.8333,0.3731 0.8333,0.8334 z"
       fill="#000000"
       id="path29267"
       style="fill:#a9a9a9;fill-opacity:1" /><path
       d="m 14.6667,15.5 c 0,0.4602 -0.3731,0.8333 -0.8334,0.8333 C 13.3731,16.3333 13,15.9602 13,15.5 c 0,-0.4602 0.3731,-0.8333 0.8333,-0.8333 0.4603,0 0.8334,0.3731 0.8334,0.8333 z"
       fill="#000000"
       id="path29269"
       style="fill:#a9a9a9;fill-opacity:1" /><path
       d="m 18,15.5 c 0,0.4602 -0.3731,0.8333 -0.8333,0.8333 -0.4603,0 -0.8334,-0.3731 -0.8334,-0.8333 0,-0.4602 0.3731,-0.8333 0.8334,-0.8333 0.4602,0 0.8333,0.3731 0.8333,0.8333 z"
       fill="#000000"
       id="path29271"
       style="fill:#a9a9a9;fill-opacity:1" /></g><rect
     style="opacity:0.998818;fill:none;fill-opacity:1;stroke:#6f6f6e;stroke-width:2;stroke-linejoin:round;stroke-dasharray:none;paint-order:normal"
     id="rect29275"
     width="64"
     height="64"
     x="15.715984"
     y="112.8164"
     ry="31.5" /><g
     style="fill:#000000;fill-opacity:1"
     id="g29287"
     transform="matrix(2.272131,0,0,2.272131,20.592419,189.15984)"><path
       fill-rule="evenodd"
       clip-rule="evenodd"
       d="m 11.9375,1.25 h 0.125 c 2.0683,-2e-5 3.7053,-3e-5 4.986,0.19129 1.324,0.19778 2.3738,0.61352 3.191,1.52145 0.8069,0.89662 1.1671,2.02948 1.3403,3.46081 C 21.75,7.83014 21.75,9.63498 21.75,11.9478 v 0.1044 c 0,2.3128 0,4.1177 -0.1702,5.5243 -0.1732,1.4313 -0.5334,2.5641 -1.3403,3.4608 -0.8172,0.9079 -1.867,1.3236 -3.191,1.5214 -1.2807,0.1913 -2.9177,0.1913 -4.986,0.1913 h -0.125 c -2.0683,0 -3.70529,0 -4.98603,-0.1913 C 5.62747,22.3609 4.57769,21.9452 3.76055,21.0373 2.95359,20.1406 2.59338,19.0078 2.42018,17.5765 2.24998,16.1699 2.24999,14.365 2.25,12.0522 V 11.9478 C 2.24999,9.63499 2.24998,7.83014 2.42018,6.42355 2.59338,4.99222 2.95359,3.85936 3.76055,2.96274 4.57769,2.05481 5.62747,1.63907 6.95147,1.44129 8.23221,1.24997 9.86922,1.24998 11.9375,1.25 Z M 7.17309,2.92483 C 6.04626,3.09316 5.37637,3.40965 4.87549,3.96619 4.36443,4.53404 4.06563,5.31193 3.90932,6.60374 3.7513,7.90972 3.75,9.62385 3.75,12 c 0,2.3762 0.0013,4.0903 0.15932,5.3963 0.15631,1.2918 0.45511,2.0697 0.96617,2.6375 0.50088,0.5565 1.17077,0.873 2.2976,1.0414 C 8.33029,21.248 9.8552,21.25 12,21.25 c 2.1448,0 3.6697,-0.002 4.8269,-0.1748 1.1268,-0.1684 1.7967,-0.4849 2.2976,-1.0414 0.5111,-0.5678 0.8099,-1.3457 0.9662,-2.6375 C 20.2487,16.0903 20.25,14.3762 20.25,12 20.25,9.62385 20.2487,7.90972 20.0907,6.60374 19.9344,5.31193 19.6356,4.53404 19.1245,3.96619 18.6236,3.40965 17.9537,3.09316 16.8269,2.92483 15.6697,2.75196 14.1448,2.75 12,2.75 9.8552,2.75 8.33029,2.75196 7.17309,2.92483 Z M 8.91612,5.24994 C 8.9438,5.24997 8.97176,5.25 9,5.25 h 6 c 0.0282,0 0.0562,-3e-5 0.0839,-6e-5 0.3808,-4e-4 0.7093,-7.5e-4 0.9984,0.07673 0.7765,0.20805 1.383,0.81453 1.591,1.59099 0.0775,0.28914 0.0772,0.61767 0.0768,0.99846 C 17.75,7.9438 17.75,7.97176 17.75,8 c 0,0.02824 0,0.0562 10e-5,0.08389 4e-4,0.38079 7e-4,0.70931 -0.0768,0.99845 -0.208,0.77646 -0.8145,1.38296 -1.591,1.59096 -0.2891,0.0775 -0.6176,0.0772 -0.9984,0.0768 C 15.0562,10.75 15.0282,10.75 15,10.75 H 9 c -0.02824,0 -0.0562,0 -0.08388,10e-5 -0.38079,4e-4 -0.70932,7e-4 -0.99846,-0.0768 C 7.1412,10.4653 6.53472,9.8588 6.32667,9.08234 6.24919,8.7932 6.24954,8.46468 6.24994,8.08389 6.24997,8.0562 6.25,8.02824 6.25,8 6.25,7.97176 6.24997,7.9438 6.24994,7.91612 6.24954,7.53533 6.24919,7.2068 6.32667,6.91766 6.53472,6.1412 7.1412,5.53472 7.91766,5.32667 8.2068,5.24919 8.53533,5.24954 8.91612,5.24994 Z M 9,6.75 C 8.48673,6.75 8.37722,6.75644 8.30589,6.77556 8.04707,6.84491 7.84491,7.04707 7.77556,7.30589 7.75644,7.37722 7.75,7.48673 7.75,8 7.75,8.51327 7.75644,8.62278 7.77556,8.69412 7.84491,8.95293 8.04707,9.1551 8.30589,9.22445 8.37722,9.24356 8.48673,9.25 9,9.25 h 6 c 0.5133,0 0.6228,-0.00644 0.6941,-0.02555 C 15.9529,9.1551 16.1551,8.95293 16.2244,8.69412 16.2436,8.62278 16.25,8.51327 16.25,8 16.25,7.48673 16.2436,7.37722 16.2244,7.30589 16.1551,7.04707 15.9529,6.84491 15.6941,6.77556 15.6228,6.75644 15.5133,6.75 15,6.75 Z m -0.5,6.5 c 0.41421,0 0.75,0.3358 0.75,0.75 v 0.75 H 10 c 0.4142,0 0.75,0.3358 0.75,0.75 0,0.4142 -0.3358,0.75 -0.75,0.75 H 9.25 V 17 c 0,0.4142 -0.33579,0.75 -0.75,0.75 C 8.08579,17.75 7.75,17.4142 7.75,17 V 16.25 H 7 C 6.58579,16.25 6.25,15.9142 6.25,15.5 6.25,15.0858 6.58579,14.75 7,14.75 H 7.75 V 14 c 0,-0.4142 0.33579,-0.75 0.75,-0.75 z"
       fill="#000000"
       id="path29277"
       style="fill:#000000;fill-opacity:1" /><path
       d="m 16.3333,13.8333 c 0,0.4603 -0.3731,0.8334 -0.8333,0.8334 -0.4602,0 -0.8333,-0.3731 -0.8333,-0.8334 C 14.6667,13.3731 15.0398,13 15.5,13 c 0.4602,0 0.8333,0.3731 0.8333,0.8333 z"
       fill="#000000"
       id="path29279"
       style="fill:#000000;fill-opacity:1" /><path
       d="M 16.3333,17.1667 C 16.3333,17.6269 15.9602,18 15.5,18 c -0.4602,0 -0.8333,-0.3731 -0.8333,-0.8333 0,-0.4603 0.3731,-0.8334 0.8333,-0.8334 0.4602,0 0.8333,0.3731 0.8333,0.8334 z"
       fill="#000000"
       id="path29281"
       style="fill:#000000;fill-opacity:1" /><path
       d="m 14.6667,15.5 c 0,0.4602 -0.3731,0.8333 -0.8334,0.8333 C 13.3731,16.3333 13,15.9602 13,15.5 c 0,-0.4602 0.3731,-0.8333 0.8333,-0.8333 0.4603,0 0.8334,0.3731 0.8334,0.8333 z"
       fill="#000000"
       id="path29283"
       style="fill:#000000;fill-opacity:1" /><path
       d="m 18,15.5 c 0,0.4602 -0.3731,0.8333 -0.8333,0.8333 -0.4603,0 -0.8334,-0.3731 -0.8334,-0.8333 0,-0.4602 0.3731,-0.8333 0.8334,-0.8333 0.4602,0 0.8333,0.3731 0.8333,0.8333 z"
       fill="#000000"
       id="path29285"
       style="fill:#000000;fill-opacity:1" /></g><g
     style="fill:#414040;fill-opacity:1"
     id="g29301"
     transform="matrix(2.272131,0,0,2.272131,20.450412,261.56804)"><path
       fill-rule="evenodd"
       clip-rule="evenodd"
       d="m 11.9375,1.25 h 0.125 c 2.0683,-2e-5 3.7053,-3e-5 4.986,0.19129 1.324,0.19778 2.3738,0.61352 3.191,1.52145 0.8069,0.89662 1.1671,2.02948 1.3403,3.46081 C 21.75,7.83014 21.75,9.63498 21.75,11.9478 v 0.1044 c 0,2.3128 0,4.1177 -0.1702,5.5243 -0.1732,1.4313 -0.5334,2.5641 -1.3403,3.4608 -0.8172,0.9079 -1.867,1.3236 -3.191,1.5214 -1.2807,0.1913 -2.9177,0.1913 -4.986,0.1913 h -0.125 c -2.0683,0 -3.70529,0 -4.98603,-0.1913 C 5.62747,22.3609 4.57769,21.9452 3.76055,21.0373 2.95359,20.1406 2.59338,19.0078 2.42018,17.5765 2.24998,16.1699 2.24999,14.365 2.25,12.0522 V 11.9478 C 2.24999,9.63499 2.24998,7.83014 2.42018,6.42355 2.59338,4.99222 2.95359,3.85936 3.76055,2.96274 4.57769,2.05481 5.62747,1.63907 6.95147,1.44129 8.23221,1.24997 9.86922,1.24998 11.9375,1.25 Z M 7.17309,2.92483 C 6.04626,3.09316 5.37637,3.40965 4.87549,3.96619 4.36443,4.53404 4.06563,5.31193 3.90932,6.60374 3.7513,7.90972 3.75,9.62385 3.75,12 c 0,2.3762 0.0013,4.0903 0.15932,5.3963 0.15631,1.2918 0.45511,2.0697 0.96617,2.6375 0.50088,0.5565 1.17077,0.873 2.2976,1.0414 C 8.33029,21.248 9.8552,21.25 12,21.25 c 2.1448,0 3.6697,-0.002 4.8269,-0.1748 1.1268,-0.1684 1.7967,-0.4849 2.2976,-1.0414 0.5111,-0.5678 0.8099,-1.3457 0.9662,-2.6375 C 20.2487,16.0903 20.25,14.3762 20.25,12 20.25,9.62385 20.2487,7.90972 20.0907,6.60374 19.9344,5.31193 19.6356,4.53404 19.1245,3.96619 18.6236,3.40965 17.9537,3.09316 16.8269,2.92483 15.6697,2.75196 14.1448,2.75 12,2.75 9.8552,2.75 8.33029,2.75196 7.17309,2.92483 Z M 8.91612,5.24994 C 8.9438,5.24997 8.97176,5.25 9,5.25 h 6 c 0.0282,0 0.0562,-3e-5 0.0839,-6e-5 0.3808,-4e-4 0.7093,-7.5e-4 0.9984,0.07673 0.7765,0.20805 1.383,0.81453 1.591,1.59099 0.0775,0.28914 0.0772,0.61767 0.0768,0.99846 C 17.75,7.9438 17.75,7.97176 17.75,8 c 0,0.02824 0,0.0562 10e-5,0.08389 4e-4,0.38079 7e-4,0.70931 -0.0768,0.99845 -0.208,0.77646 -0.8145,1.38296 -1.591,1.59096 -0.2891,0.0775 -0.6176,0.0772 -0.9984,0.0768 C 15.0562,10.75 15.0282,10.75 15,10.75 H 9 c -0.02824,0 -0.0562,0 -0.08388,10e-5 -0.38079,4e-4 -0.70932,7e-4 -0.99846,-0.0768 C 7.1412,10.4653 6.53472,9.8588 6.32667,9.08234 6.24919,8.7932 6.24954,8.46468 6.24994,8.08389 6.24997,8.0562 6.25,8.02824 6.25,8 6.25,7.97176 6.24997,7.9438 6.24994,7.91612 6.24954,7.53533 6.24919,7.2068 6.32667,6.91766 6.53472,6.1412 7.1412,5.53472 7.91766,5.32667 8.2068,5.24919 8.53533,5.24954 8.91612,5.24994 Z M 9,6.75 C 8.48673,6.75 8.37722,6.75644 8.30589,6.77556 8.04707,6.84491 7.84491,7.04707 7.77556,7.30589 7.75644,7.37722 7.75,7.48673 7.75,8 7.75,8.51327 7.75644,8.62278 7.77556,8.69412 7.84491,8.95293 8.04707,9.1551 8.30589,9.22445 8.37722,9.24356 8.48673,9.25 9,9.25 h 6 c 0.5133,0 0.6228,-0.00644 0.6941,-0.02555 C 15.9529,9.1551 16.1551,8.95293 16.2244,8.69412 16.2436,8.62278 16.25,8.51327 16.25,8 16.25,7.48673 16.2436,7.37722 16.2244,7.30589 16.1551,7.04707 15.9529,6.84491 15.6941,6.77556 15.6228,6.75644 15.5133,6.75 15,6.75 Z m -0.5,6.5 c 0.41421,0 0.75,0.3358 0.75,0.75 v 0.75 H 10 c 0.4142,0 0.75,0.3358 0.75,0.75 0,0.4142 -0.3358,0.75 -0.75,0.75 H 9.25 V 17 c 0,0.4142 -0.33579,0.75 -0.75,0.75 C 8.08579,17.75 7.75,17.4142 7.75,17 V 16.25 H 7 C 6.58579,16.25 6.25,15.9142 6.25,15.5 6.25,15.0858 6.58579,14.75 7,14.75 H 7.75 V 14 c 0,-0.4142 0.33579,-0.75 0.75,-0.75 z"
       fill="#000000"
       id="path29291"
       style="fill:#414040;fill-opacity:1" /><path
       d="m 16.3333,13.8333 c 0,0.4603 -0.3731,0.8334 -0.8333,0.8334 -0.4602,0 -0.8333,-0.3731 -0.8333,-0.8334 C 14.6667,13.3731 15.0398,13 15.5,13 c 0.4602,0 0.8333,0.3731 0.8333,0.8333 z"
       fill="#000000"
       id="path29293"
       style="fill:#414040;fill-opacity:1" /><path
       d="M 16.3333,17.1667 C 16.3333,17.6269 15.9602,18 15.5,18 c -0.4602,0 -0.8333,-0.3731 -0.8333,-0.8333 0,-0.4603 0.3731,-0.8334 0.8333,-0.8334 0.4602,0 0.8333,0.3731 0.8333,0.8334 z"
       fill="#000000"
       id="path29295"
       style="fill:#414040;fill-opacity:1" /><path
       d="m 14.6667,15.5 c 0,0.4602 -0.3731,0.8333 -0.8334,0.8333 C 13.3731,16.3333 13,15.9602 13,15.5 c 0,-0.4602 0.3731,-0.8333 0.8333,-0.8333 0.4603,0 0.8334,0.3731 0.8334,0.8333 z"
       fill="#000000"
       id="path29297"
       style="fill:#414040;fill-opacity:1" /><path
       d="m 18,15.5 c 0,0.4602 -0.3731,0.8333 -0.8333,0.8333 -0.4603,0 -0.8334,-0.3731 -0.8334,-0.8333 0,-0.4602 0.3731,-0.8333 0.8334,-0.8333 0.4602,0 0.8333,0.3731 0.8333,0.8333 z"
       fill="#000000"
       id="path29299"
       style="fill:#414040;fill-opacity:1" /></g><rect
     style="opacity:0.998818;fill:none;fill-opacity:1;stroke:#a9a9a9;stroke-width:2;stroke-linejoin:round;stroke-dasharray:none;paint-order:normal"
     id="rect29303"
     width="64"
     height="64"
     x="15.715984"
     y="256.81641"
     ry="0" /><g
     style="fill:#a9a9a9;fill-opacity:1"
     id="g29315"
     transform="matrix(2.272131,0,0,2.272131,20.592419,333.15984)"><path
       fill-rule="evenodd"
       clip-rule="evenodd"
       d="m 11.9375,1.25 h 0.125 c 2.0683,-2e-5 3.7053,-3e-5 4.986,0.19129 1.324,0.19778 2.3738,0.61352 3.191,1.52145 0.8069,0.89662 1.1671,2.02948 1.3403,3.46081 C 21.75,7.83014 21.75,9.63498 21.75,11.9478 v 0.1044 c 0,2.3128 0,4.1177 -0.1702,5.5243 -0.1732,1.4313 -0.5334,2.5641 -1.3403,3.4608 -0.8172,0.9079 -1.867,1.3236 -3.191,1.5214 -1.2807,0.1913 -2.9177,0.1913 -4.986,0.1913 h -0.125 c -2.0683,0 -3.70529,0 -4.98603,-0.1913 C 5.62747,22.3609 4.57769,21.9452 3.76055,21.0373 2.95359,20.1406 2.59338,19.0078 2.42018,17.5765 2.24998,16.1699 2.24999,14.365 2.25,12.0522 V 11.9478 C 2.24999,9.63499 2.24998,7.83014 2.42018,6.42355 2.59338,4.99222 2.95359,3.85936 3.76055,2.96274 4.57769,2.05481 5.62747,1.63907 6.95147,1.44129 8.23221,1.24997 9.86922,1.24998 11.9375,1.25 Z M 7.17309,2.92483 C 6.04626,3.09316 5.37637,3.40965 4.87549,3.96619 4.36443,4.53404 4.06563,5.31193 3.90932,6.60374 3.7513,7.90972 3.75,9.62385 3.75,12 c 0,2.3762 0.0013,4.0903 0.15932,5.3963 0.15631,1.2918 0.45511,2.0697 0.96617,2.6375 0.50088,0.5565 1.17077,0.873 2.2976,1.0414 C 8.33029,21.248 9.8552,21.25 12,21.25 c 2.1448,0 3.6697,-0.002 4.8269,-0.1748 1.1268,-0.1684 1.7967,-0.4849 2.2976,-1.0414 0.5111,-0.5678 0.8099,-1.3457 0.9662,-2.6375 C 20.2487,16.0903 20.25,14.3762 20.25,12 20.25,9.62385 20.2487,7.90972 20.0907,6.60374 19.9344,5.31193 19.6356,4.53404 19.1245,3.96619 18.6236,3.40965 17.9537,3.09316 16.8269,2.92483 15.6697,2.75196 14.1448,2.75 12,2.75 9.8552,2.75 8.33029,2.75196 7.17309,2.92483 Z M 8.91612,5.24994 C 8.9438,5.24997 8.97176,5.25 9,5.25 h 6 c 0.0282,0 0.0562,-3e-5 0.0839,-6e-5 0.3808,-4e-4 0.7093,-7.5e-4 0.9984,0.07673 0.7765,0.20805 1.383,0.81453 1.591,1.59099 0.0775,0.28914 0.0772,0.61767 0.0768,0.99846 C 17.75,7.9438 17.75,7.97176 17.75,8 c 0,0.02824 0,0.0562 10e-5,0.08389 4e-4,0.38079 7e-4,0.70931 -0.0768,0.99845 -0.208,0.77646 -0.8145,1.38296 -1.591,1.59096 -0.2891,0.0775 -0.6176,0.0772 -0.9984,0.0768 C 15.0562,10.75 15.0282,10.75 15,10.75 H 9 c -0.02824,0 -0.0562,0 -0.08388,10e-5 -0.38079,4e-4 -0.70932,7e-4 -0.99846,-0.0768 C 7.1412,10.4653 6.53472,9.8588 6.32667,9.08234 6.24919,8.7932 6.24954,8.46468 6.24994,8.08389 6.24997,8.0562 6.25,8.02824 6.25,8 6.25,7.97176 6.24997,7.9438 6.24994,7.91612 6.24954,7.53533 6.24919,7.2068 6.32667,6.91766 6.53472,6.1412 7.1412,5.53472 7.91766,5.32667 8.2068,5.24919 8.53533,5.24954 8.91612,5.24994 Z M 9,6.75 C 8.48673,6.75 8.37722,6.75644 8.30589,6.77556 8.04707,6.84491 7.84491,7.04707 7.77556,7.30589 7.75644,7.37722 7.75,7.48673 7.75,8 7.75,8.51327 7.75644,8.62278 7.77556,8.69412 7.84491,8.95293 8.04707,9.1551 8.30589,9.22445 8.37722,9.24356 8.48673,9.25 9,9.25 h 6 c 0.5133,0 0.6228,-0.00644 0.6941,-0.02555 C 15.9529,9.1551 16.1551,8.95293 16.2244,8.69412 16.2436,8.62278 16.25,8.51327 16.25,8 16.25,7.48673 16.2436,7.37722 16.2244,7.30589 16.1551,7.04707 15.9529,6.84491 15.6941,6.77556 15.6228,6.75644 15.5133,6.75 15,6.75 Z m -0.5,6.5 c 0.41421,0 0.75,0.3358 0.75,0.75 v 0.75 H 10 c 0.4142,0 0.75,0.3358 0.75,0.75 0,0.4142 -0.3358,0.75 -0.75,0.75 H 9.25 V 17 c 0,0.4142 -0.33579,0.75 -0.75,0.75 C 8.08579,17.75 7.75,17.4142 7.75,17 V 16.25 H 7 C 6.58579,16.25 6.25,15.9142 6.25,15.5 6.25,15.0858 6.58579,14.75 7,14.75 H 7.75 V 14 c 0,-0.4142 0.33579,-0.75 0.75,-0.75 z"
       fill="#000000"
       id="path29305"
       style="fill:#a9a9a9;fill-opacity:1" /><path
       d="m 16.3333,13.8333 c 0,0.4603 -0.3731,0.8334 -0.8333,0.8334 -0.4602,0 -0.8333,-0.3731 -0.8333,-0.8334 C 14.6667,13.3731 15.0398,13 15.5,13 c 0.4602,0 0.8333,0.3731 0.8333,0.8333 z"
       fill="#000000"
       id="path29307"
       style="fill:#a9a9a9;fill-opacity:1" /><path
       d="M 16.3333,17.1667 C 16.3333,17.6269 15.9602,18 15.5,18 c -0.4602,0 -0.8333,-0.3731 -0.8333,-0.8333 0,-0.4603 0.3731,-0.8334 0.8333,-0.8334 0.4602,0 0.8333,0.3731 0.8333,0.8334 z"
       fill="#000000"
       id="path29309"
       style="fill:#a9a9a9;fill-opacity:1" /><path
       d="m 14.6667,15.5 c 0,0.4602 -0.3731,0.8333 -0.8334,0.8333 C 13.3731,16.3333 13,15.9602 13,15.5 c 0,-0.4602 0.3731,-0.8333 0.8333,-0.8333 0.4603,0 0.8334,0.3731 0.8334,0.8333 z"
       fill="#000000"
       id="path29311"
       style="fill:#a9a9a9;fill-opacity:1" /><path
       d="m 18,15.5 c 0,0.4602 -0.3731,0.8333 -0.8333,0.8333 -0.4603,0 -0.8334,-0.3731 -0.8334,-0.8333 0,-0.4602 0.3731,-0.8333 0.8334,-0.8333 0.4602,0 0.8333,0.3731 0.8333,0.8333 z"
       fill="#000000"
       id="path29313"
       style="fill:#a9a9a9;fill-opacity:1" /></g><rect
     style="opacity:0.998818;fill:none;fill-opacity:1;stroke:#414040;stroke-width:2;stroke-linejoin:round;stroke-dasharray:none;paint-order:normal"
     id="rect29317"
     width="64"
     height="64"
     x="15.857991"
     y="328.4082"
     ry="31.5" /></svg>
