<?xml version="1.0" encoding="UTF-8" standalone="no"?>
<!-- Created with Inkscape (http://www.inkscape.org/) -->

<svg
   width="1024.0px"
   height="768.0px"
   viewBox="0 0 1024.0 768.0"
   version="1.1"
   id="SVGRoot"
   sodipodi:docname="spritzmock.svg"
   shape-rendering="crispEdges"
   inkscape:version="1.2.2 (732a01da63, 2022-12-09)"
   xml:space="preserve"
   inkscape:export-filename="spritzmock.png"
   inkscape:export-xdpi="96"
   inkscape:export-ydpi="96"
   xmlns:inkscape="http://www.inkscape.org/namespaces/inkscape"
   xmlns:sodipodi="http://sodipodi.sourceforge.net/DTD/sodipodi-0.dtd"
   xmlns="http://www.w3.org/2000/svg"
   xmlns:svg="http://www.w3.org/2000/svg"><sodipodi:namedview
     id="namedview909"
     pagecolor="#ffffff"
     bordercolor="#666666"
     borderopacity="1.0"
     inkscape:pageshadow="2"
     inkscape:pageopacity="0.0"
     inkscape:pagecheckerboard="true"
     inkscape:document-units="px"
     showgrid="true"
     inkscape:zoom="1.4142136"
     inkscape:cx="528.91587"
     inkscape:cy="366.98842"
     inkscape:window-width="2559"
     inkscape:window-height="1369"
     inkscape:window-x="1"
     inkscape:window-y="650"
     inkscape:window-maximized="0"
     inkscape:current-layer="layer1"
     inkscape:showpageshadow="0"
     inkscape:deskcolor="#d1d1d1"
     showguides="true"><inkscape:grid
       type="xygrid"
       id="grid11501"
       empspacing="8"
       dotted="true" /><sodipodi:guide
       position="96,472"
       orientation="1,0"
       id="guide37493"
       inkscape:locked="false" /></sodipodi:namedview><defs
     id="defs904"><filter
       style="color-interpolation-filters:sRGB"
       inkscape:label="Drop Shadow"
       id="filter17041"
       x="-0.0625"
       y="-0.071428562"
       width="1.25"
       height="1.2857142"><feFlood
         flood-opacity="1"
         flood-color="rgb(255,255,255)"
         result="flood"
         id="feFlood17031" /><feComposite
         in="flood"
         in2="SourceGraphic"
         operator="in"
         result="composite1"
         id="feComposite17033" /><feGaussianBlur
         in="composite1"
         stdDeviation="0"
         result="blur"
         id="feGaussianBlur17035" /><feOffset
         dx="2"
         dy="2"
         result="offset"
         id="feOffset17037" /><feComposite
         in="SourceGraphic"
         in2="offset"
         operator="over"
         result="composite2"
         id="feComposite17039" /></filter><filter
       style="color-interpolation-filters:sRGB"
       inkscape:label="Drop Shadow"
       id="filter18283"
       x="-0.017857143"
       y="-0.017857143"
       width="1.1428571"
       height="1.1428571"><feFlood
         flood-opacity="1"
         flood-color="rgb(255,255,255)"
         result="flood"
         id="feFlood18273" /><feComposite
         in="flood"
         in2="SourceGraphic"
         operator="in"
         result="composite1"
         id="feComposite18275" /><feGaussianBlur
         in="composite1"
         stdDeviation="0"
         result="blur"
         id="feGaussianBlur18277" /><feOffset
         dx="6"
         dy="6"
         result="offset"
         id="feOffset18279" /><feComposite
         in="SourceGraphic"
         in2="offset"
         operator="over"
         result="composite2"
         id="feComposite18281" /></filter><filter
       style="color-interpolation-filters:sRGB"
       inkscape:label="Drop Shadow"
       id="filter21887"
       x="-0.0625"
       y="-0.0625"
       width="1.25"
       height="1.25"><feFlood
         flood-opacity="1"
         flood-color="rgb(0,0,0)"
         result="flood"
         id="feFlood21877" /><feComposite
         in="flood"
         in2="SourceGraphic"
         operator="in"
         result="composite1"
         id="feComposite21879" /><feGaussianBlur
         in="composite1"
         stdDeviation="0"
         result="blur"
         id="feGaussianBlur21881" /><feOffset
         dx="2"
         dy="2"
         result="offset"
         id="feOffset21883" /><feComposite
         in="SourceGraphic"
         in2="offset"
         operator="over"
         result="composite2"
         id="feComposite21885" /></filter><filter
       style="color-interpolation-filters:sRGB"
       inkscape:label="Drop Shadow"
       id="filter13"
       x="-0.0051204392"
       y="-0.031704075"
       width="1.0204818"
       height="1.1268163"><feFlood
         result="flood"
         in="SourceGraphic"
         flood-opacity="1.000000"
         flood-color="rgb(0,0,0)"
         id="feFlood12" /><feGaussianBlur
         result="blur"
         in="SourceGraphic"
         stdDeviation="0.000000"
         id="feGaussianBlur12" /><feOffset
         result="offset"
         in="blur"
         dx="2"
         dy="2"
         id="feOffset12" /><feComposite
         result="comp1"
         operator="in"
         in="flood"
         in2="offset"
         id="feComposite12" /><feComposite
         result="comp2"
         operator="over"
         in="SourceGraphic"
         in2="comp1"
         id="feComposite13" /></filter><filter
       style="color-interpolation-filters:sRGB"
       inkscape:label="Drop Shadow"
       id="filter30535"
       x="-0.025"
       y="-0.033333331"
       width="1.1"
       height="1.1333333"><feFlood
         result="flood"
         in="SourceGraphic"
         flood-opacity="1.000000"
         flood-color="rgb(0,0,0)"
         id="feFlood30525" /><feGaussianBlur
         result="blur"
         in="SourceGraphic"
         stdDeviation="0.000000"
         id="feGaussianBlur30527" /><feOffset
         result="offset"
         in="blur"
         dx="2"
         dy="2"
         id="feOffset30529" /><feComposite
         result="comp1"
         operator="in"
         in="flood"
         in2="offset"
         id="feComposite30531" /><feComposite
         result="comp2"
         operator="over"
         in="SourceGraphic"
         in2="comp1"
         id="feComposite30533" /></filter><filter
       style="color-interpolation-filters:sRGB"
       inkscape:label="Drop Shadow"
       id="filter30547"
       x="-0.025"
       y="-0.033333331"
       width="1.1"
       height="1.1333333"><feFlood
         result="flood"
         in="SourceGraphic"
         flood-opacity="1.000000"
         flood-color="rgb(0,0,0)"
         id="feFlood30537" /><feGaussianBlur
         result="blur"
         in="SourceGraphic"
         stdDeviation="0.000000"
         id="feGaussianBlur30539" /><feOffset
         result="offset"
         in="blur"
         dx="2"
         dy="2"
         id="feOffset30541" /><feComposite
         result="comp1"
         operator="in"
         in="flood"
         in2="offset"
         id="feComposite30543" /><feComposite
         result="comp2"
         operator="over"
         in="SourceGraphic"
         in2="comp1"
         id="feComposite30545" /></filter></defs><g
     inkscape:label="Layer 1"
     inkscape:groupmode="layer"
     id="layer1"><rect
       style="fill:#000000;fill-opacity:1;stroke-width:4.89898;stroke-linecap:round"
       id="rect11560"
       width="96"
       height="752"
       x="0"
       y="16"
       rx="0" /><rect
       style="fill:#ffffff;fill-opacity:1;stroke-width:3.77964;stroke-linecap:round"
       id="rect12029"
       width="248"
       height="744"
       x="88"
       y="24" /><rect
       style="fill:#010101;fill-opacity:1;stroke-width:4;stroke-linecap:round"
       id="rect12083"
       width="688"
       height="752"
       x="336"
       y="16" /><rect
       style="fill:#000000;fill-opacity:1;stroke-width:4;stroke-linecap:round"
       id="rect12241"
       width="1024"
       height="24"
       x="0"
       y="0" /><path
       style="fill:#000000;fill-opacity:1;stroke:#ffffff;stroke-width:2;stroke-linecap:round;stroke-dasharray:none;stroke-opacity:1"
       d="M 0.0689627,25.166667 H 1024.069"
       id="path14624" /><rect
       style="fill:#000000;fill-opacity:1;stroke:#ffffff;stroke-width:2;stroke-linecap:butt;stroke-linejoin:miter;stroke-dasharray:none;stroke-opacity:1;filter:url(#filter17041)"
       id="rect18249"
       width="56"
       height="56"
       x="14.139535"
       y="39.883724"
       ry="16" /><g
       style="fill:#ffffff;fill-opacity:1;stroke:none;stroke-width:0.5375;stroke-dasharray:none;stroke-opacity:1"
       id="g15928"
       transform="matrix(1.8604651,0,0,1.8604651,19.813954,45.674419)"><path
         fill-rule="evenodd"
         clip-rule="evenodd"
         d="m 11.9375,1.25 h 0.125 c 2.0683,-2e-5 3.7053,-3e-5 4.986,0.19129 1.324,0.19778 2.3738,0.61352 3.191,1.52145 0.8069,0.89662 1.1671,2.02948 1.3403,3.46081 C 21.75,7.83014 21.75,9.63498 21.75,11.9478 v 0.1044 c 0,2.3128 0,4.1177 -0.1702,5.5243 -0.1732,1.4313 -0.5334,2.5641 -1.3403,3.4608 -0.8172,0.9079 -1.867,1.3236 -3.191,1.5214 -1.2807,0.1913 -2.9177,0.1913 -4.986,0.1913 h -0.125 c -2.0683,0 -3.70529,0 -4.98603,-0.1913 C 5.62747,22.3609 4.57769,21.9452 3.76055,21.0373 2.95359,20.1406 2.59338,19.0078 2.42018,17.5765 2.24998,16.1699 2.24999,14.365 2.25,12.0522 V 11.9478 C 2.24999,9.63499 2.24998,7.83014 2.42018,6.42355 2.59338,4.99222 2.95359,3.85936 3.76055,2.96274 4.57769,2.05481 5.62747,1.63907 6.95147,1.44129 8.23221,1.24997 9.86922,1.24998 11.9375,1.25 Z M 7.17309,2.92483 C 6.04626,3.09316 5.37637,3.40965 4.87549,3.96619 4.36443,4.53404 4.06563,5.31193 3.90932,6.60374 3.7513,7.90972 3.75,9.62385 3.75,12 c 0,2.3762 0.0013,4.0903 0.15932,5.3963 0.15631,1.2918 0.45511,2.0697 0.96617,2.6375 0.50088,0.5565 1.17077,0.873 2.2976,1.0414 C 8.33029,21.248 9.8552,21.25 12,21.25 c 2.1448,0 3.6697,-0.002 4.8269,-0.1748 1.1268,-0.1684 1.7967,-0.4849 2.2976,-1.0414 0.5111,-0.5678 0.8099,-1.3457 0.9662,-2.6375 C 20.2487,16.0903 20.25,14.3762 20.25,12 20.25,9.62385 20.2487,7.90972 20.0907,6.60374 19.9344,5.31193 19.6356,4.53404 19.1245,3.96619 18.6236,3.40965 17.9537,3.09316 16.8269,2.92483 15.6697,2.75196 14.1448,2.75 12,2.75 9.8552,2.75 8.33029,2.75196 7.17309,2.92483 Z M 8.91612,5.24994 C 8.9438,5.24997 8.97176,5.25 9,5.25 h 6 c 0.0282,0 0.0562,-3e-5 0.0839,-6e-5 0.3808,-4e-4 0.7093,-7.5e-4 0.9984,0.07673 0.7765,0.20805 1.383,0.81453 1.591,1.59099 0.0775,0.28914 0.0772,0.61767 0.0768,0.99846 C 17.75,7.9438 17.75,7.97176 17.75,8 c 0,0.02824 0,0.0562 10e-5,0.08389 4e-4,0.38079 7e-4,0.70931 -0.0768,0.99845 -0.208,0.77646 -0.8145,1.38296 -1.591,1.59096 -0.2891,0.0775 -0.6176,0.0772 -0.9984,0.0768 C 15.0562,10.75 15.0282,10.75 15,10.75 H 9 c -0.02824,0 -0.0562,0 -0.08388,10e-5 -0.38079,4e-4 -0.70932,7e-4 -0.99846,-0.0768 C 7.1412,10.4653 6.53472,9.8588 6.32667,9.08234 6.24919,8.7932 6.24954,8.46468 6.24994,8.08389 6.24997,8.0562 6.25,8.02824 6.25,8 6.25,7.97176 6.24997,7.9438 6.24994,7.91612 6.24954,7.53533 6.24919,7.2068 6.32667,6.91766 6.53472,6.1412 7.1412,5.53472 7.91766,5.32667 8.2068,5.24919 8.53533,5.24954 8.91612,5.24994 Z M 9,6.75 C 8.48673,6.75 8.37722,6.75644 8.30589,6.77556 8.04707,6.84491 7.84491,7.04707 7.77556,7.30589 7.75644,7.37722 7.75,7.48673 7.75,8 7.75,8.51327 7.75644,8.62278 7.77556,8.69412 7.84491,8.95293 8.04707,9.1551 8.30589,9.22445 8.37722,9.24356 8.48673,9.25 9,9.25 h 6 c 0.5133,0 0.6228,-0.00644 0.6941,-0.02555 C 15.9529,9.1551 16.1551,8.95293 16.2244,8.69412 16.2436,8.62278 16.25,8.51327 16.25,8 16.25,7.48673 16.2436,7.37722 16.2244,7.30589 16.1551,7.04707 15.9529,6.84491 15.6941,6.77556 15.6228,6.75644 15.5133,6.75 15,6.75 Z m -0.5,6.5 c 0.41421,0 0.75,0.3358 0.75,0.75 v 0.75 H 10 c 0.4142,0 0.75,0.3358 0.75,0.75 0,0.4142 -0.3358,0.75 -0.75,0.75 H 9.25 V 17 c 0,0.4142 -0.33579,0.75 -0.75,0.75 C 8.08579,17.75 7.75,17.4142 7.75,17 V 16.25 H 7 C 6.58579,16.25 6.25,15.9142 6.25,15.5 6.25,15.0858 6.58579,14.75 7,14.75 H 7.75 V 14 c 0,-0.4142 0.33579,-0.75 0.75,-0.75 z"
         fill="#000000"
         id="path15907"
         style="fill:#ffffff;fill-opacity:1;stroke:none;stroke-width:0.5375;stroke-dasharray:none;stroke-opacity:1" /><path
         d="m 16.3333,13.8333 c 0,0.4603 -0.3731,0.8334 -0.8333,0.8334 -0.4602,0 -0.8333,-0.3731 -0.8333,-0.8334 C 14.6667,13.3731 15.0398,13 15.5,13 c 0.4602,0 0.8333,0.3731 0.8333,0.8333 z"
         fill="#000000"
         id="path15909"
         style="fill:#ffffff;fill-opacity:1;stroke:none;stroke-width:0.5375;stroke-dasharray:none;stroke-opacity:1" /><path
         d="M 16.3333,17.1667 C 16.3333,17.6269 15.9602,18 15.5,18 c -0.4602,0 -0.8333,-0.3731 -0.8333,-0.8333 0,-0.4603 0.3731,-0.8334 0.8333,-0.8334 0.4602,0 0.8333,0.3731 0.8333,0.8334 z"
         fill="#000000"
         id="path15911"
         style="fill:#ffffff;fill-opacity:1;stroke:none;stroke-width:0.5375;stroke-dasharray:none;stroke-opacity:1" /><path
         d="m 14.6667,15.5 c 0,0.4602 -0.3731,0.8333 -0.8334,0.8333 C 13.3731,16.3333 13,15.9602 13,15.5 c 0,-0.4602 0.3731,-0.8333 0.8333,-0.8333 0.4603,0 0.8334,0.3731 0.8334,0.8333 z"
         fill="#000000"
         id="path15913"
         style="fill:#ffffff;fill-opacity:1;stroke:none;stroke-width:0.5375;stroke-dasharray:none;stroke-opacity:1" /><path
         d="m 18,15.5 c 0,0.4602 -0.3731,0.8333 -0.8333,0.8333 -0.4603,0 -0.8334,-0.3731 -0.8334,-0.8333 0,-0.4602 0.3731,-0.8333 0.8334,-0.8333 0.4602,0 0.8333,0.3731 0.8333,0.8333 z"
         fill="#000000"
         id="path15915"
         style="fill:#ffffff;fill-opacity:1;stroke:none;stroke-width:0.5375;stroke-dasharray:none;stroke-opacity:1" /></g><rect
       style="fill:#000000;fill-opacity:1;stroke:#ffffff;stroke-width:2;stroke-linecap:butt;stroke-linejoin:miter;stroke-dasharray:none;stroke-opacity:1;filter:url(#filter18283)"
       id="rect18259"
       width="56"
       height="56"
       x="10.139534"
       y="112"
       ry="16" /><g
       style="fill:#ffffff;fill-opacity:1;stroke:none;stroke-width:0.5375;stroke-dasharray:none;stroke-opacity:1"
       id="g18271"
       transform="matrix(1.8604651,0,0,1.8604651,15.813954,117.79071)"><path
         fill-rule="evenodd"
         clip-rule="evenodd"
         d="m 11.9375,1.25 h 0.125 c 2.0683,-2e-5 3.7053,-3e-5 4.986,0.19129 1.324,0.19778 2.3738,0.61352 3.191,1.52145 0.8069,0.89662 1.1671,2.02948 1.3403,3.46081 C 21.75,7.83014 21.75,9.63498 21.75,11.9478 v 0.1044 c 0,2.3128 0,4.1177 -0.1702,5.5243 -0.1732,1.4313 -0.5334,2.5641 -1.3403,3.4608 -0.8172,0.9079 -1.867,1.3236 -3.191,1.5214 -1.2807,0.1913 -2.9177,0.1913 -4.986,0.1913 h -0.125 c -2.0683,0 -3.70529,0 -4.98603,-0.1913 C 5.62747,22.3609 4.57769,21.9452 3.76055,21.0373 2.95359,20.1406 2.59338,19.0078 2.42018,17.5765 2.24998,16.1699 2.24999,14.365 2.25,12.0522 V 11.9478 C 2.24999,9.63499 2.24998,7.83014 2.42018,6.42355 2.59338,4.99222 2.95359,3.85936 3.76055,2.96274 4.57769,2.05481 5.62747,1.63907 6.95147,1.44129 8.23221,1.24997 9.86922,1.24998 11.9375,1.25 Z M 7.17309,2.92483 C 6.04626,3.09316 5.37637,3.40965 4.87549,3.96619 4.36443,4.53404 4.06563,5.31193 3.90932,6.60374 3.7513,7.90972 3.75,9.62385 3.75,12 c 0,2.3762 0.0013,4.0903 0.15932,5.3963 0.15631,1.2918 0.45511,2.0697 0.96617,2.6375 0.50088,0.5565 1.17077,0.873 2.2976,1.0414 C 8.33029,21.248 9.8552,21.25 12,21.25 c 2.1448,0 3.6697,-0.002 4.8269,-0.1748 1.1268,-0.1684 1.7967,-0.4849 2.2976,-1.0414 0.5111,-0.5678 0.8099,-1.3457 0.9662,-2.6375 C 20.2487,16.0903 20.25,14.3762 20.25,12 20.25,9.62385 20.2487,7.90972 20.0907,6.60374 19.9344,5.31193 19.6356,4.53404 19.1245,3.96619 18.6236,3.40965 17.9537,3.09316 16.8269,2.92483 15.6697,2.75196 14.1448,2.75 12,2.75 9.8552,2.75 8.33029,2.75196 7.17309,2.92483 Z M 8.91612,5.24994 C 8.9438,5.24997 8.97176,5.25 9,5.25 h 6 c 0.0282,0 0.0562,-3e-5 0.0839,-6e-5 0.3808,-4e-4 0.7093,-7.5e-4 0.9984,0.07673 0.7765,0.20805 1.383,0.81453 1.591,1.59099 0.0775,0.28914 0.0772,0.61767 0.0768,0.99846 C 17.75,7.9438 17.75,7.97176 17.75,8 c 0,0.02824 0,0.0562 10e-5,0.08389 4e-4,0.38079 7e-4,0.70931 -0.0768,0.99845 -0.208,0.77646 -0.8145,1.38296 -1.591,1.59096 -0.2891,0.0775 -0.6176,0.0772 -0.9984,0.0768 C 15.0562,10.75 15.0282,10.75 15,10.75 H 9 c -0.02824,0 -0.0562,0 -0.08388,10e-5 -0.38079,4e-4 -0.70932,7e-4 -0.99846,-0.0768 C 7.1412,10.4653 6.53472,9.8588 6.32667,9.08234 6.24919,8.7932 6.24954,8.46468 6.24994,8.08389 6.24997,8.0562 6.25,8.02824 6.25,8 6.25,7.97176 6.24997,7.9438 6.24994,7.91612 6.24954,7.53533 6.24919,7.2068 6.32667,6.91766 6.53472,6.1412 7.1412,5.53472 7.91766,5.32667 8.2068,5.24919 8.53533,5.24954 8.91612,5.24994 Z M 9,6.75 C 8.48673,6.75 8.37722,6.75644 8.30589,6.77556 8.04707,6.84491 7.84491,7.04707 7.77556,7.30589 7.75644,7.37722 7.75,7.48673 7.75,8 7.75,8.51327 7.75644,8.62278 7.77556,8.69412 7.84491,8.95293 8.04707,9.1551 8.30589,9.22445 8.37722,9.24356 8.48673,9.25 9,9.25 h 6 c 0.5133,0 0.6228,-0.00644 0.6941,-0.02555 C 15.9529,9.1551 16.1551,8.95293 16.2244,8.69412 16.2436,8.62278 16.25,8.51327 16.25,8 16.25,7.48673 16.2436,7.37722 16.2244,7.30589 16.1551,7.04707 15.9529,6.84491 15.6941,6.77556 15.6228,6.75644 15.5133,6.75 15,6.75 Z m -0.5,6.5 c 0.41421,0 0.75,0.3358 0.75,0.75 v 0.75 H 10 c 0.4142,0 0.75,0.3358 0.75,0.75 0,0.4142 -0.3358,0.75 -0.75,0.75 H 9.25 V 17 c 0,0.4142 -0.33579,0.75 -0.75,0.75 C 8.08579,17.75 7.75,17.4142 7.75,17 V 16.25 H 7 C 6.58579,16.25 6.25,15.9142 6.25,15.5 6.25,15.0858 6.58579,14.75 7,14.75 H 7.75 V 14 c 0,-0.4142 0.33579,-0.75 0.75,-0.75 z"
         fill="#000000"
         id="path18261"
         style="fill:#ffffff;fill-opacity:1;stroke:none;stroke-width:0.5375;stroke-dasharray:none;stroke-opacity:1" /><path
         d="m 16.3333,13.8333 c 0,0.4603 -0.3731,0.8334 -0.8333,0.8334 -0.4602,0 -0.8333,-0.3731 -0.8333,-0.8334 C 14.6667,13.3731 15.0398,13 15.5,13 c 0.4602,0 0.8333,0.3731 0.8333,0.8333 z"
         fill="#000000"
         id="path18263"
         style="fill:#ffffff;fill-opacity:1;stroke:none;stroke-width:0.5375;stroke-dasharray:none;stroke-opacity:1" /><path
         d="M 16.3333,17.1667 C 16.3333,17.6269 15.9602,18 15.5,18 c -0.4602,0 -0.8333,-0.3731 -0.8333,-0.8333 0,-0.4603 0.3731,-0.8334 0.8333,-0.8334 0.4602,0 0.8333,0.3731 0.8333,0.8334 z"
         fill="#000000"
         id="path18265"
         style="fill:#ffffff;fill-opacity:1;stroke:none;stroke-width:0.5375;stroke-dasharray:none;stroke-opacity:1" /><path
         d="m 14.6667,15.5 c 0,0.4602 -0.3731,0.8333 -0.8334,0.8333 C 13.3731,16.3333 13,15.9602 13,15.5 c 0,-0.4602 0.3731,-0.8333 0.8333,-0.8333 0.4603,0 0.8334,0.3731 0.8334,0.8333 z"
         fill="#000000"
         id="path18267"
         style="fill:#ffffff;fill-opacity:1;stroke:none;stroke-width:0.5375;stroke-dasharray:none;stroke-opacity:1" /><path
         d="m 18,15.5 c 0,0.4602 -0.3731,0.8333 -0.8333,0.8333 -0.4603,0 -0.8334,-0.3731 -0.8334,-0.8333 0,-0.4602 0.3731,-0.8333 0.8334,-0.8333 0.4602,0 0.8333,0.3731 0.8333,0.8333 z"
         fill="#000000"
         id="path18269"
         style="fill:#ffffff;fill-opacity:1;stroke:none;stroke-width:0.5375;stroke-dasharray:none;stroke-opacity:1" /></g><rect
       style="fill:#000000;fill-opacity:1;stroke:#ffffff;stroke-width:2;stroke-linecap:butt;stroke-linejoin:miter;stroke-dasharray:none;stroke-opacity:1"
       id="rect20080"
       width="56"
       height="56"
       x="14.139535"
       y="192"
       ry="16" /><g
       style="fill:#ffffff;fill-opacity:1;stroke:none;stroke-width:0.5375;stroke-dasharray:none;stroke-opacity:1"
       id="g20092"
       transform="matrix(1.8604651,0,0,1.8604651,21.813954,199.99999)"><path
         fill-rule="evenodd"
         clip-rule="evenodd"
         d="m 11.9375,1.25 h 0.125 c 2.0683,-2e-5 3.7053,-3e-5 4.986,0.19129 1.324,0.19778 2.3738,0.61352 3.191,1.52145 0.8069,0.89662 1.1671,2.02948 1.3403,3.46081 C 21.75,7.83014 21.75,9.63498 21.75,11.9478 v 0.1044 c 0,2.3128 0,4.1177 -0.1702,5.5243 -0.1732,1.4313 -0.5334,2.5641 -1.3403,3.4608 -0.8172,0.9079 -1.867,1.3236 -3.191,1.5214 -1.2807,0.1913 -2.9177,0.1913 -4.986,0.1913 h -0.125 c -2.0683,0 -3.70529,0 -4.98603,-0.1913 C 5.62747,22.3609 4.57769,21.9452 3.76055,21.0373 2.95359,20.1406 2.59338,19.0078 2.42018,17.5765 2.24998,16.1699 2.24999,14.365 2.25,12.0522 V 11.9478 C 2.24999,9.63499 2.24998,7.83014 2.42018,6.42355 2.59338,4.99222 2.95359,3.85936 3.76055,2.96274 4.57769,2.05481 5.62747,1.63907 6.95147,1.44129 8.23221,1.24997 9.86922,1.24998 11.9375,1.25 Z M 7.17309,2.92483 C 6.04626,3.09316 5.37637,3.40965 4.87549,3.96619 4.36443,4.53404 4.06563,5.31193 3.90932,6.60374 3.7513,7.90972 3.75,9.62385 3.75,12 c 0,2.3762 0.0013,4.0903 0.15932,5.3963 0.15631,1.2918 0.45511,2.0697 0.96617,2.6375 0.50088,0.5565 1.17077,0.873 2.2976,1.0414 C 8.33029,21.248 9.8552,21.25 12,21.25 c 2.1448,0 3.6697,-0.002 4.8269,-0.1748 1.1268,-0.1684 1.7967,-0.4849 2.2976,-1.0414 0.5111,-0.5678 0.8099,-1.3457 0.9662,-2.6375 C 20.2487,16.0903 20.25,14.3762 20.25,12 20.25,9.62385 20.2487,7.90972 20.0907,6.60374 19.9344,5.31193 19.6356,4.53404 19.1245,3.96619 18.6236,3.40965 17.9537,3.09316 16.8269,2.92483 15.6697,2.75196 14.1448,2.75 12,2.75 9.8552,2.75 8.33029,2.75196 7.17309,2.92483 Z M 8.91612,5.24994 C 8.9438,5.24997 8.97176,5.25 9,5.25 h 6 c 0.0282,0 0.0562,-3e-5 0.0839,-6e-5 0.3808,-4e-4 0.7093,-7.5e-4 0.9984,0.07673 0.7765,0.20805 1.383,0.81453 1.591,1.59099 0.0775,0.28914 0.0772,0.61767 0.0768,0.99846 C 17.75,7.9438 17.75,7.97176 17.75,8 c 0,0.02824 0,0.0562 10e-5,0.08389 4e-4,0.38079 7e-4,0.70931 -0.0768,0.99845 -0.208,0.77646 -0.8145,1.38296 -1.591,1.59096 -0.2891,0.0775 -0.6176,0.0772 -0.9984,0.0768 C 15.0562,10.75 15.0282,10.75 15,10.75 H 9 c -0.02824,0 -0.0562,0 -0.08388,10e-5 -0.38079,4e-4 -0.70932,7e-4 -0.99846,-0.0768 C 7.1412,10.4653 6.53472,9.8588 6.32667,9.08234 6.24919,8.7932 6.24954,8.46468 6.24994,8.08389 6.24997,8.0562 6.25,8.02824 6.25,8 6.25,7.97176 6.24997,7.9438 6.24994,7.91612 6.24954,7.53533 6.24919,7.2068 6.32667,6.91766 6.53472,6.1412 7.1412,5.53472 7.91766,5.32667 8.2068,5.24919 8.53533,5.24954 8.91612,5.24994 Z M 9,6.75 C 8.48673,6.75 8.37722,6.75644 8.30589,6.77556 8.04707,6.84491 7.84491,7.04707 7.77556,7.30589 7.75644,7.37722 7.75,7.48673 7.75,8 7.75,8.51327 7.75644,8.62278 7.77556,8.69412 7.84491,8.95293 8.04707,9.1551 8.30589,9.22445 8.37722,9.24356 8.48673,9.25 9,9.25 h 6 c 0.5133,0 0.6228,-0.00644 0.6941,-0.02555 C 15.9529,9.1551 16.1551,8.95293 16.2244,8.69412 16.2436,8.62278 16.25,8.51327 16.25,8 16.25,7.48673 16.2436,7.37722 16.2244,7.30589 16.1551,7.04707 15.9529,6.84491 15.6941,6.77556 15.6228,6.75644 15.5133,6.75 15,6.75 Z m -0.5,6.5 c 0.41421,0 0.75,0.3358 0.75,0.75 v 0.75 H 10 c 0.4142,0 0.75,0.3358 0.75,0.75 0,0.4142 -0.3358,0.75 -0.75,0.75 H 9.25 V 17 c 0,0.4142 -0.33579,0.75 -0.75,0.75 C 8.08579,17.75 7.75,17.4142 7.75,17 V 16.25 H 7 C 6.58579,16.25 6.25,15.9142 6.25,15.5 6.25,15.0858 6.58579,14.75 7,14.75 H 7.75 V 14 c 0,-0.4142 0.33579,-0.75 0.75,-0.75 z"
         fill="#000000"
         id="path20082"
         style="fill:#ffffff;fill-opacity:1;stroke:none;stroke-width:0.5375;stroke-dasharray:none;stroke-opacity:1" /><path
         d="m 16.3333,13.8333 c 0,0.4603 -0.3731,0.8334 -0.8333,0.8334 -0.4602,0 -0.8333,-0.3731 -0.8333,-0.8334 C 14.6667,13.3731 15.0398,13 15.5,13 c 0.4602,0 0.8333,0.3731 0.8333,0.8333 z"
         fill="#000000"
         id="path20084"
         style="fill:#ffffff;fill-opacity:1;stroke:none;stroke-width:0.5375;stroke-dasharray:none;stroke-opacity:1" /><path
         d="M 16.3333,17.1667 C 16.3333,17.6269 15.9602,18 15.5,18 c -0.4602,0 -0.8333,-0.3731 -0.8333,-0.8333 0,-0.4603 0.3731,-0.8334 0.8333,-0.8334 0.4602,0 0.8333,0.3731 0.8333,0.8334 z"
         fill="#000000"
         id="path20086"
         style="fill:#ffffff;fill-opacity:1;stroke:none;stroke-width:0.5375;stroke-dasharray:none;stroke-opacity:1" /><path
         d="m 14.6667,15.5 c 0,0.4602 -0.3731,0.8333 -0.8334,0.8333 C 13.3731,16.3333 13,15.9602 13,15.5 c 0,-0.4602 0.3731,-0.8333 0.8333,-0.8333 0.4603,0 0.8334,0.3731 0.8334,0.8333 z"
         fill="#000000"
         id="path20088"
         style="fill:#ffffff;fill-opacity:1;stroke:none;stroke-width:0.5375;stroke-dasharray:none;stroke-opacity:1" /><path
         d="m 18,15.5 c 0,0.4602 -0.3731,0.8333 -0.8333,0.8333 -0.4603,0 -0.8334,-0.3731 -0.8334,-0.8333 0,-0.4602 0.3731,-0.8333 0.8334,-0.8333 0.4602,0 0.8333,0.3731 0.8333,0.8333 z"
         fill="#000000"
         id="path20090"
         style="fill:#ffffff;fill-opacity:1;stroke:none;stroke-width:0.5375;stroke-dasharray:none;stroke-opacity:1" /></g><path
       id="rect20870"
       style="fill:#fdfdfd;fill-opacity:1;stroke:none;stroke-width:2;stroke-linecap:butt;stroke-linejoin:miter;stroke-dasharray:none;stroke-opacity:1"
       d="m 30.139535,191.99908 c -8.863991,0 -16,7.13601 -16,16 v 24 c 0,5.11166 2.380743,9.63924 6.089844,12.56446 -1.936035,-2.64598 -3.089844,-5.90305 -3.089844,-9.44727 v -24 c 0,-8.86399 7.136009,-16 16,-16 h 24 c 3.751352,0 7.185782,1.28729 9.908203,3.43359 -2.906088,-3.97 -7.58964,-6.55078 -12.908203,-6.55078 z" /><rect
       style="fill:#000000;fill-opacity:1;stroke:#ffffff;stroke-width:2;stroke-linecap:butt;stroke-linejoin:miter;stroke-dasharray:none;stroke-opacity:1"
       id="rect20875"
       width="56"
       height="56"
       x="14.139535"
       y="264"
       ry="16" /><g
       style="fill:#ffffff;fill-opacity:1;stroke:none;stroke-width:0.5375;stroke-dasharray:none;stroke-opacity:1"
       id="g20887"
       transform="matrix(1.8604651,0,0,1.8604651,19.813954,269.7907)"><path
         fill-rule="evenodd"
         clip-rule="evenodd"
         d="m 11.9375,1.25 h 0.125 c 2.0683,-2e-5 3.7053,-3e-5 4.986,0.19129 1.324,0.19778 2.3738,0.61352 3.191,1.52145 0.8069,0.89662 1.1671,2.02948 1.3403,3.46081 C 21.75,7.83014 21.75,9.63498 21.75,11.9478 v 0.1044 c 0,2.3128 0,4.1177 -0.1702,5.5243 -0.1732,1.4313 -0.5334,2.5641 -1.3403,3.4608 -0.8172,0.9079 -1.867,1.3236 -3.191,1.5214 -1.2807,0.1913 -2.9177,0.1913 -4.986,0.1913 h -0.125 c -2.0683,0 -3.70529,0 -4.98603,-0.1913 C 5.62747,22.3609 4.57769,21.9452 3.76055,21.0373 2.95359,20.1406 2.59338,19.0078 2.42018,17.5765 2.24998,16.1699 2.24999,14.365 2.25,12.0522 V 11.9478 C 2.24999,9.63499 2.24998,7.83014 2.42018,6.42355 2.59338,4.99222 2.95359,3.85936 3.76055,2.96274 4.57769,2.05481 5.62747,1.63907 6.95147,1.44129 8.23221,1.24997 9.86922,1.24998 11.9375,1.25 Z M 7.17309,2.92483 C 6.04626,3.09316 5.37637,3.40965 4.87549,3.96619 4.36443,4.53404 4.06563,5.31193 3.90932,6.60374 3.7513,7.90972 3.75,9.62385 3.75,12 c 0,2.3762 0.0013,4.0903 0.15932,5.3963 0.15631,1.2918 0.45511,2.0697 0.96617,2.6375 0.50088,0.5565 1.17077,0.873 2.2976,1.0414 C 8.33029,21.248 9.8552,21.25 12,21.25 c 2.1448,0 3.6697,-0.002 4.8269,-0.1748 1.1268,-0.1684 1.7967,-0.4849 2.2976,-1.0414 0.5111,-0.5678 0.8099,-1.3457 0.9662,-2.6375 C 20.2487,16.0903 20.25,14.3762 20.25,12 20.25,9.62385 20.2487,7.90972 20.0907,6.60374 19.9344,5.31193 19.6356,4.53404 19.1245,3.96619 18.6236,3.40965 17.9537,3.09316 16.8269,2.92483 15.6697,2.75196 14.1448,2.75 12,2.75 9.8552,2.75 8.33029,2.75196 7.17309,2.92483 Z M 8.91612,5.24994 C 8.9438,5.24997 8.97176,5.25 9,5.25 h 6 c 0.0282,0 0.0562,-3e-5 0.0839,-6e-5 0.3808,-4e-4 0.7093,-7.5e-4 0.9984,0.07673 0.7765,0.20805 1.383,0.81453 1.591,1.59099 0.0775,0.28914 0.0772,0.61767 0.0768,0.99846 C 17.75,7.9438 17.75,7.97176 17.75,8 c 0,0.02824 0,0.0562 10e-5,0.08389 4e-4,0.38079 7e-4,0.70931 -0.0768,0.99845 -0.208,0.77646 -0.8145,1.38296 -1.591,1.59096 -0.2891,0.0775 -0.6176,0.0772 -0.9984,0.0768 C 15.0562,10.75 15.0282,10.75 15,10.75 H 9 c -0.02824,0 -0.0562,0 -0.08388,10e-5 -0.38079,4e-4 -0.70932,7e-4 -0.99846,-0.0768 C 7.1412,10.4653 6.53472,9.8588 6.32667,9.08234 6.24919,8.7932 6.24954,8.46468 6.24994,8.08389 6.24997,8.0562 6.25,8.02824 6.25,8 6.25,7.97176 6.24997,7.9438 6.24994,7.91612 6.24954,7.53533 6.24919,7.2068 6.32667,6.91766 6.53472,6.1412 7.1412,5.53472 7.91766,5.32667 8.2068,5.24919 8.53533,5.24954 8.91612,5.24994 Z M 9,6.75 C 8.48673,6.75 8.37722,6.75644 8.30589,6.77556 8.04707,6.84491 7.84491,7.04707 7.77556,7.30589 7.75644,7.37722 7.75,7.48673 7.75,8 7.75,8.51327 7.75644,8.62278 7.77556,8.69412 7.84491,8.95293 8.04707,9.1551 8.30589,9.22445 8.37722,9.24356 8.48673,9.25 9,9.25 h 6 c 0.5133,0 0.6228,-0.00644 0.6941,-0.02555 C 15.9529,9.1551 16.1551,8.95293 16.2244,8.69412 16.2436,8.62278 16.25,8.51327 16.25,8 16.25,7.48673 16.2436,7.37722 16.2244,7.30589 16.1551,7.04707 15.9529,6.84491 15.6941,6.77556 15.6228,6.75644 15.5133,6.75 15,6.75 Z m -0.5,6.5 c 0.41421,0 0.75,0.3358 0.75,0.75 v 0.75 H 10 c 0.4142,0 0.75,0.3358 0.75,0.75 0,0.4142 -0.3358,0.75 -0.75,0.75 H 9.25 V 17 c 0,0.4142 -0.33579,0.75 -0.75,0.75 C 8.08579,17.75 7.75,17.4142 7.75,17 V 16.25 H 7 C 6.58579,16.25 6.25,15.9142 6.25,15.5 6.25,15.0858 6.58579,14.75 7,14.75 H 7.75 V 14 c 0,-0.4142 0.33579,-0.75 0.75,-0.75 z"
         fill="#000000"
         id="path20877"
         style="fill:#ffffff;fill-opacity:1;stroke:none;stroke-width:0.5375;stroke-dasharray:none;stroke-opacity:1" /><path
         d="m 16.3333,13.8333 c 0,0.4603 -0.3731,0.8334 -0.8333,0.8334 -0.4602,0 -0.8333,-0.3731 -0.8333,-0.8334 C 14.6667,13.3731 15.0398,13 15.5,13 c 0.4602,0 0.8333,0.3731 0.8333,0.8333 z"
         fill="#000000"
         id="path20879"
         style="fill:#ffffff;fill-opacity:1;stroke:none;stroke-width:0.5375;stroke-dasharray:none;stroke-opacity:1" /><path
         d="M 16.3333,17.1667 C 16.3333,17.6269 15.9602,18 15.5,18 c -0.4602,0 -0.8333,-0.3731 -0.8333,-0.8333 0,-0.4603 0.3731,-0.8334 0.8333,-0.8334 0.4602,0 0.8333,0.3731 0.8333,0.8334 z"
         fill="#000000"
         id="path20881"
         style="fill:#ffffff;fill-opacity:1;stroke:none;stroke-width:0.5375;stroke-dasharray:none;stroke-opacity:1" /><path
         d="m 14.6667,15.5 c 0,0.4602 -0.3731,0.8333 -0.8334,0.8333 C 13.3731,16.3333 13,15.9602 13,15.5 c 0,-0.4602 0.3731,-0.8333 0.8333,-0.8333 0.4603,0 0.8334,0.3731 0.8334,0.8333 z"
         fill="#000000"
         id="path20883"
         style="fill:#ffffff;fill-opacity:1;stroke:none;stroke-width:0.5375;stroke-dasharray:none;stroke-opacity:1" /><path
         d="m 18,15.5 c 0,0.4602 -0.3731,0.8333 -0.8333,0.8333 -0.4603,0 -0.8334,-0.3731 -0.8334,-0.8333 0,-0.4602 0.3731,-0.8333 0.8334,-0.8333 0.4602,0 0.8333,0.3731 0.8333,0.8333 z"
         fill="#000000"
         id="path20885"
         style="fill:#ffffff;fill-opacity:1;stroke:none;stroke-width:0.5375;stroke-dasharray:none;stroke-opacity:1" /></g><rect
       style="fill:#000000;fill-opacity:1;stroke:#ffffff;stroke-width:2;stroke-linecap:butt;stroke-linejoin:miter;stroke-dasharray:none;stroke-opacity:1"
       id="rect21666"
       width="56"
       height="56"
       x="14.139535"
       y="336"
       ry="0.11627197" /><path
       style="fill:none;fill-opacity:1;stroke:#ffffff;stroke-width:2;stroke-linecap:round;stroke-linejoin:miter;stroke-dasharray:none;stroke-opacity:1"
       d="m 42.139535,363.11627 -28,-27"
       id="path21788"
       sodipodi:nodetypes="cc" /><path
       style="fill:none;fill-opacity:1;stroke:#ffffff;stroke-width:2;stroke-linecap:round;stroke-linejoin:miter;stroke-dasharray:none;stroke-opacity:1"
       d="m 42.139535,364.11627 -28,28"
       id="path21790"
       sodipodi:nodetypes="cc" /><path
       style="fill:none;fill-opacity:1;stroke:#ffffff;stroke-width:2;stroke-linecap:round;stroke-linejoin:miter;stroke-dasharray:none;stroke-opacity:1"
       d="m 43.139535,364.11627 27,28"
       id="path21792"
       sodipodi:nodetypes="cc" /><path
       style="fill:none;fill-opacity:1;stroke:#ffffff;stroke-width:2;stroke-linecap:round;stroke-linejoin:miter;stroke-dasharray:none;stroke-opacity:1"
       d="m 43.139535,363.11627 27,-27"
       id="path21794"
       sodipodi:nodetypes="cc" /><g
       style="fill:#ffffff;fill-opacity:1;stroke:none;stroke-width:0.5375;stroke-dasharray:none;stroke-opacity:1"
       id="g21678"
       transform="matrix(1.8604651,0,0,1.8604651,19.813954,341.79069)"><path
         fill-rule="evenodd"
         clip-rule="evenodd"
         d="m 11.9375,1.25 h 0.125 c 2.0683,-2e-5 3.7053,-3e-5 4.986,0.19129 1.324,0.19778 2.3738,0.61352 3.191,1.52145 0.8069,0.89662 1.1671,2.02948 1.3403,3.46081 C 21.75,7.83014 21.75,9.63498 21.75,11.9478 v 0.1044 c 0,2.3128 0,4.1177 -0.1702,5.5243 -0.1732,1.4313 -0.5334,2.5641 -1.3403,3.4608 -0.8172,0.9079 -1.867,1.3236 -3.191,1.5214 -1.2807,0.1913 -2.9177,0.1913 -4.986,0.1913 h -0.125 c -2.0683,0 -3.70529,0 -4.98603,-0.1913 C 5.62747,22.3609 4.57769,21.9452 3.76055,21.0373 2.95359,20.1406 2.59338,19.0078 2.42018,17.5765 2.24998,16.1699 2.24999,14.365 2.25,12.0522 V 11.9478 C 2.24999,9.63499 2.24998,7.83014 2.42018,6.42355 2.59338,4.99222 2.95359,3.85936 3.76055,2.96274 4.57769,2.05481 5.62747,1.63907 6.95147,1.44129 8.23221,1.24997 9.86922,1.24998 11.9375,1.25 Z M 7.17309,2.92483 C 6.04626,3.09316 5.37637,3.40965 4.87549,3.96619 4.36443,4.53404 4.06563,5.31193 3.90932,6.60374 3.7513,7.90972 3.75,9.62385 3.75,12 c 0,2.3762 0.0013,4.0903 0.15932,5.3963 0.15631,1.2918 0.45511,2.0697 0.96617,2.6375 0.50088,0.5565 1.17077,0.873 2.2976,1.0414 C 8.33029,21.248 9.8552,21.25 12,21.25 c 2.1448,0 3.6697,-0.002 4.8269,-0.1748 1.1268,-0.1684 1.7967,-0.4849 2.2976,-1.0414 0.5111,-0.5678 0.8099,-1.3457 0.9662,-2.6375 C 20.2487,16.0903 20.25,14.3762 20.25,12 20.25,9.62385 20.2487,7.90972 20.0907,6.60374 19.9344,5.31193 19.6356,4.53404 19.1245,3.96619 18.6236,3.40965 17.9537,3.09316 16.8269,2.92483 15.6697,2.75196 14.1448,2.75 12,2.75 9.8552,2.75 8.33029,2.75196 7.17309,2.92483 Z M 8.91612,5.24994 C 8.9438,5.24997 8.97176,5.25 9,5.25 h 6 c 0.0282,0 0.0562,-3e-5 0.0839,-6e-5 0.3808,-4e-4 0.7093,-7.5e-4 0.9984,0.07673 0.7765,0.20805 1.383,0.81453 1.591,1.59099 0.0775,0.28914 0.0772,0.61767 0.0768,0.99846 C 17.75,7.9438 17.75,7.97176 17.75,8 c 0,0.02824 0,0.0562 10e-5,0.08389 4e-4,0.38079 7e-4,0.70931 -0.0768,0.99845 -0.208,0.77646 -0.8145,1.38296 -1.591,1.59096 -0.2891,0.0775 -0.6176,0.0772 -0.9984,0.0768 C 15.0562,10.75 15.0282,10.75 15,10.75 H 9 c -0.02824,0 -0.0562,0 -0.08388,10e-5 -0.38079,4e-4 -0.70932,7e-4 -0.99846,-0.0768 C 7.1412,10.4653 6.53472,9.8588 6.32667,9.08234 6.24919,8.7932 6.24954,8.46468 6.24994,8.08389 6.24997,8.0562 6.25,8.02824 6.25,8 6.25,7.97176 6.24997,7.9438 6.24994,7.91612 6.24954,7.53533 6.24919,7.2068 6.32667,6.91766 6.53472,6.1412 7.1412,5.53472 7.91766,5.32667 8.2068,5.24919 8.53533,5.24954 8.91612,5.24994 Z M 9,6.75 C 8.48673,6.75 8.37722,6.75644 8.30589,6.77556 8.04707,6.84491 7.84491,7.04707 7.77556,7.30589 7.75644,7.37722 7.75,7.48673 7.75,8 7.75,8.51327 7.75644,8.62278 7.77556,8.69412 7.84491,8.95293 8.04707,9.1551 8.30589,9.22445 8.37722,9.24356 8.48673,9.25 9,9.25 h 6 c 0.5133,0 0.6228,-0.00644 0.6941,-0.02555 C 15.9529,9.1551 16.1551,8.95293 16.2244,8.69412 16.2436,8.62278 16.25,8.51327 16.25,8 16.25,7.48673 16.2436,7.37722 16.2244,7.30589 16.1551,7.04707 15.9529,6.84491 15.6941,6.77556 15.6228,6.75644 15.5133,6.75 15,6.75 Z m -0.5,6.5 c 0.41421,0 0.75,0.3358 0.75,0.75 v 0.75 H 10 c 0.4142,0 0.75,0.3358 0.75,0.75 0,0.4142 -0.3358,0.75 -0.75,0.75 H 9.25 V 17 c 0,0.4142 -0.33579,0.75 -0.75,0.75 C 8.08579,17.75 7.75,17.4142 7.75,17 V 16.25 H 7 C 6.58579,16.25 6.25,15.9142 6.25,15.5 6.25,15.0858 6.58579,14.75 7,14.75 H 7.75 V 14 c 0,-0.4142 0.33579,-0.75 0.75,-0.75 z"
         fill="#000000"
         id="path21668"
         style="fill:#ffffff;fill-opacity:1;stroke:none;stroke-width:0.5375;stroke-dasharray:none;stroke-opacity:1" /><path
         d="m 16.3333,13.8333 c 0,0.4603 -0.3731,0.8334 -0.8333,0.8334 -0.4602,0 -0.8333,-0.3731 -0.8333,-0.8334 C 14.6667,13.3731 15.0398,13 15.5,13 c 0.4602,0 0.8333,0.3731 0.8333,0.8333 z"
         fill="#000000"
         id="path21670"
         style="fill:#ffffff;fill-opacity:1;stroke:none;stroke-width:0.5375;stroke-dasharray:none;stroke-opacity:1" /><path
         d="M 16.3333,17.1667 C 16.3333,17.6269 15.9602,18 15.5,18 c -0.4602,0 -0.8333,-0.3731 -0.8333,-0.8333 0,-0.4603 0.3731,-0.8334 0.8333,-0.8334 0.4602,0 0.8333,0.3731 0.8333,0.8334 z"
         fill="#000000"
         id="path21672"
         style="fill:#ffffff;fill-opacity:1;stroke:none;stroke-width:0.5375;stroke-dasharray:none;stroke-opacity:1" /><path
         d="m 14.6667,15.5 c 0,0.4602 -0.3731,0.8333 -0.8334,0.8333 C 13.3731,16.3333 13,15.9602 13,15.5 c 0,-0.4602 0.3731,-0.8333 0.8333,-0.8333 0.4603,0 0.8334,0.3731 0.8334,0.8333 z"
         fill="#000000"
         id="path21674"
         style="fill:#ffffff;fill-opacity:1;stroke:none;stroke-width:0.5375;stroke-dasharray:none;stroke-opacity:1" /><path
         d="m 18,15.5 c 0,0.4602 -0.3731,0.8333 -0.8333,0.8333 -0.4603,0 -0.8334,-0.3731 -0.8334,-0.8333 0,-0.4602 0.3731,-0.8333 0.8334,-0.8333 0.4602,0 0.8333,0.3731 0.8333,0.8333 z"
         fill="#000000"
         id="path21676"
         style="fill:#ffffff;fill-opacity:1;stroke:none;stroke-width:0.5375;stroke-dasharray:none;stroke-opacity:1" /></g><g
       style="fill:#020202;fill-opacity:1;stroke:none;stroke-width:0.5375;stroke-dasharray:none;stroke-opacity:1"
       id="g21873"
       transform="matrix(6.8654359,0,0,6.8654359,90.745731,35.88518)"><path
         fill-rule="evenodd"
         clip-rule="evenodd"
         d="m 11.9375,1.25 h 0.125 c 2.0683,-2e-5 3.7053,-3e-5 4.986,0.19129 1.324,0.19778 2.3738,0.61352 3.191,1.52145 0.8069,0.89662 1.1671,2.02948 1.3403,3.46081 C 21.75,7.83014 21.75,9.63498 21.75,11.9478 v 0.1044 c 0,2.3128 0,4.1177 -0.1702,5.5243 -0.1732,1.4313 -0.5334,2.5641 -1.3403,3.4608 -0.8172,0.9079 -1.867,1.3236 -3.191,1.5214 -1.2807,0.1913 -2.9177,0.1913 -4.986,0.1913 h -0.125 c -2.0683,0 -3.70529,0 -4.98603,-0.1913 C 5.62747,22.3609 4.57769,21.9452 3.76055,21.0373 2.95359,20.1406 2.59338,19.0078 2.42018,17.5765 2.24998,16.1699 2.24999,14.365 2.25,12.0522 V 11.9478 C 2.24999,9.63499 2.24998,7.83014 2.42018,6.42355 2.59338,4.99222 2.95359,3.85936 3.76055,2.96274 4.57769,2.05481 5.62747,1.63907 6.95147,1.44129 8.23221,1.24997 9.86922,1.24998 11.9375,1.25 Z M 7.17309,2.92483 C 6.04626,3.09316 5.37637,3.40965 4.87549,3.96619 4.36443,4.53404 4.06563,5.31193 3.90932,6.60374 3.7513,7.90972 3.75,9.62385 3.75,12 c 0,2.3762 0.0013,4.0903 0.15932,5.3963 0.15631,1.2918 0.45511,2.0697 0.96617,2.6375 0.50088,0.5565 1.17077,0.873 2.2976,1.0414 C 8.33029,21.248 9.8552,21.25 12,21.25 c 2.1448,0 3.6697,-0.002 4.8269,-0.1748 1.1268,-0.1684 1.7967,-0.4849 2.2976,-1.0414 0.5111,-0.5678 0.8099,-1.3457 0.9662,-2.6375 C 20.2487,16.0903 20.25,14.3762 20.25,12 20.25,9.62385 20.2487,7.90972 20.0907,6.60374 19.9344,5.31193 19.6356,4.53404 19.1245,3.96619 18.6236,3.40965 17.9537,3.09316 16.8269,2.92483 15.6697,2.75196 14.1448,2.75 12,2.75 9.8552,2.75 8.33029,2.75196 7.17309,2.92483 Z M 8.91612,5.24994 C 8.9438,5.24997 8.97176,5.25 9,5.25 h 6 c 0.0282,0 0.0562,-3e-5 0.0839,-6e-5 0.3808,-4e-4 0.7093,-7.5e-4 0.9984,0.07673 0.7765,0.20805 1.383,0.81453 1.591,1.59099 0.0775,0.28914 0.0772,0.61767 0.0768,0.99846 C 17.75,7.9438 17.75,7.97176 17.75,8 c 0,0.02824 0,0.0562 10e-5,0.08389 4e-4,0.38079 7e-4,0.70931 -0.0768,0.99845 -0.208,0.77646 -0.8145,1.38296 -1.591,1.59096 -0.2891,0.0775 -0.6176,0.0772 -0.9984,0.0768 C 15.0562,10.75 15.0282,10.75 15,10.75 H 9 c -0.02824,0 -0.0562,0 -0.08388,10e-5 -0.38079,4e-4 -0.70932,7e-4 -0.99846,-0.0768 C 7.1412,10.4653 6.53472,9.8588 6.32667,9.08234 6.24919,8.7932 6.24954,8.46468 6.24994,8.08389 6.24997,8.0562 6.25,8.02824 6.25,8 6.25,7.97176 6.24997,7.9438 6.24994,7.91612 6.24954,7.53533 6.24919,7.2068 6.32667,6.91766 6.53472,6.1412 7.1412,5.53472 7.91766,5.32667 8.2068,5.24919 8.53533,5.24954 8.91612,5.24994 Z M 9,6.75 C 8.48673,6.75 8.37722,6.75644 8.30589,6.77556 8.04707,6.84491 7.84491,7.04707 7.77556,7.30589 7.75644,7.37722 7.75,7.48673 7.75,8 7.75,8.51327 7.75644,8.62278 7.77556,8.69412 7.84491,8.95293 8.04707,9.1551 8.30589,9.22445 8.37722,9.24356 8.48673,9.25 9,9.25 h 6 c 0.5133,0 0.6228,-0.00644 0.6941,-0.02555 C 15.9529,9.1551 16.1551,8.95293 16.2244,8.69412 16.2436,8.62278 16.25,8.51327 16.25,8 16.25,7.48673 16.2436,7.37722 16.2244,7.30589 16.1551,7.04707 15.9529,6.84491 15.6941,6.77556 15.6228,6.75644 15.5133,6.75 15,6.75 Z m -0.5,6.5 c 0.41421,0 0.75,0.3358 0.75,0.75 v 0.75 H 10 c 0.4142,0 0.75,0.3358 0.75,0.75 0,0.4142 -0.3358,0.75 -0.75,0.75 H 9.25 V 17 c 0,0.4142 -0.33579,0.75 -0.75,0.75 C 8.08579,17.75 7.75,17.4142 7.75,17 V 16.25 H 7 C 6.58579,16.25 6.25,15.9142 6.25,15.5 6.25,15.0858 6.58579,14.75 7,14.75 H 7.75 V 14 c 0,-0.4142 0.33579,-0.75 0.75,-0.75 z"
         fill="#000000"
         id="path21863"
         style="fill:#020202;fill-opacity:1;stroke:none;stroke-width:0.5375;stroke-dasharray:none;stroke-opacity:1" /><path
         d="m 16.3333,13.8333 c 0,0.4603 -0.3731,0.8334 -0.8333,0.8334 -0.4602,0 -0.8333,-0.3731 -0.8333,-0.8334 C 14.6667,13.3731 15.0398,13 15.5,13 c 0.4602,0 0.8333,0.3731 0.8333,0.8333 z"
         fill="#000000"
         id="path21865"
         style="fill:#020202;fill-opacity:1;stroke:none;stroke-width:0.5375;stroke-dasharray:none;stroke-opacity:1" /><path
         d="M 16.3333,17.1667 C 16.3333,17.6269 15.9602,18 15.5,18 c -0.4602,0 -0.8333,-0.3731 -0.8333,-0.8333 0,-0.4603 0.3731,-0.8334 0.8333,-0.8334 0.4602,0 0.8333,0.3731 0.8333,0.8334 z"
         fill="#000000"
         id="path21867"
         style="fill:#020202;fill-opacity:1;stroke:none;stroke-width:0.5375;stroke-dasharray:none;stroke-opacity:1" /><path
         d="m 14.6667,15.5 c 0,0.4602 -0.3731,0.8333 -0.8334,0.8333 C 13.3731,16.3333 13,15.9602 13,15.5 c 0,-0.4602 0.3731,-0.8333 0.8333,-0.8333 0.4603,0 0.8334,0.3731 0.8334,0.8333 z"
         fill="#000000"
         id="path21869"
         style="fill:#020202;fill-opacity:1;stroke:none;stroke-width:0.5375;stroke-dasharray:none;stroke-opacity:1" /><path
         d="m 18,15.5 c 0,0.4602 -0.3731,0.8333 -0.8333,0.8333 -0.4603,0 -0.8334,-0.3731 -0.8334,-0.8333 0,-0.4602 0.3731,-0.8333 0.8334,-0.8333 0.4602,0 0.8333,0.3731 0.8333,0.8333 z"
         fill="#000000"
         id="path21871"
         style="fill:#020202;fill-opacity:1;stroke:none;stroke-width:0.5375;stroke-dasharray:none;stroke-opacity:1" /></g><rect
       style="fill:#ffffff;fill-opacity:1;stroke:#000000;stroke-width:2;stroke-linecap:butt;stroke-linejoin:miter;stroke-dasharray:none;stroke-opacity:1;filter:url(#filter21887)"
       id="rect21875"
       width="58"
       height="24"
       x="259.06897"
       y="49.166668"
       ry="8" /><rect
       style="fill:#ffffff;fill-opacity:1;stroke:#000000;stroke-width:2;stroke-linecap:butt;stroke-linejoin:miter;stroke-dasharray:none;stroke-opacity:1;filter:url(#filter21887)"
       id="rect24069"
       width="58"
       height="24"
       x="259.06897"
       y="161.16667"
       ry="8" /><rect
       style="fill:#ffffff;fill-opacity:1;stroke:#000000;stroke-width:2;stroke-linecap:butt;stroke-linejoin:miter;stroke-dasharray:none;stroke-opacity:1;filter:url(#filter21887)"
       id="rect24071"
       width="58"
       height="24"
       x="259.06897"
       y="105.16666"
       ry="8" /><text
       xml:space="preserve"
       style="font-weight:bold;font-size:24px;line-height:0.75;font-family:'Consolas NF';-inkscape-font-specification:'Consolas NF Bold';text-align:center;text-anchor:middle;fill:#ffffff;fill-opacity:1;stroke:#000000;stroke-width:2;stroke-linecap:round;stroke-linejoin:miter;stroke-dasharray:none;stroke-opacity:1"
       x="212.06897"
       y="233.16667"
       id="text24204"><tspan
         sodipodi:role="line"
         id="tspan24202"
         x="212.06897"
         y="233.16667"
         style="font-style:normal;font-variant:normal;font-weight:600;font-stretch:semi-condensed;font-size:24px;font-family:'Lucida Sans Typewriter';-inkscape-font-specification:'Lucida Sans Typewriter Semi-Bold Semi-Condensed';fill:#000000;fill-opacity:1;stroke:none">Current Deivce</tspan></text><rect
       style="fill:#ffffff;fill-opacity:1;stroke:#ffffff;stroke-width:2;stroke-linecap:butt;stroke-linejoin:miter;stroke-dasharray:none;stroke-opacity:1"
       id="rect26536"
       width="56"
       height="56"
       x="14.139535"
       y="408"
       ry="16" /><g
       style="fill:#000000;fill-opacity:1;stroke:none;stroke-width:0.5375;stroke-dasharray:none;stroke-opacity:1"
       id="g26548"
       transform="matrix(1.8604651,0,0,1.8604651,19.813954,413.7907)"><path
         fill-rule="evenodd"
         clip-rule="evenodd"
         d="m 11.9375,1.25 h 0.125 c 2.0683,-2e-5 3.7053,-3e-5 4.986,0.19129 1.324,0.19778 2.3738,0.61352 3.191,1.52145 0.8069,0.89662 1.1671,2.02948 1.3403,3.46081 C 21.75,7.83014 21.75,9.63498 21.75,11.9478 v 0.1044 c 0,2.3128 0,4.1177 -0.1702,5.5243 -0.1732,1.4313 -0.5334,2.5641 -1.3403,3.4608 -0.8172,0.9079 -1.867,1.3236 -3.191,1.5214 -1.2807,0.1913 -2.9177,0.1913 -4.986,0.1913 h -0.125 c -2.0683,0 -3.70529,0 -4.98603,-0.1913 C 5.62747,22.3609 4.57769,21.9452 3.76055,21.0373 2.95359,20.1406 2.59338,19.0078 2.42018,17.5765 2.24998,16.1699 2.24999,14.365 2.25,12.0522 V 11.9478 C 2.24999,9.63499 2.24998,7.83014 2.42018,6.42355 2.59338,4.99222 2.95359,3.85936 3.76055,2.96274 4.57769,2.05481 5.62747,1.63907 6.95147,1.44129 8.23221,1.24997 9.86922,1.24998 11.9375,1.25 Z M 7.17309,2.92483 C 6.04626,3.09316 5.37637,3.40965 4.87549,3.96619 4.36443,4.53404 4.06563,5.31193 3.90932,6.60374 3.7513,7.90972 3.75,9.62385 3.75,12 c 0,2.3762 0.0013,4.0903 0.15932,5.3963 0.15631,1.2918 0.45511,2.0697 0.96617,2.6375 0.50088,0.5565 1.17077,0.873 2.2976,1.0414 C 8.33029,21.248 9.8552,21.25 12,21.25 c 2.1448,0 3.6697,-0.002 4.8269,-0.1748 1.1268,-0.1684 1.7967,-0.4849 2.2976,-1.0414 0.5111,-0.5678 0.8099,-1.3457 0.9662,-2.6375 C 20.2487,16.0903 20.25,14.3762 20.25,12 20.25,9.62385 20.2487,7.90972 20.0907,6.60374 19.9344,5.31193 19.6356,4.53404 19.1245,3.96619 18.6236,3.40965 17.9537,3.09316 16.8269,2.92483 15.6697,2.75196 14.1448,2.75 12,2.75 9.8552,2.75 8.33029,2.75196 7.17309,2.92483 Z M 8.91612,5.24994 C 8.9438,5.24997 8.97176,5.25 9,5.25 h 6 c 0.0282,0 0.0562,-3e-5 0.0839,-6e-5 0.3808,-4e-4 0.7093,-7.5e-4 0.9984,0.07673 0.7765,0.20805 1.383,0.81453 1.591,1.59099 0.0775,0.28914 0.0772,0.61767 0.0768,0.99846 C 17.75,7.9438 17.75,7.97176 17.75,8 c 0,0.02824 0,0.0562 10e-5,0.08389 4e-4,0.38079 7e-4,0.70931 -0.0768,0.99845 -0.208,0.77646 -0.8145,1.38296 -1.591,1.59096 -0.2891,0.0775 -0.6176,0.0772 -0.9984,0.0768 C 15.0562,10.75 15.0282,10.75 15,10.75 H 9 c -0.02824,0 -0.0562,0 -0.08388,10e-5 -0.38079,4e-4 -0.70932,7e-4 -0.99846,-0.0768 C 7.1412,10.4653 6.53472,9.8588 6.32667,9.08234 6.24919,8.7932 6.24954,8.46468 6.24994,8.08389 6.24997,8.0562 6.25,8.02824 6.25,8 6.25,7.97176 6.24997,7.9438 6.24994,7.91612 6.24954,7.53533 6.24919,7.2068 6.32667,6.91766 6.53472,6.1412 7.1412,5.53472 7.91766,5.32667 8.2068,5.24919 8.53533,5.24954 8.91612,5.24994 Z M 9,6.75 C 8.48673,6.75 8.37722,6.75644 8.30589,6.77556 8.04707,6.84491 7.84491,7.04707 7.77556,7.30589 7.75644,7.37722 7.75,7.48673 7.75,8 7.75,8.51327 7.75644,8.62278 7.77556,8.69412 7.84491,8.95293 8.04707,9.1551 8.30589,9.22445 8.37722,9.24356 8.48673,9.25 9,9.25 h 6 c 0.5133,0 0.6228,-0.00644 0.6941,-0.02555 C 15.9529,9.1551 16.1551,8.95293 16.2244,8.69412 16.2436,8.62278 16.25,8.51327 16.25,8 16.25,7.48673 16.2436,7.37722 16.2244,7.30589 16.1551,7.04707 15.9529,6.84491 15.6941,6.77556 15.6228,6.75644 15.5133,6.75 15,6.75 Z m -0.5,6.5 c 0.41421,0 0.75,0.3358 0.75,0.75 v 0.75 H 10 c 0.4142,0 0.75,0.3358 0.75,0.75 0,0.4142 -0.3358,0.75 -0.75,0.75 H 9.25 V 17 c 0,0.4142 -0.33579,0.75 -0.75,0.75 C 8.08579,17.75 7.75,17.4142 7.75,17 V 16.25 H 7 C 6.58579,16.25 6.25,15.9142 6.25,15.5 6.25,15.0858 6.58579,14.75 7,14.75 H 7.75 V 14 c 0,-0.4142 0.33579,-0.75 0.75,-0.75 z"
         fill="#000000"
         id="path26538"
         style="fill:#000000;fill-opacity:1;stroke:none;stroke-width:0.5375;stroke-dasharray:none;stroke-opacity:1" /><path
         d="m 16.3333,13.8333 c 0,0.4603 -0.3731,0.8334 -0.8333,0.8334 -0.4602,0 -0.8333,-0.3731 -0.8333,-0.8334 C 14.6667,13.3731 15.0398,13 15.5,13 c 0.4602,0 0.8333,0.3731 0.8333,0.8333 z"
         fill="#000000"
         id="path26540"
         style="fill:#000000;fill-opacity:1;stroke:none;stroke-width:0.5375;stroke-dasharray:none;stroke-opacity:1" /><path
         d="M 16.3333,17.1667 C 16.3333,17.6269 15.9602,18 15.5,18 c -0.4602,0 -0.8333,-0.3731 -0.8333,-0.8333 0,-0.4603 0.3731,-0.8334 0.8333,-0.8334 0.4602,0 0.8333,0.3731 0.8333,0.8334 z"
         fill="#000000"
         id="path26542"
         style="fill:#000000;fill-opacity:1;stroke:none;stroke-width:0.5375;stroke-dasharray:none;stroke-opacity:1" /><path
         d="m 14.6667,15.5 c 0,0.4602 -0.3731,0.8333 -0.8334,0.8333 C 13.3731,16.3333 13,15.9602 13,15.5 c 0,-0.4602 0.3731,-0.8333 0.8333,-0.8333 0.4603,0 0.8334,0.3731 0.8334,0.8333 z"
         fill="#000000"
         id="path26544"
         style="fill:#000000;fill-opacity:1;stroke:none;stroke-width:0.5375;stroke-dasharray:none;stroke-opacity:1" /><path
         d="m 18,15.5 c 0,0.4602 -0.3731,0.8333 -0.8333,0.8333 -0.4603,0 -0.8334,-0.3731 -0.8334,-0.8333 0,-0.4602 0.3731,-0.8333 0.8334,-0.8333 0.4602,0 0.8333,0.3731 0.8333,0.8333 z"
         fill="#000000"
         id="path26546"
         style="fill:#000000;fill-opacity:1;stroke:none;stroke-width:0.5375;stroke-dasharray:none;stroke-opacity:1" /></g><path
       style="fill:#000000;fill-opacity:1;stroke:#000000;stroke-width:4;stroke-linecap:round;stroke-linejoin:miter;stroke-dasharray:none;stroke-opacity:1"
       d="M 88.068963,257.16667 H 336.06896"
       id="path27324" /><rect
       style="fill:#ffffff;fill-opacity:1;stroke:#000000;stroke-width:2;stroke-dasharray:none;stroke-opacity:1;paint-order:normal"
       id="rect57"
       width="232"
       height="32"
       x="96.068962"
       y="281.16666"
       ry="8" /><rect
       style="fill:#ffffff;fill-opacity:1;stroke:#000000;stroke-width:2;stroke-dasharray:none;stroke-opacity:1;paint-order:normal;filter:url(#filter21887)"
       id="rect58"
       width="195.29575"
       height="31.541687"
       x="124.77321"
       y="321.62497"
       ry="8" /><text
       xml:space="preserve"
       style="font-style:normal;font-variant:normal;font-weight:normal;font-stretch:normal;font-size:16px;font-family:'Lucida Sans Typewriter';-inkscape-font-specification:'Lucida Sans Typewriter';text-align:start;writing-mode:lr-tb;direction:ltr;text-anchor:start;fill:#000000;fill-opacity:1;stroke:none;stroke-width:2;stroke-dasharray:none;stroke-opacity:1;paint-order:normal"
       x="104.06896"
       y="303.16666"
       id="text58"><tspan
         sodipodi:role="line"
         id="tspan58"
         x="104.06896"
         y="303.16666">+ Category</tspan></text><text
       xml:space="preserve"
       style="font-style:normal;font-variant:normal;font-weight:normal;font-stretch:normal;font-size:16px;font-family:'Lucida Sans Typewriter';-inkscape-font-specification:'Lucida Sans Typewriter';text-align:start;writing-mode:lr-tb;direction:ltr;text-anchor:start;fill:#000000;fill-opacity:1;stroke:none;stroke-width:2;stroke-dasharray:none;stroke-opacity:1;paint-order:normal"
       x="136.06897"
       y="345.16666"
       id="text59"><tspan
         sodipodi:role="line"
         id="tspan59"
         x="136.06897"
         y="345.16666">Playlist 1</tspan></text><rect
       style="fill:#000000;fill-opacity:1;stroke:#000000;stroke-width:2;stroke-dasharray:none;stroke-opacity:1;paint-order:normal"
       id="rect59"
       width="195.29575"
       height="31.541687"
       x="124.77321"
       y="361.62497"
       ry="8" /><text
       xml:space="preserve"
       style="font-style:normal;font-variant:normal;font-weight:normal;font-stretch:normal;font-size:16px;font-family:'Lucida Sans Typewriter';-inkscape-font-specification:'Lucida Sans Typewriter';text-align:start;writing-mode:lr-tb;direction:ltr;text-anchor:start;fill:#ffffff;fill-opacity:1;stroke:none;stroke-width:2;stroke-dasharray:none;stroke-opacity:1;paint-order:normal"
       x="136.06897"
       y="385.16666"
       id="text60"><tspan
         sodipodi:role="line"
         id="tspan60"
         x="136.06897"
         y="385.16666">Playlist 2</tspan></text><rect
       style="fill:#ffffff;fill-opacity:1;stroke:#000000;stroke-width:2;stroke-dasharray:none;stroke-opacity:1;paint-order:normal;filter:url(#filter21887)"
       id="rect60"
       width="232"
       height="32"
       x="96"
       y="416"
       ry="8" /><text
       xml:space="preserve"
       style="font-style:normal;font-variant:normal;font-weight:normal;font-stretch:normal;font-size:16px;font-family:'Lucida Sans Typewriter';-inkscape-font-specification:'Lucida Sans Typewriter';text-align:start;writing-mode:lr-tb;direction:ltr;text-anchor:start;fill:#000000;fill-opacity:1;stroke:none;stroke-width:2;stroke-dasharray:none;stroke-opacity:1;paint-order:normal"
       x="121.02345"
       y="437.71875"
       id="text61"><tspan
         sodipodi:role="line"
         id="tspan61"
         x="121.02345"
         y="437.71875">- Category</tspan></text><rect
       style="fill:#ffffff;fill-opacity:1;stroke:none;stroke-width:4;stroke-linecap:round;stroke-linejoin:miter;stroke-dasharray:none;stroke-opacity:1"
       id="rect32714"
       width="656"
       height="72"
       x="352"
       y="40"
       ry="8" /><rect
       style="fill:#ffffff;fill-opacity:1;stroke:#000000;stroke-width:2;stroke-linecap:butt;stroke-linejoin:miter;stroke-dasharray:none;stroke-opacity:1;filter:url(#filter21887)"
       id="rect33108"
       width="72"
       height="56"
       x="368"
       y="48"
       ry="8" /><rect
       style="fill:#ffffff;fill-opacity:1;stroke:#000000;stroke-width:2;stroke-linecap:butt;stroke-linejoin:miter;stroke-dasharray:none;stroke-opacity:1;filter:url(#filter21887)"
       id="rect33229"
       width="72"
       height="56"
       x="456"
       y="48"
       ry="8" /><circle
       style="fill:#ffffff;fill-opacity:1;stroke:#000000;stroke-width:1.5833;stroke-dasharray:none;stroke-opacity:1;paint-order:normal"
       id="path67"
       cx="951.07306"
       cy="72.510544"
       r="8.5102158" /><path
       style="fill:#ffffff;fill-opacity:1;stroke:#000000;stroke-width:1.5833;stroke-dasharray:none;stroke-opacity:1;paint-order:normal"
       d="m 956.81252,79.833294 c 1.58329,0.79165 15.83298,7.12483 15.04128,7.91648 -0.7916,0.79165 3.9583,-3.95824 2.375,-3.95824 -1.5833,0 -15.04134,-7.12483 -15.04134,-7.12483 z"
       id="path68" /><path
       style="fill:#ffffff;fill-opacity:1;stroke:#000000;stroke-width:4;stroke-linecap:round;stroke-linejoin:miter;stroke-dasharray:none;stroke-opacity:1"
       d="m 755.99999,98.249999 h 152"
       id="path34960" /><path
       style="fill:#000000;fill-opacity:1;stroke:none;stroke-width:4;stroke-linecap:round;stroke-linejoin:miter;stroke-dasharray:none;stroke-opacity:1"
       d="m 504,88 8,8 8,-8 z"
       id="path34962"
       sodipodi:nodetypes="cccc" /><text
       xml:space="preserve"
       style="font-style:normal;font-variant:normal;font-weight:normal;font-stretch:normal;font-size:18.6667px;line-height:0.75;font-family:'Lucida Sans Typewriter';-inkscape-font-specification:'Lucida Sans Typewriter';text-align:center;text-anchor:middle;fill:#000000;fill-opacity:1;stroke:none;stroke-width:4;stroke-linecap:round;stroke-linejoin:miter;stroke-dasharray:none;stroke-opacity:1"
       x="402.18625"
       y="143.47525"
       id="text35449"><tspan
         sodipodi:role="line"
         x="402.18625"
         y="143.47525"
         style="font-size:18.6667px;text-align:start;text-anchor:start;fill:#ffffff;fill-opacity:1"
         id="tspan35451">Some song or whatever</tspan></text><rect
       style="fill:#000000;fill-opacity:1;stroke:#ffffff;stroke-width:2;stroke-linecap:butt;stroke-linejoin:miter;stroke-dasharray:none;stroke-opacity:1;filter:url(#filter17041)"
       id="rect35455"
       width="16"
       height="16"
       x="376.68103"
       y="128.30339"
       ry="4" /><text
       xml:space="preserve"
       style="font-style:normal;font-variant:normal;font-weight:normal;font-stretch:normal;font-size:18.6667px;line-height:0.75;font-family:'Lucida Sans Typewriter';-inkscape-font-specification:'Lucida Sans Typewriter';text-align:center;text-anchor:middle;fill:#000000;fill-opacity:1;stroke:none;stroke-width:4;stroke-linecap:round;stroke-linejoin:miter;stroke-dasharray:none;stroke-opacity:1"
       x="402.18625"
       y="173.2552"
       id="text35587"><tspan
         sodipodi:role="line"
         x="402.18625"
         y="173.2552"
         style="font-size:18.6667px;text-align:start;text-anchor:start;fill:#ffffff;fill-opacity:1"
         id="tspan35585">Some song or whatever</tspan></text><rect
       style="fill:#000000;fill-opacity:1;stroke:#ffffff;stroke-width:2;stroke-linecap:butt;stroke-linejoin:miter;stroke-dasharray:none;stroke-opacity:1;filter:url(#filter17041)"
       id="rect35589"
       width="16"
       height="16"
       x="376.68103"
       y="158.08334"
       ry="4" /><rect
       style="fill:#ffffff;fill-opacity:1;stroke:none;stroke-width:4;stroke-linecap:round;stroke-linejoin:miter;stroke-dasharray:none;stroke-opacity:1"
       id="rect35711"
       width="620.31897"
       height="27.761196"
       x="371.68103"
       y="217.08333"
       ry="4" /><text
       xml:space="preserve"
       style="font-style:normal;font-variant:normal;font-weight:normal;font-stretch:normal;font-size:18.6667px;line-height:0.75;font-family:'Lucida Sans Typewriter';-inkscape-font-specification:'Lucida Sans Typewriter';text-align:center;text-anchor:middle;fill:#000000;fill-opacity:1;stroke:none;stroke-width:4;stroke-linecap:round;stroke-linejoin:miter;stroke-dasharray:none;stroke-opacity:1"
       x="402.18625"
       y="205.2552"
       id="text35593"><tspan
         sodipodi:role="line"
         x="402.18625"
         y="205.2552"
         style="font-size:18.6667px;text-align:start;text-anchor:start;fill:#ffffff;fill-opacity:1"
         id="tspan35591">Some song or whatever</tspan></text><rect
       style="fill:#000000;fill-opacity:1;stroke:#ffffff;stroke-width:2;stroke-linecap:butt;stroke-linejoin:miter;stroke-dasharray:none;stroke-opacity:1;filter:url(#filter17041)"
       id="rect35595"
       width="16"
       height="16"
       x="376.68103"
       y="190.08334"
       ry="4" /><text
       xml:space="preserve"
       style="font-style:normal;font-variant:normal;font-weight:normal;font-stretch:normal;font-size:18.6667px;line-height:0.75;font-family:'Lucida Sans Typewriter';-inkscape-font-specification:'Lucida Sans Typewriter';text-align:center;text-anchor:middle;fill:#000000;fill-opacity:1;stroke:none;stroke-width:4;stroke-linecap:round;stroke-linejoin:miter;stroke-dasharray:none;stroke-opacity:1"
       x="402.18625"
       y="237.2552"
       id="text35599"><tspan
         sodipodi:role="line"
         x="402.18625"
         y="237.2552"
         style="font-size:18.6667px;text-align:start;text-anchor:start;fill:#000000;fill-opacity:1"
         id="tspan35597">Some highlighted song or whatever</tspan></text><rect
       style="fill:#ffffff;fill-opacity:1;stroke:#000000;stroke-width:2;stroke-linecap:butt;stroke-linejoin:miter;stroke-dasharray:none;stroke-opacity:1;filter:url(#filter21887)"
       id="rect35601"
       width="16"
       height="16"
       x="378.68103"
       y="222.30338"
       ry="4" /><text
       xml:space="preserve"
       style="font-style:normal;font-variant:normal;font-weight:normal;font-stretch:normal;font-size:18.6667px;line-height:0.75;font-family:'Lucida Sans Typewriter';-inkscape-font-specification:'Lucida Sans Typewriter';text-align:center;text-anchor:middle;fill:#000000;fill-opacity:1;stroke:none;stroke-width:4;stroke-linecap:round;stroke-linejoin:miter;stroke-dasharray:none;stroke-opacity:1"
       x="402.18625"
       y="269.25522"
       id="text35605"><tspan
         sodipodi:role="line"
         x="402.18625"
         y="269.25522"
         style="font-size:18.6667px;text-align:start;text-anchor:start;fill:#ffffff;fill-opacity:1"
         id="tspan35603">Some song or whatever</tspan></text><rect
       style="fill:#000000;fill-opacity:1;stroke:#ffffff;stroke-width:2;stroke-linecap:butt;stroke-linejoin:miter;stroke-dasharray:none;stroke-opacity:1;filter:url(#filter17041)"
       id="rect35607"
       width="16"
       height="16"
       x="376.68103"
       y="254.08334"
       ry="4" /><rect
       style="fill:#ffffff;fill-opacity:1;stroke:none;stroke-width:4;stroke-linecap:round;stroke-linejoin:miter;stroke-dasharray:none;stroke-opacity:1"
       id="rect36394"
       width="660.31897"
       height="30.916687"
       x="355.68103"
       y="721.08331"
       ry="8" /><text
       xml:space="preserve"
       style="font-style:normal;font-variant:normal;font-weight:normal;font-stretch:normal;font-size:18.6667px;line-height:0.75;font-family:'Lucida Sans Typewriter';-inkscape-font-specification:'Lucida Sans Typewriter';text-align:end;text-anchor:end;fill:#ffffff;fill-opacity:1;stroke:#000000;stroke-width:4;stroke-linecap:round;stroke-linejoin:miter;stroke-dasharray:none;stroke-opacity:1"
       x="768"
       y="744"
       id="text36398"><tspan
         sodipodi:role="line"
         id="tspan36396"
         x="768"
         y="744"
         style="fill:#000000;fill-opacity:1;stroke:none">Some progress message</tspan></text><rect
       style="fill:#000000;fill-opacity:1;stroke:#000000;stroke-width:4;stroke-linecap:round;stroke-linejoin:miter;stroke-dasharray:none;stroke-opacity:1"
       id="rect36400"
       width="184"
       height="16"
       x="776"
       y="728"
       ry="8" /><rect
       style="fill:#ffffff;fill-opacity:1;stroke:#000000;stroke-width:4;stroke-linecap:round;stroke-linejoin:miter;stroke-dasharray:none;stroke-opacity:1"
       id="rect36974"
       width="128"
       height="16"
       x="776"
       y="728"
       ry="8" /><text
       xml:space="preserve"
       style="font-style:normal;font-variant:normal;font-weight:normal;font-stretch:normal;font-size:18.6667px;line-height:0.75;font-family:'Lucida Sans Typewriter';-inkscape-font-specification:'Lucida Sans Typewriter';text-align:end;text-anchor:end;fill:#000000;fill-opacity:1;stroke:none;stroke-width:4;stroke-linecap:round;stroke-linejoin:miter;stroke-dasharray:none;stroke-opacity:1"
       x="1000.2657"
       y="743.66278"
       id="text37134"><tspan
         sodipodi:role="line"
         id="tspan37132"
         x="1000.2657"
         y="743.66278">68%</tspan></text><rect
       style="fill:#000000;fill-opacity:1;stroke:#ffffff;stroke-width:2;stroke-linecap:butt;stroke-linejoin:miter;stroke-dasharray:none;stroke-opacity:1;filter:url(#filter17041)"
       id="rect37336"
       width="42.5"
       height="14.000002"
       x="973"
       y="3.9999981"
       ry="4.0000019" /><rect
       style="fill:#000000;fill-opacity:1;stroke:#ffffff;stroke-width:2;stroke-linecap:butt;stroke-linejoin:miter;stroke-dasharray:none;stroke-opacity:1;filter:url(#filter17041)"
       id="rect37338"
       width="17"
       height="14.000002"
       x="949"
       y="3.9999981"
       ry="4.0000019" /><rect
       style="fill:#000000;fill-opacity:1;stroke:#ffffff;stroke-width:2;stroke-linecap:butt;stroke-linejoin:miter;stroke-dasharray:none;stroke-opacity:1;filter:url(#filter17041)"
       id="rect37340"
       width="24.5"
       height="14.000002"
       x="917.5"
       y="3.9999981"
       ry="4.0000019" /><rect
       style="fill:#ffffff;fill-opacity:1;stroke:#000000;stroke-width:2;stroke-linecap:butt;stroke-linejoin:miter;stroke-dasharray:none;stroke-opacity:1;filter:url(#filter21887)"
       id="rect37647"
       width="72"
       height="56"
       x="920"
       y="48"
       ry="8" /></g></svg>
