<?xml version="1.0" encoding="UTF-8" standalone="no"?>
<!-- Created with Inkscape (http://www.inkscape.org/) -->

<svg
   width="512px"
   height="512px"
   viewBox="0 0 512 512"
   version="1.1"
   id="SVGRoot"
   sodipodi:docname="paisley_accent_1.svg"
   shape-rendering="crispEdges"
   inkscape:version="1.2.2 (732a01da63, 2022-12-09)"
   xml:space="preserve"
   xmlns:inkscape="http://www.inkscape.org/namespaces/inkscape"
   xmlns:sodipodi="http://sodipodi.sourceforge.net/DTD/sodipodi-0.dtd"
   xmlns="http://www.w3.org/2000/svg"
   xmlns:svg="http://www.w3.org/2000/svg"><sodipodi:namedview
     id="namedview909"
     pagecolor="#ffffff"
     bordercolor="#666666"
     borderopacity="1.0"
     inkscape:pageshadow="2"
     inkscape:pageopacity="0.0"
     inkscape:pagecheckerboard="true"
     inkscape:document-units="px"
     showgrid="false"
     inkscape:zoom="2"
     inkscape:cx="253.5"
     inkscape:cy="272"
     inkscape:window-width="2560"
     inkscape:window-height="1369"
     inkscape:window-x="0"
     inkscape:window-y="650"
     inkscape:window-maximized="0"
     inkscape:current-layer="layer1"
     inkscape:showpageshadow="0"
     inkscape:deskcolor="#d1d1d1"
     showguides="true"><sodipodi:guide
       position="0,512"
       orientation="0,512"
       id="guide17023"
       inkscape:locked="false" /><sodipodi:guide
       position="512.29886,313.47977"
       orientation="512,0"
       id="guide17025"
       inkscape:locked="false" /><sodipodi:guide
       position="512,0"
       orientation="0,-512"
       id="guide17027"
       inkscape:locked="false" /><sodipodi:guide
       position="0,0"
       orientation="-512,0"
       id="guide17029"
       inkscape:locked="false" /><sodipodi:guide
       position="256,256"
       orientation="-1,0"
       id="guide17031"
       inkscape:locked="false"
       inkscape:label=""
       inkscape:color="rgb(0,134,229)" /><sodipodi:guide
       position="256,256"
       orientation="0,-1"
       id="guide17033"
       inkscape:locked="false" /></sodipodi:namedview><defs
     id="defs904" /><g
     inkscape:label="Layer 1"
     inkscape:groupmode="layer"
     id="layer1"><path
       style="fill:#ffbb31;stroke:#000000;stroke-width:2;stroke-linecap:round;stroke-dasharray:none;stroke-opacity:1"
       d="m 463.63595,280.24274 c 94.69846,144.78473 -45.03707,253.57025 -152.79716,204.6937 -109.49702,-49.6644 -69.18388,-152.42848 -7.0249,-158.41426 88.38683,-8.5115 87.59438,61.89924 144.23949,35.2994 48.45331,-22.75307 15.58257,-81.57884 15.58257,-81.57884 z"
       id="path38080"
       sodipodi:nodetypes="csssc" /><path
       d="m 229.74751,71.60413 c 60,6.80001 114.66666,45.6 141.6,100.40001 34,69.06667 21.06667,150.66667 -32.53334,206.13336 -31.06667,31.99997 -69.2,50.26666 -114.93335,54.79997 -31.33331,3.06667 -53.33333,-1.73333 -76.93331,-16.9333 -17.46667,-11.20003 -35.46667,-32.53334 -41.86669,-49.60003 -6.266651,-16.53331 -7.333341,-23.06668 -7.200001,-41.73331 0.13341,-16.40002 0.40002,-19.0667 4.133331,-30.40003 5.73335,-17.19999 13.46668,-29.60001 26.93336,-43.06666 12.39999,-12.26668 25.33331,-20.93333 39.6,-26.00001 10.53332,-3.86664 28.8,-7.2 39.19998,-7.2 8.93333,0 25.46668,-3.99999 33.6,-8.13332 11.86669,-6 23.86668,-17.60001 31.06668,-29.86669 4.26667,-7.06666 8.66667,-24.39999 8.66667,-33.33332 0,-9.86669 -4.66667,-26.79999 -9.6,-34.93334 -2.4,-3.86665 -7.6,-10.26668 -11.59999,-14.26666 -13.06669,-12.80002 -23.46667,-17.73336 -47.20002,-22.13333 -5.06665,-1.0667 -7.59999,-2.13336 -7.59999,-3.4667 0,-2.13331 7.46665,-2.26666 24.66667,-0.26645 z m 13.33334,8.53334 c 37.19999,19.06666 52.13332,62.13331 33.99999,98.53334 -6.53333,13.33331 -13.33334,21.19998 -24.93335,29.19999 -13.2,8.93333 -24.93332,12.66667 -45.46666,14.13336 -20.4,1.59998 -30.53333,3.86664 -43.86667,9.99998 -66.399991,30.66667 -82.400011,113.60002 -32.00001,165.73335 23.33336,24.26668 58.13336,35.73331 93.60003,31.06665 28.39998,-3.86664 42.53333,-7.86667 62.66666,-17.73331 37.46667,-18.40003 68.66667,-51.06667 84.53334,-88.53336 8.79999,-20.79998 14.8,-49.06666 14.8,-70.53331 0,-13.46669 -3.33334,-35.46667 -7.33334,-49.33335 -17.46666,-59.8667 -66,-106.93334 -126.66667,-122.80003 -15.46666,-3.99998 -17.60001,-3.86664 -9.33332,0.26684 z"
       id="path109"
       style="display:none;stroke-width:0.133333" /><path
       style="fill:none;stroke:#000000;stroke-width:2;stroke-linecap:round;stroke-dasharray:none;stroke-opacity:1"
       d="m 444.18378,210.02864 c -89.70066,-15.74446 -113.30791,74.43888 -67.28878,116.41668 46.76092,42.65443 95.60016,-1.18492 85.58854,-32.49606 -14.23597,-44.52281 -56.63126,-18.0189 -56.52627,-57.94326 0.0741,-28.17872 38.22651,-25.97736 38.22651,-25.97736 z"
       id="path40635"
       sodipodi:nodetypes="csssc" /><path
       style="fill:none;stroke:#000000;stroke-width:1.73505;stroke-linecap:round;stroke-dasharray:none;stroke-opacity:1"
       d="m 463.1518,188.6303 c 43.24895,20.23383 24.80349,64.16619 -7.59373,68.28021 -41.75049,5.30177 -45.62745,-20.66139 -31.9068,-31.09139 19.51005,-14.83088 38.25426,-1.31059 47.68769,-15.77847 8.06923,-12.37557 -8.18716,-21.41035 -8.18716,-21.41035 z"
       id="path40637"
       sodipodi:nodetypes="csssc" /><path
       style="fill:none;stroke:#000000;stroke-width:1.59913;stroke-linecap:round;stroke-dasharray:none;stroke-opacity:1"
       d="m 460.5048,174.33312 c -24.67791,-5.45789 -32.63407,17.43794 -20.93912,28.48363 11.88207,11.22243 23.8806,2.92798 23.15941,-5.53002 -0.80523,-9.44355 -10.94936,-10.61154 -14.77408,-11.9332 -4.278,-1.47829 -4.82861,-9.71275 12.55379,-11.02041 z"
       id="path40639"
       sodipodi:nodetypes="csssc" /><path
       style="fill:none;stroke:#000000;stroke-width:2.13824;stroke-linecap:round;stroke-dasharray:none;stroke-opacity:1"
       d="M 346.64262,313.60814 C 305.85168,228.74573 85.721266,231.91084 37.170309,378.35945 -8.9826038,517.57462 151.51911,530.9697 198.55828,471.05366 c 35.41207,-45.10603 -15.87951,-110.42442 42.85335,-159.18754 50.23913,-41.7112 105.23099,1.74202 105.23099,1.74202 z"
       id="path40641"
       sodipodi:nodetypes="csssc" /><path
       style="fill:#ffe737;stroke:#000000;stroke-width:2;stroke-linecap:round;stroke-dasharray:none;stroke-opacity:1"
       d="m 472.94544,373.09219 c -1.28456,28.16218 -77.17808,103.90121 -142.73121,78.07554 -65.97434,-25.99161 -47.19177,-87.34469 -10.53258,-90.87489 52.12746,-5.01978 70.13641,39.42188 96.26534,46.4464 14.01626,3.76814 38.16694,-3.69754 56.99845,-33.64705 z"
       id="path46540"
       sodipodi:nodetypes="csssc" /><path
       style="fill:#f68f37;stroke:#000000;stroke-width:2;stroke-linecap:round;stroke-dasharray:none;stroke-opacity:1"
       d="m 480.56079,335.60973 c 11.18683,106.10218 -81.0931,165.45292 -162.66759,128.45333 -82.88935,-37.596 -52.87227,-117.88851 -5.81786,-122.41975 66.90892,-6.44321 90.30903,59.85778 133.18943,39.72168 36.67921,-17.2241 35.29602,-45.75526 35.29602,-45.75526 z"
       id="path44273"
       sodipodi:nodetypes="csssc" /><path
       style="fill:#ffe737;stroke:#000000;stroke-width:2;stroke-linecap:round;stroke-dasharray:none;stroke-opacity:1"
       d="m 472.94544,373.09219 c -1.28456,28.16218 -77.17808,103.90121 -142.73121,78.07554 -65.97434,-25.99161 -47.19177,-87.34469 -10.53258,-90.87489 52.12746,-5.01978 70.13641,39.42188 96.26534,46.4464 14.01626,3.76814 38.16694,-3.69754 56.99845,-33.64705 z"
       id="path46482"
       sodipodi:nodetypes="csssc" /><path
       style="fill:none;stroke:#000000;stroke-width:2;stroke-linecap:round;stroke-dasharray:none;stroke-opacity:1"
       d="m 472.94544,373.09219 c -1.28456,28.16218 -77.17808,103.90121 -142.73121,78.07554 -65.97434,-25.99161 -47.19177,-87.34469 -10.53258,-90.87489 52.12746,-5.01978 70.13641,39.42188 96.26534,46.4464 14.01626,3.76814 38.16694,-3.69754 56.99845,-33.64705 z"
       id="path44275"
       sodipodi:nodetypes="csssc" /><path
       style="display:inline;fill:#ad4e1a;stroke:#000000;stroke-width:2;stroke-linecap:round;stroke-linejoin:bevel;stroke-dasharray:none;stroke-opacity:1"
       d="m 293.03107,377.00661 c 0,0 10.63481,5.57867 13.96893,2.24339 3.31159,-3.31274 -2.23306,-13.87377 -2.23306,-13.87377 0,0 9.27148,10.22144 14.73306,8.62377 5.27681,-1.54362 7.5,-14.69004 7.5,-14.69004 0,0 2.85491,14.63749 8.75,15.69004 5.94373,1.06123 13.75159,-11.78904 13.75159,-11.78904 0,0 -1.43641,13.51886 3.44901,15.78904 4.84146,2.24975 14.16339,-7.47717 14.16339,-7.47717 0,0 -4.12396,11.03151 -0.61399,14.22717 4.10025,3.73308 16.47981,-2.26873 16.47981,-2.26873 0,0 -6.48372,10.32911 -3.25697,13.76873 3.69138,3.9349 15.95698,-2.71346 15.95698,-2.71346 0,0 -4.48578,10.79008 -0.92982,13.64051 3.8322,3.07187 14.12982,-4.17705 14.12982,-4.17705 0,0 -1.80926,11.36839 2.27919,12.92678 4.40014,1.67719 11.09099,-8.74973 11.09099,-8.74973 0,0 1.98877,5.93112 4.46967,7.39357 2.82721,1.66659 9.83839,0.37652 9.83839,0.37652 0,0 -6.3652,2.90226 -8.39385,5.58059 -2.48811,3.28493 -3.79984,11.76413 -3.79984,11.76413 0,0 -8.96463,-6.57805 -12.86437,-4.29186 -4.02512,2.35969 -2.62018,13.75 -2.62018,13.75 0,0 -9.13368,-8.22258 -13.64238,-6.10355 -4.31568,2.0283 -3.83523,13.78197 -3.83523,13.78197 0,0 -7.01343,-10.65069 -11.64406,-9.01941 -4.25428,1.4987 -3.14195,13.16182 -3.14195,13.16182 0,0 -6.70964,-12.06675 -12.23232,-11.36893 -5.43935,0.68729 -8.88388,13.84224 -8.88388,13.84224 0,0 -2.20262,-14.41661 -7.8938,-15.45835 -5.52627,-1.01156 -12.48511,11.32202 -12.48511,11.32202 0,0 0.66658,-13.095 -4.16138,-14.96847 -4.56471,-1.77132 -12.45068,7.7941 -12.45068,7.7941 0,0 2.92616,-12.47682 -1.37254,-15.19315 -4.0136,-2.53617 -13.36196,4.93235 -13.36196,4.93235 0,0 8.02191,-10.96207 4.67001,-14.97524 -3.35226,-4.01362 -15.56934,1.92789 -15.56934,1.92789 0,0 10.35392,-7.30783 8.80418,-12.02884 -1.59331,-4.85374 -14.62018,-4.5964 -14.62018,-4.5964 0,0 13.87391,-2.18456 14.00406,-7.47422 0.12996,-5.28163 -13.59881,-8.14152 -13.59881,-8.14152 0,0 14.1639,2.72486 15.90687,-2.34332 1.62353,-4.7209 -10.34025,-10.83438 -10.34025,-10.83438 z"
       id="path45003"
       sodipodi:nodetypes="cacacacacacacacacacacacacacacacacacacacacac" /><path
       style="fill:#ffffff;stroke:#000000;stroke-width:2;stroke-linecap:round;stroke-linejoin:bevel;stroke-dasharray:none;stroke-opacity:1"
       d="m 315.77108,387.24929 c 10.22746,-2.78254 26.11405,-1.56938 37.17952,4.18303 11.96923,6.22222 26.80755,30.31768 26.80755,30.31768 0,0 -33.68517,2.31252 -49.50815,-6.50889 -9.00858,-5.02234 -21.25,-22.49094 -21.25,-22.49094 0,0 4.23106,-4.80983 6.77108,-5.50088 z"
       id="path45733"
       sodipodi:nodetypes="sacscs" /><path
       style="fill:#000000;stroke:#000000;stroke-width:2;stroke-linecap:round;stroke-linejoin:bevel;stroke-dasharray:none;stroke-opacity:1"
       d="m 316.5,393.75 c 0,0 18.9755,-3.25064 27.25,0.5 8.2074,3.72022 18.18829,20 18.18829,20 0,0 -17.72118,-0.17593 -26.18829,-4.25 -7.27626,-3.50107 -19.25,-16.25 -19.25,-16.25 z"
       id="path45731"
       sodipodi:nodetypes="cscsc" /></g></svg>
